<?xml version="1.0" encoding="UTF-8"?>
<svg width="795px" height="815px" viewBox="0 0 795 815" version="1.1" xmlns="http://www.w3.org/2000/svg" xmlns:xlink="http://www.w3.org/1999/xlink">
    <!-- Generator: Sketch 63.1 (92452) - https://sketch.com -->
    <title>hero</title>
    <desc>Created with Sketch.</desc>
    <defs>
        <path d="M7.6916556,-3.10752092e-16 L464.808344,3.10752092e-16 C467.482901,-1.80555915e-16 468.452759,0.278476833 469.430537,0.801398111 C470.408315,1.32431939 471.175681,2.09168511 471.698602,3.06946289 C472.221523,4.04724067 472.5,5.01709938 472.5,7.6916556 L472.5,35.8083444 C472.5,38.4829006 472.221523,39.4527593 471.698602,40.4305371 C471.175681,41.4083149 470.408315,42.1756806 469.430537,42.6986019 C468.452759,43.2215232 467.482901,43.5 464.808344,43.5 L7.6916556,43.5 C5.01709938,43.5 4.04724067,43.2215232 3.06946289,42.6986019 C2.09168511,42.1756806 1.32431939,41.4083149 0.801398111,40.4305371 C0.278476833,39.4527593 1.2037061e-16,38.4829006 -2.07168062e-16,35.8083444 L2.07168062e-16,7.6916556 C-1.2037061e-16,5.01709938 0.278476833,4.04724067 0.801398111,3.06946289 C1.32431939,2.09168511 2.09168511,1.32431939 3.06946289,0.801398111 C4.04724067,0.278476833 5.01709938,1.80555915e-16 7.6916556,-3.10752092e-16 Z" id="path-1"></path>
    </defs>
    <g id="Web" stroke="none" stroke-width="1" fill="none" fill-rule="evenodd">
        <g id="web---desktop" transform="translate(-749.000000, -125.000000)">
            <g id="hero" transform="translate(749.000000, 125.000000)">
                <g id="Group-2-Copy-7" transform="translate(655.000000, 151.000000)">
                    <circle id="Oval" stroke="#353C92" stroke-width="7.33333333" fill="#FFFFFF" cx="22" cy="19.5555556" r="15.8888889"></circle>
                    <rect id="Rectangle" fill="#353C92" x="0" y="14.6666667" width="44" height="9.77777778"></rect>
                </g>
                <g id="mode-/-overground" transform="translate(373.000000, 96.000000)">
                    <g id="Group-2-Copy-2">
                        <circle id="Oval" stroke="#EF7B10" stroke-width="7.33333333" fill="#FFFFFF" cx="22" cy="19.5555556" r="15.8888889"></circle>
                        <rect id="Rectangle" fill="#353C92" x="0" y="14.6666667" width="44" height="9.77777778"></rect>
                    </g>
                </g>
                <g id="route-/-tube" transform="translate(57.000000, 84.000000)">
                    <g id="Group">
                        <circle id="Oval" stroke="#FFFFFF" stroke-width="2" fill="#B26300" fill-rule="nonzero" cx="32" cy="32" r="33"></circle>
                        <g id="Group-2-Copy-12" transform="translate(10.000000, 14.000000)">
                            <circle id="Oval" stroke="#FFFFFF" stroke-width="6.31794872" cx="22" cy="18" r="14.8410256"></circle>
                            <rect id="Rectangle" fill="#FFFFFF" x="0" y="14" width="44" height="8"></rect>
                        </g>
                    </g>
                </g>
                <g id="route-/-tube" transform="translate(690.000000, 340.000000)">
                    <g id="Group">
                        <circle id="Oval" stroke="#FFFFFF" stroke-width="2" fill="#DC241F" fill-rule="nonzero" cx="32" cy="32" r="33"></circle>
                        <g id="Group-2-Copy-12" transform="translate(10.000000, 14.000000)">
                            <circle id="Oval" stroke="#FFFFFF" stroke-width="6.31794872" cx="22" cy="18" r="14.8410256"></circle>
                            <rect id="Rectangle" fill="#FFFFFF" x="0" y="14" width="44" height="8"></rect>
                        </g>
                    </g>
                </g>
                <g id="route-/-tube" transform="translate(526.000000, 74.000000)">
                    <g id="Group">
                        <circle id="Oval" stroke="#FFFFFF" stroke-width="2" fill="#FFD329" fill-rule="nonzero" cx="32" cy="32" r="33"></circle>
                        <g id="Group-2-Copy-12" transform="translate(10.000000, 14.000000)">
                            <circle id="Oval" stroke="#FFFFFF" stroke-width="6.31794872" cx="22" cy="18" r="14.8410256"></circle>
                            <rect id="Rectangle" fill="#FFFFFF" x="0" y="14" width="44" height="8"></rect>
                        </g>
                    </g>
                </g>
                <g id="route-/-tube" transform="translate(709.000000, 87.000000)">
                    <g id="Group">
                        <circle id="Oval" stroke="#FFFFFF" stroke-width="2" fill="#F4A9BE" fill-rule="nonzero" cx="32" cy="32" r="33"></circle>
                        <g id="Group-2-Copy-12" transform="translate(10.000000, 14.000000)">
                            <circle id="Oval" stroke="#FFFFFF" stroke-width="6.31794872" cx="22" cy="18" r="14.8410256"></circle>
                            <rect id="Rectangle" fill="#FFFFFF" x="0" y="14" width="44" height="8"></rect>
                        </g>
                    </g>
                </g>
                <g id="route-/-tube" transform="translate(99.000000, 404.000000)">
                    <g id="Group">
                        <circle id="Oval" stroke="#FFFFFF" stroke-width="2" fill="#0098D8" fill-rule="nonzero" cx="32" cy="32" r="33"></circle>
                        <g id="Group-2-Copy-12" transform="translate(10.000000, 14.000000)">
                            <circle id="Oval" stroke="#FFFFFF" stroke-width="6.31794872" cx="22" cy="18" r="14.8410256"></circle>
                            <rect id="Rectangle" fill="#FFFFFF" x="0" y="14" width="44" height="8"></rect>
                        </g>
                    </g>
                </g>
                <g id="route-/-tube" transform="translate(651.000000, 457.000000)">
                    <g id="Group">
                        <circle id="Oval" stroke="#FFFFFF" stroke-width="2" fill="#007D32" fill-rule="nonzero" cx="32" cy="32" r="33"></circle>
                        <g id="Group-2-Copy-12" transform="translate(10.000000, 14.000000)">
                            <circle id="Oval" stroke="#FFFFFF" stroke-width="6.31794872" cx="22" cy="18" r="14.8410256"></circle>
                            <rect id="Rectangle" fill="#FFFFFF" x="0" y="14" width="44" height="8"></rect>
                        </g>
                    </g>
                </g>
                <g id="route-/-tube" transform="translate(25.000000, 325.000000)">
                    <g id="Group">
                        <circle id="Oval" stroke="#FFFFFF" stroke-width="2" fill="#00AFAD" fill-rule="nonzero" cx="32" cy="32" r="33"></circle>
                        <g id="Group-2-Copy-12" transform="translate(10.000000, 14.000000)">
                            <circle id="Oval" stroke="#FFFFFF" stroke-width="6.31794872" cx="22" cy="18" r="14.8410256"></circle>
                            <rect id="Rectangle" fill="#FFFFFF" x="0" y="14" width="44" height="8"></rect>
                        </g>
                    </g>
                </g>
                <g id="route-/-tube" transform="translate(613.000000, 12.000000)">
                    <g id="Group">
                        <circle id="Oval" stroke="#FFFFFF" stroke-width="2" fill="#00BD19" fill-rule="nonzero" cx="32" cy="32" r="33"></circle>
                        <g id="Group-2-Copy-12" transform="translate(10.000000, 14.000000)">
                            <circle id="Oval" stroke="#FFFFFF" stroke-width="6.31794872" cx="22" cy="18" r="14.8410256"></circle>
                            <rect id="Rectangle" fill="#FFFFFF" x="0" y="14" width="44" height="8"></rect>
                        </g>
                    </g>
                </g>
                <g id="route-/-tube" transform="translate(651.000000, 251.000000)">
                    <g id="Group">
                        <circle id="Oval" fill="#EF7B10" fill-rule="nonzero" cx="32" cy="32" r="32"></circle>
                        <g id="Group-2-Copy-12" transform="translate(10.000000, 14.000000)">
                            <circle id="Oval" stroke="#FFFFFF" stroke-width="6.31794872" cx="22" cy="18" r="14.8410256"></circle>
                            <rect id="Rectangle" fill="#FFFFFF" x="0" y="14" width="44" height="8"></rect>
                        </g>
                    </g>
                </g>
                <g id="route-/-tube" transform="translate(57.000000, 200.000000)">
                    <g id="Group">
                        <circle id="Oval" stroke="#FFFFFF" stroke-width="2" fill="#93CEBA" fill-rule="nonzero" cx="32" cy="32" r="33"></circle>
                        <g id="Group-2-Copy-12" transform="translate(10.000000, 14.000000)">
                            <circle id="Oval" stroke="#FFFFFF" stroke-width="6.31794872" cx="22" cy="18" r="14.8410256"></circle>
                            <rect id="Rectangle" fill="#FFFFFF" x="0" y="14" width="44" height="8"></rect>
                        </g>
                    </g>
                </g>
                <g id="route-/-tube" transform="translate(303.000000, 23.000000)">
                    <g id="Group">
                        <circle id="Oval" stroke="#FFFFFF" stroke-width="2" fill="#0019A8" fill-rule="nonzero" cx="32" cy="32" r="33"></circle>
                        <g id="Group-2-Copy-12" transform="translate(10.000000, 14.000000)">
                            <circle id="Oval" stroke="#FFFFFF" stroke-width="6.31794872" cx="22" cy="18" r="14.8410256"></circle>
                            <rect id="Rectangle" fill="#FFFFFF" x="0" y="14" width="44" height="8"></rect>
                        </g>
                    </g>
                </g>
                <g id="bus-circle" transform="translate(191.000000, 74.000000)" fill-rule="nonzero">
                    <circle id="Oval-Copy-11" stroke="#DDE0E8" stroke-width="4" fill="#FFFFFF" cx="32" cy="32" r="30"></circle>
                    <g id="002-bus" transform="translate(16.000000, 16.000000)" fill="#000000">
                        <path d="M3.3333125,14.6666875 L3.3333125,10.6666875 C3.7013125,10.6666875 4,10.368 4,10 C4,9.632 3.7013125,9.3333125 3.3333125,9.3333125 C1.4946875,9.3333125 0,10.8293125 0,12.6666875 L0,14 C0,15.1026875 0.8973125,16 2,16 L3.3333125,16 C3.7013125,16 4,15.7013125 4,15.3333125 C4,14.9653125 3.7013125,14.6666875 3.3333125,14.6666875 Z" id="Path"></path>
                        <path d="M28.6666875,9.3333125 C28.2986875,9.3333125 28,9.632 28,10 C28,10.368 28.2986875,10.6666875 28.6666875,10.6666875 L28.6666875,14.6666875 C28.2986875,14.6666875 28,14.965375 28,15.333375 C28,15.701375 28.2986875,16 28.6666875,16 L30,16 C31.1026875,16 32,15.1026875 32,14 L32,12.6666875 C32,10.8293125 30.5053125,9.3333125 28.6666875,9.3333125 Z" id="Path"></path>
                        <path d="M11.3333125,28 C10.9653125,28 10.666625,28.2986875 10.666625,28.6666875 L6.666625,28.6666875 C6.666625,28.2986875 6.3679375,28 5.9999375,28 C5.6319375,28 5.33325,28.2986875 5.33325,28.6666875 L5.33325,30 C5.33325,31.1026875 6.2305625,32 7.33325,32 L10,32 C11.1026875,32 12,31.1026875 12,30 L12,28.6666875 C12,28.2986875 11.7013125,28 11.3333125,28 Z" id="Path"></path>
                        <path d="M26,28 C25.632,28 25.3333125,28.2986875 25.3333125,28.6666875 L21.3333125,28.6666875 C21.3333125,28.2986875 21.034625,28 20.666625,28 C20.298625,28 20,28.2986875 20,28.6666875 L20,30 C20,31.1026875 20.8973125,32 22,32 L24.6666875,32 C25.769375,32 26.6666875,31.1026875 26.6666875,30 L26.6666875,28.6666875 C26.6666875,28.2986875 26.368,28 26,28 Z" id="Path"></path>
                        <path d="M26,0 L6,0 C4.1613125,0 2.6666875,1.496 2.6666875,3.3333125 L2.6666875,26 C2.6666875,27.8373125 4.161375,29.3333125 6,29.3333125 L26,29.3333125 C27.8386875,29.3333125 29.3333125,27.8373125 29.3333125,26 L29.3333125,3.3333125 C29.3333125,1.496 27.8386875,0 26,0 Z M8.6666875,2.6666875 L23.333375,2.6666875 C24.4360625,2.6666875 25.333375,3.564 25.333375,4.6666875 C25.333375,5.769375 24.4360625,6.6666875 23.333375,6.6666875 L8.6666875,6.6666875 C7.564,6.6666875 6.6666875,5.769375 6.6666875,4.6666875 C6.6666875,3.564 7.564,2.6666875 8.6666875,2.6666875 Z M8.6666875,25.3333125 C7.564,25.3333125 6.6666875,24.436 6.6666875,23.3333125 C6.6666875,22.230625 7.564,21.3333125 8.6666875,21.3333125 C9.769375,21.3333125 10.6666875,22.230625 10.6666875,23.3333125 C10.6666875,24.436 9.7693125,25.3333125 8.6666875,25.3333125 Z M23.3333125,25.3333125 C22.230625,25.3333125 21.3333125,24.436 21.3333125,23.3333125 C21.3333125,22.230625 22.230625,21.3333125 23.3333125,21.3333125 C24.436,21.3333125 25.3333125,22.230625 25.3333125,23.3333125 C25.3333125,24.436 24.436,25.3333125 23.3333125,25.3333125 Z M26.6666875,16.6666875 C26.6666875,17.769375 25.769375,18.6666875 24.6666875,18.6666875 L7.3333125,18.6666875 C6.230625,18.6666875 5.3333125,17.769375 5.3333125,16.6666875 L5.3333125,10 C5.3333125,8.8973125 6.230625,8 7.3333125,8 L24.666625,8 C25.7693125,8 26.6666875,8.8973125 26.6666875,10 L26.6666875,16.6666875 L26.6666875,16.6666875 Z" id="Shape"></path>
                    </g>
                </g>
                <g id="walk" transform="translate(731.000000, 187.000000)" fill-rule="nonzero">
                    <circle id="Oval-Copy-11" stroke="#DDE0E8" stroke-width="4" fill="#FFFFFF" cx="32" cy="32" r="30"></circle>
                    <g id="003-walk-1" transform="translate(22.000000, 16.000000)" fill="#000000">
                        <path d="M18.9013333,16.1627527 L15.012129,13.9182796 C14.7626667,13.7744516 14.4612473,13.3914839 14.380043,13.1151828 L13.1753978,9.01643011 C13.1454624,8.91389247 13.100043,8.82236559 13.0443011,8.74184946 C12.8691613,8.41978495 12.5316129,8.20094624 12.1403871,8.20094624 L6.99802151,8.42288172 C6.77264516,8.43251613 6.56309677,8.51784946 6.39139785,8.65926882 C6.35698925,8.68025806 6.3212043,8.70055914 6.29023656,8.72430108 L2.79604301,11.4191828 C2.39243011,11.7305806 2.16636559,12.3636989 2.28197849,12.8602151 L3.66554839,18.8129032 C3.7808172,19.3097634 4.25634409,19.6848172 4.77075269,19.6848172 C4.80550538,19.6848172 4.84060215,19.6830968 4.87535484,19.6796559 L5.39182796,19.628043 C5.66847312,19.600172 5.91827957,19.4597849 6.07655914,19.2423226 C6.2351828,19.0248602 6.29264516,18.744086 6.23449462,18.4722581 L5.25075269,13.8769892 C5.19913978,13.6357849 5.32989247,13.2789677 5.52533333,13.1286022 L6.14778495,12.6492903 L6.46778495,20.027871 C6.46812903,20.0357849 6.47053763,20.0430108 6.47122581,20.0509247 L5.05083871,23.2013763 C4.87191398,23.5981075 4.42253763,24.1476129 4.06950538,24.4018925 L0.73944086,26.7994839 C0.203010753,27.1855484 0.000344086022,27.9576774 0.277677419,28.5577634 L0.733247312,29.5421935 C0.914924731,29.9347957 1.27931183,30.1787527 1.68464516,30.1787527 C1.91655914,30.1787527 2.14468817,30.099957 2.34425806,29.9516559 L6.74098925,26.6776774 C7.17901075,26.3514839 7.71922581,25.7166452 7.97075269,25.231828 L10.1656774,21.0043871 C10.1832258,20.9703226 10.1942366,20.9338495 10.2086882,20.8984086 L10.3618065,20.891871 L13.9544086,30.7967312 C14.208,31.495914 14.8844731,31.9659355 15.6376774,31.9659355 C15.8166022,31.9659355 15.9934624,31.9387527 16.1634409,31.8847312 L16.3850323,31.8141935 C16.824086,31.6748387 17.1767742,31.3730753 17.3784086,30.9643011 C17.5796989,30.5555269 17.604129,30.0916989 17.4472258,29.6588387 L13.664,19.2292473 C13.6464516,19.1810753 13.6223656,19.1370323 13.6013763,19.0912688 L13.479914,16.2924731 L17.6509247,18.4591828 C17.7975054,18.5355699 17.9626667,18.575828 18.1288602,18.575828 C18.5149247,18.575828 18.8683011,18.3669677 19.0510108,18.0307957 L19.2990968,17.5738495 C19.5688602,17.0780215 19.3902796,16.4449032 18.9013333,16.1627527 Z" id="Path"></path>
                        <path d="M9.00197849,7.45737634 C9.056,7.45737634 9.11070968,7.45634409 9.16541935,7.45393548 C10.160172,7.41092473 11.0788817,6.98253763 11.751914,6.24860215 C12.4249462,5.51466667 12.7717849,4.56223656 12.7287742,3.56748387 C12.64,1.51294624 10.9230108,-0.0856774194 8.84232258,0.00344086022 C7.84756989,0.0464516129 6.92886022,0.47483871 6.25582796,1.20877419 C5.5827957,1.94305376 5.23595699,2.89513978 5.27896774,3.88989247 C5.36567742,5.8904086 7.00111828,7.45737634 9.00197849,7.45737634 Z" id="Path"></path>
                    </g>
                </g>
                <g id="rail" transform="translate(426.000000, 10.000000)">
                    <circle id="Oval-Copy-11" stroke="#DDE0E8" stroke-width="4" fill="#FFFFFF" fill-rule="nonzero" cx="32" cy="32" r="30"></circle>
                    <g id="national-rail" transform="translate(13.000000, 20.000000)" stroke="#ED1C24">
                        <g id="National_Rail_logo" transform="translate(0.593750, 0.000000)">
                            <g transform="translate(0.000000, -4.800000)">
                                <polyline id="Path" stroke-width="3.6" points="0.59375 0.06 16.3689601 7.60553208 27.3125 12.84 9.5 21.36 36.21875 34.14"></polyline>
                                <path d="M0,12.84 L36.8125,12.84 M36.8125,21.36 L0,21.36" id="Shape" stroke-width="3.84"></path>
                            </g>
                        </g>
                    </g>
                </g>
                <g id="Group-2" transform="translate(137.000000, 125.000000)">
                    <rect id="Rectangle" fill="#F8F9FD" x="0" y="90" width="532.5" height="600" rx="48"></rect>
                    <path d="M48,0 L484.5,0 C511.009668,-4.86974701e-15 532.5,21.490332 532.5,48 L532.5,199.5 L532.5,199.5 L0,199.5 L0,48 C-3.24649801e-15,21.490332 21.490332,4.86974701e-15 48,0 Z" id="Rectangle-Copy-3" fill="#0C2BFF"></path>
                    <text id="Line-status" font-family="OpenSans-Bold, Open Sans" font-size="36" font-weight="bold" line-spacing="36" fill="#FFFFFF">
                        <tspan x="30" y="90.5">Line status</tspan>
                    </text>
                    <g id="-Segmented-Control-/_/-2-Items" transform="translate(30.000000, 129.000000)">
                        <mask id="mask-2" fill="white">
                            <use xlink:href="#path-1"></use>
                        </mask>
                        <use id="Mask" fill-opacity="0" fill="#FF0000" fill-rule="evenodd" xlink:href="#path-1"></use>
                        <path d="M7.6916556,43.5 C5.01709938,43.5 4.04724067,43.2215232 3.06946289,42.6986019 C2.09168511,42.1756806 1.32431939,41.4083149 0.801398111,40.4305371 C0.278476833,39.4527593 -8.67974518e-17,38.4829006 -4.14336123e-16,35.8083444 L-4.93038066e-32,7.6916556 C-3.27538671e-16,5.01709938 0.278476833,4.04724067 0.801398111,3.06946289 C1.32431939,2.09168511 2.09168511,1.32431939 3.06946289,0.801398111 C4.04724067,0.278476833 5.01709938,-1.30196178e-16 7.6916556,-6.21504185e-16 L464.808344,1.03537994e-30 C467.482901,-4.91308007e-16 468.452759,0.278476833 469.430537,0.801398111 C470.408315,1.32431939 471.175681,2.09168511 471.698602,3.06946289 C472.221523,4.04724067 472.5,5.01709938 472.5,7.6916556 L472.5,35.8083444 C472.5,38.4829006 472.221523,39.4527593 471.698602,40.4305371 C471.175681,41.4083149 470.408315,42.1756806 469.430537,42.6986019 C468.452759,43.2215232 467.482901,43.5 464.808344,43.5 L7.6916556,43.5 Z M8.03790698,1.5 C5.76453429,1.5 4.94015442,1.7367053 4.10904335,2.18118837 C3.27793227,2.62567143 2.62567143,3.27793227 2.18118837,4.10904335 C1.7367053,4.94015442 1.5,5.76453429 1.5,8.03790698 L1.5,8.03790698 L1.5,35.462093 C1.5,37.7354657 1.7367053,38.5598456 2.18118837,39.3909567 C2.62567143,40.2220677 3.27793227,40.8743286 4.10904335,41.3188116 C4.94015442,41.7632947 5.76453429,42 8.03790698,42 L8.03790698,42 L236.238,42 L236.238,1.499 Z M237.738,1.5 L237.738,42 L464.462093,42 C466.636623,42 467.485421,41.7834303 468.282469,41.375607 L468.390957,41.3188116 C469.222068,40.8743286 469.874329,40.2220677 470.318812,39.3909567 C470.763295,38.5598456 471,37.7354657 471,35.462093 L471,35.462093 L471,8.03790698 C471,5.76453429 470.763295,4.94015442 470.318812,4.10904335 C469.874329,3.27793227 469.222068,2.62567143 468.390957,2.18118837 C467.559846,1.7367053 466.735466,1.5 464.462093,1.5 L464.462093,1.5 L237.738,1.5 Z" id="Mask" fill="#FFFFFF" fill-rule="evenodd" mask="url(#mask-2)"></path>
                        <g id="-Segmented-Control-/_/-Inactive" mask="url(#mask-2)" font-family="SFProText-Regular, SF Pro Text" font-size="22.5" font-weight="normal" letter-spacing="-0.359999992" line-spacing="30">
                            <g transform="translate(236.250000, 0.000000)" id="↳-Label">
                                <text>
                                    <tspan x="50.3185693" y="27.75" fill="#FFFFFF">Good service</tspan>
                                </text>
                            </g>
                        </g>
                        <g id="-Segmented-Control-/_/-Active" mask="url(#mask-2)">
                            <rect id="Rectangle" fill="#FFFFFF" fill-rule="evenodd" x="0" y="0" width="237.726562" height="43.5"></rect>
                            <text id="↳-Label" font-family="SFProText-Regular, SF Pro Text" font-size="22.5" font-weight="normal" line-spacing="30" letter-spacing="-0.359999992" fill="#0C2BFF">
                                <tspan x="84.6881543" y="27.75">Delays</tspan>
                            </text>
                        </g>
                    </g>
                    <g id="district" transform="translate(25.500000, 370.500000)">
                        <rect id="Rectangle-Copy-2" fill="#FFFFFF" x="0" y="0" width="481.06" height="139.36" rx="32.16"></rect>
                        <path d="M459.215822,69.1612132 L452.098787,62.0547694 C451.836688,61.7782182 451.5094,61.64 451.116271,61.64 C450.723143,61.64 450.395854,61.7783712 450.133755,62.0547694 L449.30414,62.8736025 C449.034815,63.1428891 448.900153,63.4702159 448.900153,63.855927 C448.900153,64.2343353 449.034777,64.565562 449.30414,64.8493013 L454.609312,70.1437671 L449.303911,75.4491298 C449.034662,75.7184164 448.9,76.0457432 448.9,76.4314925 C448.9,76.8098625 449.034624,77.141204 449.303911,77.4248285 L450.133603,78.243547 C450.402889,78.5128336 450.730522,78.6474577 451.116118,78.6474577 C451.501868,78.6474577 451.829424,78.5128336 452.098634,78.243547 L459.215822,71.1371031 C459.485223,70.8532874 459.62,70.5221371 459.62,70.1437289 C459.62,69.7580178 459.485223,69.4304998 459.215822,69.1612132 Z" id="Path-Copy-12" fill="#0C2BFF" fill-rule="nonzero"></path>
                        <g id="Line-/-hammersmith-&amp;-city" transform="translate(21.440000, 32.160000)">
                            <text id="Circle" font-family="OpenSans-Bold, Open Sans" font-size="24.12" font-weight="bold" fill="#0D141F">
                                <tspan x="36.18" y="26">Circle</tspan>
                            </text>
                            <circle id="Oval-Copy-4" stroke="#FFFFFF" stroke-width="2.68" fill="#FFD329" fill-rule="nonzero" cx="12.73" cy="16.75" r="14.07"></circle>
                        </g>
                        <text id="Minor-delays" font-family="OpenSans-Bold, Open Sans" font-size="24.12" font-weight="bold" fill="#0C2BFF">
                            <tspan x="21.44" y="101.04">Minor delays</tspan>
                        </text>
                    </g>
                    <g id="district-copy" transform="translate(25.500000, 520.500000)">
                        <rect id="Rectangle-Copy-2" fill="#FFFFFF" x="0" y="0" width="481.06" height="139.36" rx="32.16"></rect>
                        <path d="M459.215822,69.1612132 L452.098787,62.0547694 C451.836688,61.7782182 451.5094,61.64 451.116271,61.64 C450.723143,61.64 450.395854,61.7783712 450.133755,62.0547694 L449.30414,62.8736025 C449.034815,63.1428891 448.900153,63.4702159 448.900153,63.855927 C448.900153,64.2343353 449.034777,64.565562 449.30414,64.8493013 L454.609312,70.1437671 L449.303911,75.4491298 C449.034662,75.7184164 448.9,76.0457432 448.9,76.4314925 C448.9,76.8098625 449.034624,77.141204 449.303911,77.4248285 L450.133603,78.243547 C450.402889,78.5128336 450.730522,78.6474577 451.116118,78.6474577 C451.501868,78.6474577 451.829424,78.5128336 452.098634,78.243547 L459.215822,71.1371031 C459.485223,70.8532874 459.62,70.5221371 459.62,70.1437289 C459.62,69.7580178 459.485223,69.4304998 459.215822,69.1612132 Z" id="Path-Copy-12" fill="#0C2BFF" fill-rule="nonzero"></path>
                        <g id="Line-/-hammersmith-&amp;-city" transform="translate(21.440000, 32.160000)">
                            <text id="Overground" font-family="OpenSans-Bold, Open Sans" font-size="24.12" font-weight="bold" fill="#0D141F">
                                <tspan x="36.18" y="26">Overground</tspan>
                            </text>
                            <circle id="Oval-Copy-4" stroke="#FFFFFF" stroke-width="2.68" fill="#EF7B10" fill-rule="nonzero" cx="12.73" cy="16.75" r="14.07"></circle>
                        </g>
                        <text id="Minor-delays" font-family="OpenSans-Bold, Open Sans" font-size="24.12" font-weight="bold" fill="#0C2BFF">
                            <tspan x="21.44" y="101.04">Minor delays</tspan>
                        </text>
                    </g>
                    <g id="hammersmith" transform="translate(25.500000, 220.500000)">
                        <rect id="Rectangle" fill="#FFFFFF" x="0" y="0" width="481.06" height="139.36" rx="32.16"></rect>
                        <path d="M459.215822,69.1612132 L452.098787,62.0547694 C451.836688,61.7782182 451.5094,61.64 451.116271,61.64 C450.723143,61.64 450.395854,61.7783712 450.133755,62.0547694 L449.30414,62.8736025 C449.034815,63.1428891 448.900153,63.4702159 448.900153,63.855927 C448.900153,64.2343353 449.034777,64.565562 449.30414,64.8493013 L454.609312,70.1437671 L449.303911,75.4491298 C449.034662,75.7184164 448.9,76.0457432 448.9,76.4314925 C448.9,76.8098625 449.034624,77.141204 449.303911,77.4248285 L450.133603,78.243547 C450.402889,78.5128336 450.730522,78.6474577 451.116118,78.6474577 C451.501868,78.6474577 451.829424,78.5128336 452.098634,78.243547 L459.215822,71.1371031 C459.485223,70.8532874 459.62,70.5221371 459.62,70.1437289 C459.62,69.7580178 459.485223,69.4304998 459.215822,69.1612132 Z" id="chevron" fill="#0C2BFF" fill-rule="nonzero"></path>
                        <g id="Line-/-hammersmith-&amp;-city" transform="translate(21.440000, 32.160000)">
                            <text id="Hammersmith-&amp;-City" font-family="OpenSans-Bold, Open Sans" font-size="24.12" font-weight="bold" fill="#0D141F">
                                <tspan x="37.52" y="26">Hammersmith &amp; City</tspan>
                            </text>
                            <circle id="Oval-Copy-4" stroke="#FFFFFF" stroke-width="2.68" fill="#F4A9BE" fill-rule="nonzero" cx="13.4" cy="16.08" r="14.74"></circle>
                        </g>
                        <text id="Severe-delays" font-family="OpenSans-Bold, Open Sans" font-size="24.12" font-weight="bold" fill="#0C2BFF">
                            <tspan x="21.44" y="101.04">Severe delays</tspan>
                        </text>
                    </g>
                </g>
                <g id="mode-/-dlr" transform="translate(536.000000, 0.000000)">
                    <g id="Group-2-Copy-3">
                        <circle id="Oval" stroke="#00AFAD" stroke-width="7.33333333" fill="#FFFFFF" cx="22" cy="19.5555556" r="15.8888889"></circle>
                        <rect id="Rectangle" fill="#353C92" x="0" y="14.6666667" width="44" height="9.77777778"></rect>
                    </g>
                </g>
                <g id="mode-/-tram" transform="translate(236.000000, 22.000000)">
                    <g id="Group-2-Copy-6">
                        <circle id="Oval" stroke="#00BD19" stroke-width="7.33333333" fill="#FFFFFF" cx="22" cy="19.5555556" r="15.8888889"></circle>
                        <rect id="Rectangle" fill="#353C92" x="0" y="14.6666667" width="44" height="9.77777778"></rect>
                    </g>
                </g>
                <g id="mode-/-tube" transform="translate(0.000000, 160.000000)">
                    <circle id="Oval" stroke="#E41F1F" stroke-width="7.33333333" fill="#FFFFFF" cx="22" cy="19.5555556" r="15.8888889"></circle>
                    <rect id="Rectangle" fill="#353C92" x="0" y="14.6666667" width="44" height="9.77777778"></rect>
                </g>
                <g id="mode-/-bus" transform="translate(141.000000, 24.000000)">
                    <g id="Group-2-Copy-5">
                        <circle id="Oval" stroke="#E41F1F" stroke-width="7.33333333" fill="#FFFFFF" cx="22" cy="19.5555556" r="15.8888889"></circle>
                        <rect id="Rectangle" fill="#E41F1F" x="0" y="14.6666667" width="44" height="9.77777778"></rect>
                    </g>
                </g>
            </g>
        </g>
    </g>
</svg>