<?xml version="1.0" encoding="UTF-8"?>
<svg width="70px" height="70px" viewBox="0 0 70 70" version="1.1" xmlns="http://www.w3.org/2000/svg" xmlns:xlink="http://www.w3.org/1999/xlink">
    <!-- Generator: Sketch 63.1 (92452) - https://sketch.com -->
    <title>icon-favs</title>
    <desc>Created with Sketch.</desc>
    <g id="Web" stroke="none" stroke-width="1" fill="none" fill-rule="evenodd">
        <g id="web---desktop" transform="translate(-133.000000, -5824.000000)">
            <g id="icon-favs" transform="translate(133.000000, 5824.000000)">
                <circle id="Oval-Copy-3" fill="#0C2BFF" cx="35" cy="35" r="35"></circle>
                <path d="M36.2895028,19.3039578 C36.1625913,19.0462477 35.978946,18.8495011 35.7642121,18.7157138 C35.5325798,18.5713982 35.2659995,18.5 34.9997184,18.5 C34.7334742,18.5 34.4669647,18.5713788 34.2354379,18.7156754 C34.0208284,18.8494285 33.8373344,19.0461263 33.7105955,19.303758 L29.6501533,27.5484527 C29.2949711,28.2697659 28.6081013,28.7694061 27.8136972,28.8848872 L18.7341774,30.2070289 C18.450449,30.2482406 18.2072228,30.3623357 18.0140764,30.5254233 C17.8052882,30.7017183 17.6550376,30.9339741 17.5726408,31.1880276 C17.490164,31.4423277 17.4754879,31.7190276 17.5409736,31.9849453 C17.6015974,32.2311203 17.7315464,32.4671809 17.936989,32.6679459 L24.5068979,39.0852659 C25.0809898,39.6463631 25.3434563,40.4552099 25.2075117,41.2470374 L23.6568621,50.3084903 C23.6082944,50.5920346 23.6415408,50.8596186 23.736893,51.0945693 C23.8397918,51.348115 24.0138359,51.5632405 24.2296017,51.7203522 C24.4451213,51.8772846 24.7027352,51.9766724 24.974858,51.9963888 C25.2267754,52.0146412 25.4904477,51.9637353 25.7439558,51.8301444 L33.8647005,47.5520975 C34.575324,47.178052 35.424676,47.178052 36.1351463,47.5520168 L44.2559874,51.8301144 C44.5094493,51.9635468 44.7732077,52.0143783 45.0251996,51.9960713 C45.2973711,51.9762984 45.5550297,51.8768925 45.7705752,51.7199412 C45.9862871,51.5628688 46.1602874,51.3478239 46.2631531,51.0943564 C46.3584726,50.8594834 46.3916962,50.59198 46.3431512,50.3085678 L44.7924425,41.24677 C44.6565437,40.4552099 44.9190102,39.6463631 45.4929942,39.0853714 L52.0630946,32.6678642 C52.2685157,32.4672546 52.3984275,32.2313622 52.4590343,31.9853259 C52.5245144,31.7195061 52.5098284,31.4428686 52.4273592,31.188592 C52.3449483,30.9344951 52.1946658,30.7021673 51.9858432,30.5257679 C51.7926568,30.3625769 51.5493818,30.2483502 51.2657714,30.2070214 L42.1861817,28.8848696 C41.3918987,28.7694061 40.7050289,28.2697659 40.3498323,27.5484235 L36.2895028,19.3039578 Z" id="Path-Copy-4" stroke="#FFFFFF" fill="#FFFFFF" fill-rule="nonzero"></path>
            </g>
        </g>
    </g>
</svg>