<?xml version="1.0" encoding="UTF-8"?>
<svg width="70px" height="70px" viewBox="0 0 70 70" version="1.1" xmlns="http://www.w3.org/2000/svg" xmlns:xlink="http://www.w3.org/1999/xlink">
    <!-- Generator: Sketch 63.1 (92452) - https://sketch.com -->
    <title>icon-alerts</title>
    <desc>Created with Sketch.</desc>
    <g id="Web" stroke="none" stroke-width="1" fill="none" fill-rule="evenodd">
        <g id="web---desktop" transform="translate(-925.000000, -5059.000000)">
            <g id="icon-alerts" transform="translate(925.000000, 5059.000000)">
                <circle id="Oval-Copy-3" fill="#0C2BFF" cx="35" cy="35" r="35"></circle>
                <g id="bell" transform="translate(18.000000, 17.000000)" fill="#FFFFFF" fill-rule="nonzero">
                    <path d="M32.5,16.322937 C31.6719055,16.322937 31.0000916,15.651123 31.0000916,14.8230285 C31.0000916,10.6155395 29.36203,6.66156009 26.3874817,3.68536373 C25.8010864,3.09896852 25.8010864,2.15112305 26.3874817,1.56445313 C26.973877,0.978057844 27.9219971,0.978057844 28.5083924,1.56445313 C32.0501098,5.10589603 33.9999084,9.81463627 33.9999084,14.8230285 C33.9999084,15.651123 33.3280945,16.322937 32.5,16.322937 Z" id="Path"></path>
                    <path d="M1.49990843,16.322937 C0.672088641,16.322937 0,15.651123 0,14.8230285 C0,9.81463627 1.95007324,5.10589603 5.49151608,1.56445312 C6.07791136,0.978057844 7.02603148,0.978057844 7.61242676,1.56445312 C8.19909668,2.15112305 8.19909668,3.09896852 7.61242676,3.68536373 C4.63787845,6.65991211 3.00009157,10.6155395 3.00009157,14.8230285 C3.00009157,15.651123 2.32800293,16.322937 1.49990843,16.322937 Z" id="Path"></path>
                    <path d="M30.568634,25.3696289 C28.3005066,23.4525146 27,20.6504516 27,17.6819458 L27,13.5 C27,8.22161869 23.0789795,3.85208128 18,3.12011719 L18,1.49990843 C18,0.670440656 17.3279114,0 16.5000916,0 C15.6719971,0 14.9999084,0.670440656 14.9999084,1.49990843 L14.9999084,3.12011719 C9.91955566,3.85208128 5.99990843,8.22161869 5.99990843,13.5 L5.99990843,17.6819458 C5.99990843,20.6504516 4.69940189,23.4525146 2.41809082,25.3814392 C1.83444216,25.8810425 1.49990843,26.6069641 1.49990843,27.3749084 C1.49990843,28.8226318 2.67736816,30.0000916 4.12509157,30.0000916 L28.8750916,30.0000916 C30.3225403,30.0000916 31.5,28.8226318 31.5,27.3749084 C31.5,26.6069641 31.1654663,25.8810425 30.568634,25.3696289 Z" id="Path"></path>
                    <path d="M16.5000916,36 C19.2164612,36 21.4889832,34.063385 22.0111084,31.5 L10.9890747,31.5 C11.5109253,34.063385 13.7834473,36 16.5000916,36 Z" id="Path"></path>
                </g>
            </g>
        </g>
    </g>
</svg>