<?xml version="1.0" encoding="UTF-8"?>
<svg width="70px" height="70px" viewBox="0 0 70 70" version="1.1" xmlns="http://www.w3.org/2000/svg" xmlns:xlink="http://www.w3.org/1999/xlink">
    <!-- Generator: Sketch 63.1 (92452) - https://sketch.com -->
    <title>Group 5</title>
    <desc>Created with Sketch.</desc>
    <g id="Web" stroke="none" stroke-width="1" fill="none" fill-rule="evenodd">
        <g id="web---desktop" transform="translate(-800.000000, -1299.000000)">
            <g id="Group-5" transform="translate(800.000000, 1299.000000)">
                <circle id="Oval-Copy-5" fill="#0C2BFF" cx="35" cy="35" r="35"></circle>
                <g id="routes-on" transform="translate(17.000000, 17.000000)" fill="#FFFFFF" fill-rule="nonzero">
                    <path d="M21.2958,14.4 L22.4958,14.4 C22.8276,14.4 23.0958,14.1318 23.0958,13.8 C23.0958,13.4682 22.8276,13.2 22.4958,13.2 L21.2958,13.2 C20.964,13.2 20.6958,13.4682 20.6958,13.8 C20.6958,14.1318 20.964,14.4 21.2958,14.4 Z" id="Path"></path>
                    <path d="M19.197,18.6 C18.9372,18.5994 18.6846,18.5532 18.4458,18.462 C18.1386,18.345 17.79,18.4992 17.6712,18.8088 C17.5536,19.1184 17.709,19.4652 18.018,19.5834 C18.3936,19.7262 18.789,19.7994 19.1958,19.8 L19.41,19.8 C19.7418,19.8 20.01,19.5318 20.01,19.2 C20.01,18.8682 19.7418,18.6 19.41,18.6 L19.197,18.6 L19.197,18.6 Z" id="Path"></path>
                    <path d="M17.7726,14.8056 C17.8812,14.8056 17.9904,14.7762 18.0894,14.715 C18.3552,14.5494 18.6492,14.448 18.9618,14.4132 C19.2912,14.3766 19.5288,14.0802 19.4928,13.7508 C19.4568,13.4214 19.1622,13.1862 18.8304,13.2198 C18.3372,13.2744 17.874,13.434 17.454,13.6962 C17.1726,13.8714 17.0874,14.2416 17.2626,14.523 C17.3766,14.7054 17.5722,14.8056 17.7726,14.8056 Z" id="Path"></path>
                    <path d="M21.5958,24 C21.5442,24 21.4932,24.0012 21.4422,24.0036 C21.111,24.0168 20.8542,24.2964 20.8674,24.6276 C20.88,24.9504 21.1464,25.203 21.4662,25.203 C21.4746,25.203 21.483,25.203 21.4914,25.2024 L22.6668,25.2 C22.9986,25.2 23.2668,24.9318 23.2668,24.6 C23.2668,24.2682 22.9986,24 22.6668,24 L21.5958,24 Z" id="Path"></path>
                    <path d="M26.0958,14.4 C26.4276,14.4 26.6958,14.1318 26.6958,13.8 C26.6958,13.4682 26.4276,13.2 26.0958,13.2 L24.8958,13.2 C24.564,13.2 24.2958,13.4682 24.2958,13.8 C24.2958,14.1318 24.564,14.4 24.8958,14.4 L26.0958,14.4 Z" id="Path"></path>
                    <path d="M28.6668,24 C28.335,24 28.0668,24.2682 28.0668,24.6 C28.0668,24.9318 28.335,25.2 28.6668,25.2 L29.8668,25.2 C30.1986,25.2 30.4668,24.9318 30.4668,24.6 C30.4668,24.2682 30.1986,24 29.8668,24 L28.6668,24 Z" id="Path"></path>
                    <path d="M30.8106,19.2 C30.8106,18.8682 30.5424,18.6 30.2106,18.6 L29.0106,18.6 C28.6788,18.6 28.4106,18.8682 28.4106,19.2 C28.4106,19.5318 28.6788,19.8 29.0106,19.8 L30.2106,19.8 C30.5418,19.8 30.8106,19.5318 30.8106,19.2 Z" id="Path"></path>
                    <path d="M25.0668,25.2 L26.2668,25.2 C26.5986,25.2 26.8668,24.9318 26.8668,24.6 C26.8668,24.2682 26.5986,24 26.2668,24 L25.0668,24 C24.735,24 24.4668,24.2682 24.4668,24.6 C24.4668,24.9318 24.7356,25.2 25.0668,25.2 Z" id="Path"></path>
                    <path d="M27.2106,19.2 C27.2106,18.8682 26.9424,18.6 26.6106,18.6 L25.4106,18.6 C25.0788,18.6 24.8106,18.8682 24.8106,19.2 C24.8106,19.5318 25.0788,19.8 25.4106,19.8 L26.6106,19.8 C26.9418,19.8 27.2106,19.5318 27.2106,19.2 Z" id="Path"></path>
                    <path d="M21.8106,18.6 C21.4788,18.6 21.2106,18.8682 21.2106,19.2 C21.2106,19.5318 21.4788,19.8 21.8106,19.8 L23.0106,19.8 C23.3424,19.8 23.6106,19.5318 23.6106,19.2 C23.6106,18.8682 23.3424,18.6 23.0106,18.6 L21.8106,18.6 Z" id="Path"></path>
                    <path d="M14.4384,34.8 L13.2384,34.8 C12.9066,34.8 12.6384,35.0682 12.6384,35.4 C12.6384,35.7318 12.9066,36 13.2384,36 L14.4384,36 C14.7702,36 15.0384,35.7318 15.0384,35.4 C15.0384,35.0682 14.7696,34.8 14.4384,34.8 Z" id="Path"></path>
                    <path d="M10.8384,34.8 L9.6384,34.8 C9.3066,34.8 9.0384,35.0682 9.0384,35.4 C9.0384,35.7318 9.3066,36 9.6384,36 L10.8384,36 C11.1702,36 11.4384,35.7318 11.4384,35.4 C11.4384,35.0682 11.1696,34.8 10.8384,34.8 Z" id="Path"></path>
                    <path d="M31.5624,32.7102 C31.239,32.6376 30.918,32.8404 30.8454,33.1638 C30.7764,33.4698 30.6426,33.7512 30.4476,33.999 C30.243,34.2594 30.2874,34.6368 30.5484,34.8414 C30.6588,34.9278 30.789,34.9698 30.9186,34.9698 C31.0968,34.9698 31.2726,34.8912 31.3908,34.7406 C31.6932,34.3566 31.9092,33.903 32.016,33.4278 C32.0886,33.1038 31.8858,32.7828 31.5624,32.7102 Z" id="Path"></path>
                    <path d="M30.9186,31.6314 C31.0482,31.6314 31.1796,31.5894 31.2888,31.503 C31.5498,31.2978 31.5942,30.9204 31.3896,30.6606 C31.0878,30.2772 30.6984,29.9604 30.2622,29.7438 C29.964,29.5956 29.6052,29.7174 29.4576,30.0138 C29.31,30.3108 29.4312,30.6708 29.7276,30.8184 C30.0054,30.9558 30.2538,31.158 30.4458,31.4028 C30.5646,31.5528 30.7404,31.6314 30.9186,31.6314 Z" id="Path"></path>
                    <path d="M28.239,30 C28.239,29.6682 27.9708,29.4 27.639,29.4 L26.439,29.4 C26.1072,29.4 25.839,29.6682 25.839,30 C25.839,30.3318 26.1072,30.6 26.439,30.6 L27.639,30.6 C27.9702,30.6 28.239,30.3318 28.239,30 Z" id="Path"></path>
                    <path d="M28.7958,34.8 L27.6378,34.8 C27.306,34.8 27.0378,35.0682 27.0378,35.4 C27.0378,35.7318 27.306,36 27.6378,36 L28.8204,35.9994 L28.8378,35.3994 L28.8378,35.9994 C29.1696,35.9994 29.4168,35.7312 29.4168,35.3994 C29.4168,35.0682 29.1276,34.8 28.7958,34.8 Z" id="Path"></path>
                    <path d="M35.6556,21.3792 C35.6028,21.0516 35.2938,20.8278 34.968,20.8818 C34.6404,20.934 34.4178,21.2424 34.4706,21.5694 C34.4874,21.6762 34.497,21.7848 34.4958,21.9006 C34.4958,22.1022 34.467,22.3014 34.4106,22.4934 C34.3176,22.8114 34.4994,23.145 34.818,23.238 C34.8744,23.2542 34.9308,23.262 34.9866,23.262 C35.2464,23.262 35.4858,23.0928 35.5626,22.8306 C35.6508,22.5288 35.6958,22.2162 35.6958,21.9048 C35.697,21.732 35.6838,21.555 35.6556,21.3792 Z" id="Path"></path>
                    <path d="M16.8174,17.913 C17.1318,17.8092 17.3034,17.4702 17.2002,17.1552 C17.1312,16.9446 17.0958,16.7244 17.0958,16.5024 C17.0964,16.4118 17.1018,16.3212 17.1126,16.233 C17.154,15.9042 16.9212,15.6036 16.5924,15.5628 C16.2534,15.525 15.963,15.7554 15.9222,16.083 C15.9054,16.2186 15.8964,16.3566 15.8958,16.4994 C15.8958,16.8522 15.951,17.199 16.0596,17.5302 C16.143,17.7828 16.3776,17.943 16.6296,17.943 C16.692,17.943 16.7556,17.934 16.8174,17.913 Z" id="Path"></path>
                    <path d="M34.0476,19.0428 C33.6192,18.7944 33.1512,18.6486 32.6574,18.6096 C32.328,18.5856 32.0382,18.8298 32.0124,19.161 C31.9866,19.4916 32.2332,19.7802 32.5638,19.806 C32.877,19.8306 33.174,19.923 33.4458,20.0808 C33.5406,20.136 33.6444,20.1618 33.7464,20.1618 C33.9534,20.1618 34.155,20.0544 34.266,19.863 C34.4322,19.5768 34.3344,19.2096 34.0476,19.0428 Z" id="Path"></path>
                    <path d="M33.207,23.8374 C32.9496,23.9454 32.6772,24 32.3958,24 L32.2668,24 C31.935,24 31.6668,24.2682 31.6668,24.6 C31.6668,24.9318 31.935,25.2 32.2668,25.2 L32.3958,25.2 C32.8374,25.2 33.2664,25.1136 33.6708,24.9438 C33.9768,24.8154 34.1202,24.4638 33.9918,24.1584 C33.864,23.853 33.51,23.709 33.207,23.8374 Z" id="Path"></path>
                    <path d="M19.533,26.9034 C19.5924,26.595 19.7172,26.31 19.9044,26.0556 C20.1006,25.7892 20.0436,25.4136 19.7766,25.2168 C19.5096,25.0212 19.1346,25.0776 18.9378,25.3446 C18.6444,25.7442 18.4476,26.1924 18.354,26.6778 C18.2916,27.003 18.5046,27.3174 18.8304,27.3804 C18.8682,27.3876 18.9066,27.3912 18.9438,27.3912 C19.2258,27.39 19.4772,27.1902 19.533,26.9034 Z" id="Path"></path>
                    <path d="M20.4732,30.3564 C20.7012,30.3564 20.9184,30.2262 21.0192,30.006 C21.1566,29.7042 21.0246,29.3484 20.7234,29.211 C20.442,29.082 20.187,28.8882 19.9866,28.6494 C19.773,28.3956 19.395,28.3626 19.1412,28.5762 C18.8874,28.7892 18.8544,29.1678 19.068,29.4216 C19.3824,29.7954 19.782,30.1002 20.2242,30.3018 C20.3052,30.3384 20.3898,30.3564 20.4732,30.3564 Z" id="Path"></path>
                    <path d="M18.0384,34.8 L16.8384,34.8 C16.5066,34.8 16.2384,35.0682 16.2384,35.4 C16.2384,35.7318 16.5066,36 16.8384,36 L18.0384,36 C18.3702,36 18.6384,35.7318 18.6384,35.4 C18.6384,35.0682 18.3696,34.8 18.0384,34.8 Z" id="Path"></path>
                    <path d="M21.6384,34.8 L20.4384,34.8 C20.1066,34.8 19.8384,35.0682 19.8384,35.4 C19.8384,35.7318 20.1066,36 20.4384,36 L21.6384,36 C21.9702,36 22.2384,35.7318 22.2384,35.4 C22.2384,35.0682 21.9696,34.8 21.6384,34.8 Z" id="Path"></path>
                    <path d="M24.639,30 C24.639,29.6682 24.3708,29.4 24.039,29.4 L22.839,29.4 C22.5072,29.4 22.239,29.6682 22.239,30 C22.239,30.3318 22.5072,30.6 22.839,30.6 L24.039,30.6 C24.3702,30.6 24.639,30.3318 24.639,30 Z" id="Path"></path>
                    <path d="M25.2384,34.8 L24.0384,34.8 C23.7066,34.8 23.4384,35.0682 23.4384,35.4 C23.4384,35.7318 23.7066,36 24.0384,36 L25.2384,36 C25.5702,36 25.8384,35.7318 25.8384,35.4 C25.8384,35.0682 25.5696,34.8 25.2384,34.8 Z" id="Path"></path>
                    <path d="M12.6126,17.3862 C11.25,15.8472 9.4332,15 7.4958,15 C5.5584,15 3.7416,15.8472 2.3796,17.3862 C-0.3876,20.5128 -0.3876,25.599 2.3796,28.7256 L7.4958,34.5054 L12.612,28.7256 C15.3798,25.599 15.3798,20.5128 12.6126,17.3862 Z M7.4958,25.8 C5.5104,25.8 3.8958,24.1854 3.8958,22.2 C3.8958,20.2146 5.5104,18.6 7.4958,18.6 C9.4812,18.6 11.0958,20.2146 11.0958,22.2 C11.0958,24.1854 9.4812,25.8 7.4958,25.8 Z" id="Shape"></path>
                    <path d="M29.2482,14.7042 L33.1266,10.3326 C35.2134,7.9806 35.2134,4.155 33.1266,1.803 C32.0946,0.6402 30.717,0 29.2476,0 C27.7788,0 26.4012,0.6402 25.3692,1.803 C23.283,4.155 23.283,7.9806 25.3692,10.3326 L29.2482,14.7042 Z M29.3958,2.4 C31.215,2.4 32.6958,3.8808 32.6958,5.7 C32.6958,7.5192 31.215,9 29.3958,9 C27.5766,9 26.0958,7.5192 26.0958,5.7 C26.0958,3.8808 27.5766,2.4 29.3958,2.4 Z" id="Shape"></path>
                </g>
            </g>
        </g>
    </g>
</svg>