<?xml version="1.0" encoding="UTF-8"?>
<svg width="70px" height="70px" viewBox="0 0 70 70" version="1.1" xmlns="http://www.w3.org/2000/svg" xmlns:xlink="http://www.w3.org/1999/xlink">
    <!-- Generator: Sketch 63.1 (92452) - https://sketch.com -->
    <title>Group 2</title>
    <desc>Created with Sketch.</desc>
    <g id="Web" stroke="none" stroke-width="1" fill="none" fill-rule="evenodd">
        <g id="web---desktop" transform="translate(-817.000000, -3031.000000)">
            <g id="Group-2" transform="translate(817.000000, 3031.000000)">
                <circle id="Oval-Copy" fill="#0C2BFF" cx="35" cy="35" r="35"></circle>
                <g id="maps-on" transform="translate(17.000000, 17.000000)" fill-rule="nonzero">
                    <path d="M35.6773333,0.0953333333 C35.4773333,-0.026 35.228,-0.0313333333 35.022,0.0773333333 L24,5.91266667 L12.9786667,0.0773333333 C12.97,0.0726666667 12.96,0.0713333333 12.9513333,0.0673333333 C12.9193333,0.052 12.8866667,0.0406666667 12.8533333,0.0306666667 C12.8346667,0.0253333333 12.8166667,0.0193333333 12.798,0.0153333333 C12.7613333,0.008 12.724,0.00533333333 12.686,0.004 C12.6693333,0.00333333333 12.6526667,0.00133333333 12.6353333,0.002 C12.5993333,0.004 12.564,0.0106666667 12.5286667,0.0186666667 C12.5086667,0.0226666667 12.4886667,0.0253333333 12.4693333,0.0313333333 C12.4646667,0.0326666667 12.46,0.0326666667 12.456,0.034 L0.456,4.034 C0.183333333,4.12466667 0,4.37933333 0,4.66666667 L0,33.3333333 C0,33.5473333 0.102666667,33.7486667 0.277333333,33.8746667 C0.392,33.9566667 0.528666667,34 0.666666667,34 C0.737333333,34 0.808666667,33.9886667 0.877333333,33.9653333 L12.6413333,30.044 L23.746,34.6166667 C23.7553333,34.6206667 23.766,34.6193333 23.7753333,34.6226667 C23.8486667,34.6486667 23.9233333,34.6666667 24,34.6666667 C24.06,34.6666667 24.1193333,34.6566667 24.1773333,34.6406667 C24.196,34.6353333 24.2133333,34.6266667 24.232,34.62 C24.2586667,34.61 24.2866667,34.6026667 24.312,34.5893333 L35.6453333,28.5893333 C35.8633333,28.474 36,28.2466667 36,28 L36,0.666666667 C36,0.432666667 35.8773333,0.216 35.6773333,0.0953333333 Z" id="Path" fill="#0C2BFF"></path>
                    <path d="M1.33333333,5.14733333 L12,1.592 L12,19.5866667 C11.7133333,19.6386667 11.4306667,19.6973333 11.1573333,19.7693333 C10.8013333,19.864 10.5893333,20.2286667 10.684,20.5846667 C10.7633333,20.8833333 11.0326667,21.0806667 11.328,21.0806667 C11.384,21.0806667 11.442,21.0733333 11.4993333,21.0586667 C11.6593333,21.016 11.834,20.9946667 12,20.96 L12,28.8533333 L1.33333333,32.408 L1.33333333,5.14733333 Z" id="Path" fill="#FFFFFF"></path>
                    <path d="M13.3333333,20.7733333 C13.5473333,20.7566667 13.7546667,20.7293333 13.974,20.7246667 C14.342,20.7166667 14.634,20.412 14.6266667,20.044 C14.6186667,19.6806667 14.322,19.3913333 13.96,19.3913333 C13.9553333,19.3913333 13.95,19.3913333 13.9453333,19.3913333 C13.7386667,19.396 13.5353333,19.4073333 13.3333333,19.4213333 L13.3333333,1.774 L23.3333333,7.068 L23.3333333,21.1973333 C22.8573333,21.1766667 22.3733333,21.1206667 21.866,21.0226667 C21.5033333,20.9513333 21.1546667,21.1886667 21.0846667,21.55 C21.0146667,21.9113333 21.2513333,22.2613333 21.6126667,22.3313333 C22.2033333,22.446 22.7766667,22.502 23.334,22.524 L23.334,33.0046667 L13.3333333,28.8866667 L13.3333333,20.7733333 Z" id="Path" fill="#FFFFFF"></path>
                    <path d="M34.6666667,27.598 L24.6666667,32.892 L24.6666667,22.452 C24.9146667,22.3393333 25.08,22.086 25.058,21.7986667 C25.0386667,21.5493333 24.8786667,21.3493333 24.6666667,21.2513333 L24.6666667,7.068 L34.6666667,1.774 L34.6666667,27.598 Z" id="Path" fill="#FFFFFF"></path>
                    <path d="M7.33333333,5.33333333 C5.49533333,5.33333333 4,6.82866667 4,8.66666667 C4,10.2766667 5.14733333,11.6226667 6.66666667,11.9326667 L6.66666667,13.3333333 C6.66666667,13.702 6.96533333,14 7.33333333,14 C7.70133333,14 8,13.702 8,13.3333333 L8,11.9326667 C9.51933333,11.6226667 10.6666667,10.2766667 10.6666667,8.66666667 C10.6666667,6.82866667 9.17133333,5.33333333 7.33333333,5.33333333 Z M7.33333333,10.6666667 C6.23066667,10.6666667 5.33333333,9.76933333 5.33333333,8.66666667 C5.33333333,7.564 6.23066667,6.66666667 7.33333333,6.66666667 C8.436,6.66666667 9.33333333,7.564 9.33333333,8.66666667 C9.33333333,9.76933333 8.436,10.6666667 7.33333333,10.6666667 Z" id="Shape" fill="#0C2BFF"></path>
                    <path d="M30.0466667,17.782 C30.1266667,17.8133333 30.2086667,17.8273333 30.2893333,17.8273333 C30.556,17.8273333 30.8073333,17.6666667 30.9106667,17.4033333 C31.224,16.604 31.4753333,15.7013333 31.6593333,14.7206667 C31.7273333,14.3593333 31.4886667,14.0113333 31.1266667,13.9426667 C30.7626667,13.8826667 30.4166667,14.114 30.3486667,14.476 C30.1806667,15.3746667 29.952,16.196 29.6693333,16.918 C29.5353333,17.26 29.704,17.6473333 30.0466667,17.782 Z" id="Path" fill="#0C2BFF"></path>
                    <path d="M8.53666667,20.8946667 C7.732,21.3993333 7.00666667,22.0313333 6.38,22.7746667 C6.14266667,23.056 6.17866667,23.4766667 6.46,23.714 C6.58533333,23.8193333 6.738,23.8706667 6.88933333,23.8706667 C7.07933333,23.8706667 7.26733333,23.79 7.39933333,23.634 C7.93666667,22.9966667 8.55733333,22.4546667 9.24466667,22.0246667 C9.55666667,21.8286667 9.65066667,21.4173333 9.45533333,21.1053333 C9.26,20.7933333 8.848,20.6986667 8.53666667,20.8946667 Z" id="Path" fill="#0C2BFF"></path>
                    <path d="M5.75133333,24.8506667 C5.41666667,24.6973333 5.02066667,24.842 4.86666667,25.1766667 C4.18266667,26.6606667 4.01333333,27.8586667 4.006,27.9093333 C3.956,28.274 4.21066667,28.6093333 4.57533333,28.6593333 C4.606,28.664 4.63733333,28.666 4.66733333,28.666 C4.99466667,28.666 5.28,28.4246667 5.32733333,28.092 C5.32866667,28.0813333 5.48133333,27.0273333 6.07733333,25.736 C6.23133333,25.4006667 6.08533333,25.0053333 5.75133333,24.8506667 Z" id="Path" fill="#0C2BFF"></path>
                    <path d="M26.9486667,21.8193333 C27.0506667,21.8193333 27.1546667,21.796 27.2513333,21.7466667 C28.1126667,21.306 28.872,20.6806667 29.5073333,19.8893333 C29.738,19.602 29.692,19.182 29.4046667,18.952 C29.118,18.7233333 28.698,18.768 28.4673333,19.0546667 C27.95,19.6993333 27.3366667,20.2053333 26.644,20.5593333 C26.316,20.7273333 26.186,21.1286667 26.354,21.4566667 C26.4726667,21.6866667 26.7066667,21.8193333 26.9486667,21.8193333 Z" id="Path" fill="#0C2BFF"></path>
                    <path d="M19.4466667,20.288 C19.1526667,20.1646667 18.9806667,20.0793333 18.9693333,20.0733333 C18.926,20.0513333 18.88,20.0333333 18.8326667,20.0213333 C18.1106667,19.836 17.3993333,19.6893333 16.7173333,19.5853333 C16.354,19.528 16.0133333,19.7793333 15.9573333,20.1433333 C15.902,20.5073333 16.152,20.848 16.516,20.9033333 C17.1333333,20.998 17.778,21.13 18.434,21.2966667 C18.5233333,21.3393333 18.694,21.42 18.9326667,21.5193333 C19.0166667,21.5546667 19.104,21.5706667 19.1893333,21.5706667 C19.45,21.5706667 19.698,21.4173333 19.8046667,21.1613333 C19.9466667,20.82 19.7866667,20.4293333 19.4466667,20.288 Z" id="Path" fill="#0C2BFF"></path>
                    <path d="M31.282,12.6206667 C31.2966667,12.6213333 31.3106667,12.622 31.3253333,12.622 C31.674,12.622 31.9673333,12.3513333 31.99,11.9973333 C32.0313333,11.3566667 32.052,10.6786667 32.052,9.984 C32.052,9.75266667 32.05,9.518 32.0453333,9.27866667 C32.0386667,8.91 31.7186667,8.63 31.3666667,8.624 C30.9986667,8.63066667 30.7053333,8.93466667 30.712,9.30266667 C30.716,9.534 30.7186667,9.76133333 30.7186667,9.984 C30.7186667,10.6506667 30.6986667,11.2993333 30.6593333,11.9126667 C30.636,12.28 30.9146667,12.5966667 31.282,12.6206667 Z" id="Path" fill="#0C2BFF"></path>
                    <path d="M5.52866667,18.4713333 C5.65866667,18.6013333 5.82933333,18.6666667 6,18.6666667 C6.17066667,18.6666667 6.34133333,18.6013333 6.47133333,18.4713333 L7.33333333,17.6093333 L8.19533333,18.4713333 C8.32533333,18.6013333 8.496,18.6666667 8.66666667,18.6666667 C8.83733333,18.6666667 9.008,18.6013333 9.138,18.4713333 C9.39866667,18.2106667 9.39866667,17.7893333 9.138,17.5286667 L8.276,16.6666667 L9.138,15.8046667 C9.39866667,15.544 9.39866667,15.1226667 9.138,14.862 C8.87733333,14.6013333 8.456,14.6013333 8.19533333,14.862 L7.33333333,15.724 L6.47133333,14.862 C6.21066667,14.6013333 5.78933333,14.6013333 5.52866667,14.862 C5.268,15.1226667 5.268,15.544 5.52866667,15.8046667 L6.39066667,16.6666667 L5.52866667,17.5286667 C5.268,17.7886667 5.268,18.2106667 5.52866667,18.4713333 Z" id="Path" fill="#0C2BFF"></path>
                </g>
            </g>
        </g>
    </g>
</svg>