<?xml version="1.0" encoding="UTF-8"?>
<svg width="70px" height="70px" viewBox="0 0 70 70" version="1.1" xmlns="http://www.w3.org/2000/svg" xmlns:xlink="http://www.w3.org/1999/xlink">
    <!-- Generator: Sketch 63.1 (92452) - https://sketch.com -->
    <title>Group 6</title>
    <desc>Created with Sketch.</desc>
    <g id="Web" stroke="none" stroke-width="1" fill="none" fill-rule="evenodd">
        <g id="web---desktop" transform="translate(-133.000000, -3886.000000)">
            <g id="Group-6" transform="translate(133.000000, 3886.000000)">
                <circle id="Oval-Copy-3" fill="#0C2BFF" cx="35" cy="35" r="35"></circle>
                <g id="departures-on" transform="translate(17.000000, 17.000000)" fill-rule="nonzero">
                    <path d="M35.9300391,18.9594844 C35.6068125,15.708375 34.1543672,12.6433828 31.8401016,10.3290469 C29.8623516,8.35136719 27.4416328,7.08046875 24.8944922,6.51536719 L24.8944922,4.72886719 C25.9348359,4.47004687 26.7081328,3.52835156 26.7081328,2.40904687 C26.7081328,1.09082812 25.6357266,0.018421875 24.3175078,0.018421875 L19.2550078,0.018421875 C17.9367891,0.018421875 16.8643828,1.09082813 16.8643828,2.40904687 C16.8643828,3.52828125 17.6376797,4.46997656 18.6779531,4.72886719 L18.6779531,6.52035937 C16.1386172,7.08785156 13.7259141,8.35699219 11.7537891,10.3291172 C11.3222109,10.7606953 10.9242422,11.2134375 10.5599531,11.6839687 C10.5423047,11.6826328 10.5246562,11.6812969 10.5066562,11.6812969 L5.49611719,11.6812969 C5.10785156,11.6812969 4.79299219,11.9960859 4.79299219,12.3844219 C4.79299219,12.7727578 5.10785156,13.0875469 5.49611719,13.0875469 L9.60321094,13.0875469 C9.08767969,13.9506328 8.67199219,14.8570312 8.35558594,15.7900781 L0.703125,15.7900781 C0.314859375,15.7900781 0,16.1048672 0,16.4932031 C0,16.8815391 0.314859375,17.1963281 0.703125,17.1963281 L7.95825,17.1963281 C7.75560937,18.0858516 7.6393125,18.991125 7.60928906,19.8989297 L4.5,19.8989297 C4.11173437,19.8989297 3.796875,20.2137187 3.796875,20.6020547 C3.796875,20.9903906 4.11173437,21.3051797 4.5,21.3051797 L7.63171875,21.3051797 C7.6910625,22.2153047 7.83738281,23.1206484 8.07075,24.0077812 L3.515625,24.0077812 C3.12735937,24.0077812 2.8125,24.3225703 2.8125,24.7109062 C2.8125,25.0992422 3.12735937,25.4140312 3.515625,25.4140312 L8.51948437,25.4140312 C9.20925,27.2387109 10.2872109,28.9489219 11.7537891,30.4155 C14.0703047,32.7320156 17.1384609,34.1848125 20.3929453,34.5063516 C20.8574297,34.5521953 21.3222656,34.5749062 21.7864687,34.5749062 C24.5302031,34.5749062 27.2390625,33.7808672 29.5375781,32.2840547 C29.8629844,32.0721328 29.9550234,31.6365469 29.7431016,31.3111406 C29.5311797,30.9857344 29.0955937,30.8936953 28.7701875,31.1056172 C23.7388359,34.3819687 17.0005781,33.6735703 12.7481484,29.4211406 C7.75863281,24.431625 7.75863281,16.3131328 12.7481484,11.3235469 C17.7375937,6.33410156 25.8560859,6.33410156 30.8456719,11.3235469 C35.0924766,15.5704219 35.8047422,22.3029141 32.5392188,27.3318047 C32.3277188,27.6574922 32.4203203,28.0930078 32.7459375,28.3044375 C33.0717656,28.5159375 33.5071406,28.4233359 33.7185703,28.0976484 C35.4633047,25.4106562 36.2486953,22.1653828 35.9300391,18.9594844 Z M18.2706328,2.40911719 C18.2706328,1.86630469 18.7121953,1.42474219 19.2550078,1.42474219 L24.3175078,1.42474219 C24.8603203,1.42474219 25.3018828,1.86630469 25.3018828,2.40911719 C25.3018828,2.95192969 24.8603203,3.39349219 24.3175078,3.39349219 L24.1913672,3.39349219 L19.3810781,3.39349219 L19.2550078,3.39349219 C18.7121953,3.39349219 18.2706328,2.95185938 18.2706328,2.40911719 Z M20.0842031,6.278625 L20.0842031,4.79974219 L23.4882422,4.79974219 L23.4882422,6.27609375 C22.3578984,6.14165625 21.2143359,6.1425 20.0842031,6.278625 Z" id="XMLID_389_" fill="#F8F9FD"></path>
                    <path d="M31.3432031,29.2148438 C31.1575781,29.2148438 30.976875,29.2900781 30.8461641,29.4208594 C30.7146797,29.5516406 30.6400781,29.7330469 30.6400781,29.9179688 C30.6400781,30.1028906 30.7146797,30.2842969 30.8461641,30.4150781 C30.976875,30.5465625 31.1576484,30.6210938 31.3432031,30.6210938 C31.528125,30.6210938 31.7088281,30.5465625 31.8403125,30.4150781 C31.9710937,30.2842969 32.0463281,30.1028906 32.0463281,29.9179688 C32.0463281,29.7330469 31.9711641,29.5516406 31.8403125,29.4208594 C31.7088281,29.2900781 31.5280547,29.2148438 31.3432031,29.2148438 Z" id="XMLID_391_" fill="#FFFFFF"></path>
                    <path d="M21.7969453,29.8734609 C16.5578906,29.8734609 12.2956875,25.6111875 12.2956875,20.3722031 C12.2956875,15.1332187 16.5578906,10.8709453 21.7969453,10.8709453 C27.036,10.8709453 31.2982031,15.1332187 31.2982031,20.3722031 C31.2982031,25.6111875 27.036,29.8734609 21.7969453,29.8734609 Z" id="XMLID_394_" fill="#0C2BFF"></path>
                    <path d="M21.7969453,9.46469531 C15.7825547,9.46469531 10.8894375,14.3577422 10.8894375,20.3722031 C10.8894375,26.3866641 15.7825547,31.2797109 21.7969453,31.2797109 C27.8113359,31.2797109 32.7044531,26.3866641 32.7044531,20.3722031 C32.7044531,14.3577422 27.8113359,9.46469531 21.7969453,9.46469531 Z" id="XMLID_394_-path" fill="#FFFFFF"></path>
                    <path d="M26.2446328,14.9301562 L22.7620547,18.4126641 C22.4708203,18.2686641 22.1432344,18.1873125 21.7969453,18.1873125 C21.4505859,18.1873125 21.1230703,18.2686641 20.8318359,18.4126641 L19.2732187,16.8540469 C18.9985781,16.5794766 18.5535,16.5794766 18.2787891,16.8540469 C18.0042187,17.1286172 18.0042187,17.5738359 18.2787891,17.8484062 L19.8374062,19.4070234 C19.6933359,19.6982578 19.6120547,20.0258437 19.6120547,20.3721328 C19.6120547,21.5768672 20.5921406,22.5570234 21.7969453,22.5570234 C23.00175,22.5570234 23.9818359,21.5768672 23.9818359,20.3721328 C23.9818359,20.0258437 23.9004844,19.6982578 23.7564844,19.4070234 L27.1368281,16.0266797 L27.1368281,16.0266797 L27.2389922,15.9245156 C27.5135625,15.6499453 27.5135625,15.2047266 27.2389922,14.9301562 C26.9644219,14.6555859 26.5193437,14.6555859 26.2446328,14.9301562 Z M21.7969453,21.1508437 C21.3676172,21.1508437 21.0183047,20.8015312 21.0183047,20.3722031 C21.0183047,19.942875 21.3676172,19.5935625 21.7969453,19.5935625 C22.2262734,19.5935625 22.5755859,19.942875 22.5755859,20.3722031 C22.5755859,20.8015312 22.2262734,21.1508437 21.7969453,21.1508437 Z" id="XMLID_397_" fill="#0C2BFF"></path>
                    <path d="M29.3146875,19.6776562 L28.6632422,19.6776562 C28.2749766,19.6776562 27.9601172,19.9924453 27.9601172,20.3807812 C27.9601172,20.7691172 28.2749766,21.0839062 28.6632422,21.0839062 L29.3146875,21.0839062 C29.7029531,21.0839062 30.0178125,20.7691172 30.0178125,20.3807812 C30.0178125,19.9924453 29.7029531,19.6776562 29.3146875,19.6776562 Z" id="XMLID_398_" fill="#0C2BFF"></path>
                    <path d="M14.9305781,19.6605 L14.2792031,19.6605 C13.8909375,19.6605 13.5760781,19.9752891 13.5760781,20.363625 C13.5760781,20.7519609 13.8909375,21.06675 14.2792031,21.06675 L14.9305781,21.06675 C15.3188437,21.06675 15.6337031,20.7519609 15.6337031,20.363625 C15.6337031,19.9752891 15.3188437,19.6605 14.9305781,19.6605 Z" id="XMLID_399_" fill="#0C2BFF"></path>
                    <path d="M21.8055234,14.2089609 C22.1937891,14.2089609 22.5086484,13.8941719 22.5086484,13.5058359 L22.5086484,12.8544609 C22.5086484,12.466125 22.1937891,12.1513359 21.8055234,12.1513359 C21.4172578,12.1513359 21.1023984,12.466125 21.1023984,12.8544609 L21.1023984,13.5058359 C21.1023984,13.8941719 21.4172578,14.2089609 21.8055234,14.2089609 Z" id="XMLID_400_" fill="#0C2BFF"></path>
                    <path d="M21.7883672,26.5354453 C21.4001016,26.5354453 21.0852422,26.8502344 21.0852422,27.2385703 L21.0852422,27.8899453 C21.0852422,28.2782812 21.4001016,28.5930703 21.7883672,28.5930703 C22.1766328,28.5930703 22.4914922,28.2782812 22.4914922,27.8899453 L22.4914922,27.2385703 C22.4914922,26.8502344 22.1766328,26.5354453 21.7883672,26.5354453 Z" id="XMLID_424_" fill="#0C2BFF"></path>
                    <path d="M0.703125,24.0075 C0.518203125,24.0075 0.336796875,24.0827344 0.206015625,24.2135156 C0.075234375,24.3442969 0,24.5257031 0,24.710625 C0,24.89625 0.0751640625,25.0769531 0.206015625,25.2077344 C0.336867187,25.3385156 0.518203125,25.41375 0.703125,25.41375 C0.888046875,25.41375 1.06945313,25.3385156 1.20016406,25.2077344 C1.33094531,25.0769531 1.40625,24.8955469 1.40625,24.710625 C1.40625,24.5257031 1.33101563,24.3442969 1.20016406,24.2135156 C1.06945313,24.0827344 0.888046875,24.0075 0.703125,24.0075 Z" id="XMLID_425_" fill="#0C2BFF"></path>
                </g>
            </g>
        </g>
    </g>
</svg>