<?xml version="1.0" encoding="UTF-8"?>
<svg width="429px" height="250px" viewBox="0 0 429 250" version="1.1" xmlns="http://www.w3.org/2000/svg" xmlns:xlink="http://www.w3.org/1999/xlink">
    <!-- Generator: Sketch 63.1 (92452) - https://sketch.com -->
    <title>Group 11</title>
    <desc>Created with Sketch.</desc>
    <g id="Web" stroke="none" stroke-width="1" fill="none" fill-rule="evenodd">
        <g id="web---desktop" transform="translate(-1082.000000, -6953.000000)">
            <g id="Group-11" transform="translate(1082.000000, 6953.000000)">
                <rect id="Rectangle-Copy-29" fill="#FFFFFF" x="0" y="0" width="429" height="250" rx="32"></rect>
                <path d="M48.0932175,85.0045676 L51.8151995,92.6516353 C52.0740242,93.183496 52.5744645,93.5520294 53.1533783,93.637183 L61.4763824,94.8635336 C62.9343365,95.0785114 63.5160037,96.8946551 62.4614307,97.9367391 L56.4389377,103.889112 C56.0204126,104.303014 55.8290475,104.899787 55.9281719,105.483996 L57.3496427,113.88907 C57.5988303,115.361109 56.0747933,116.483461 54.7710327,115.788971 L47.3270689,111.820955 C46.8094194,111.545253 46.1905806,111.545253 45.6729311,111.820955 L38.2289673,115.788971 C36.9252067,116.484159 35.4011697,115.361109 35.6503573,113.88907 L37.0718281,105.483996 C37.1709525,104.899787 36.9795874,104.303014 36.5610623,103.889112 L30.5385693,97.9367391 C29.4839963,96.8939572 30.0656635,95.0778135 31.5236176,94.8635336 L39.8466217,93.637183 C40.4255355,93.5520294 40.9259758,93.183496 41.1848005,92.6516353 L44.9067825,85.0045676 C45.5579744,83.6651441 47.4413372,83.6651441 48.0932175,85.0045676 Z" id="Path-Copy-24" fill="#FFD329" fill-rule="nonzero"></path>
                <path d="M88.0932175,85.0045676 L91.8151995,92.6516353 C92.0740242,93.183496 92.5744645,93.5520294 93.1533783,93.637183 L101.476382,94.8635336 C102.934337,95.0785114 103.516004,96.8946551 102.461431,97.9367391 L96.4389377,103.889112 C96.0204126,104.303014 95.8290475,104.899787 95.9281719,105.483996 L97.3496427,113.88907 C97.5988303,115.361109 96.0747933,116.483461 94.7710327,115.788971 L87.3270689,111.820955 C86.8094194,111.545253 86.1905806,111.545253 85.6729311,111.820955 L78.2289673,115.788971 C76.9252067,116.484159 75.4011697,115.361109 75.6503573,113.88907 L77.0718281,105.483996 C77.1709525,104.899787 76.9795874,104.303014 76.5610623,103.889112 L70.5385693,97.9367391 C69.4839963,96.8939572 70.0656635,95.0778135 71.5236176,94.8635336 L79.8466217,93.637183 C80.4255355,93.5520294 80.9259758,93.183496 81.1848005,92.6516353 L84.9067825,85.0045676 C85.5579744,83.6651441 87.4413372,83.6651441 88.0932175,85.0045676 Z" id="Path-Copy-25" fill="#FFD329" fill-rule="nonzero"></path>
                <path d="M128.093218,85.0045676 L131.815199,92.6516353 C132.074024,93.183496 132.574464,93.5520294 133.153378,93.637183 L141.476382,94.8635336 C142.934337,95.0785114 143.516004,96.8946551 142.461431,97.9367391 L136.438938,103.889112 C136.020413,104.303014 135.829048,104.899787 135.928172,105.483996 L137.349643,113.88907 C137.59883,115.361109 136.074793,116.483461 134.771033,115.788971 L127.327069,111.820955 C126.809419,111.545253 126.190581,111.545253 125.672931,111.820955 L118.228967,115.788971 C116.925207,116.484159 115.40117,115.361109 115.650357,113.88907 L117.071828,105.483996 C117.170952,104.899787 116.979587,104.303014 116.561062,103.889112 L110.538569,97.9367391 C109.483996,96.8939572 110.065663,95.0778135 111.523618,94.8635336 L119.846622,93.637183 C120.425536,93.5520294 120.925976,93.183496 121.184801,92.6516353 L124.906782,85.0045676 C125.557974,83.6651441 127.441337,83.6651441 128.093218,85.0045676 Z" id="Path-Copy-26" fill="#FFD329" fill-rule="nonzero"></path>
                <path d="M168.093218,85.0045676 L171.815199,92.6516353 C172.074024,93.183496 172.574464,93.5520294 173.153378,93.637183 L181.476382,94.8635336 C182.934337,95.0785114 183.516004,96.8946551 182.461431,97.9367391 L176.438938,103.889112 C176.020413,104.303014 175.829048,104.899787 175.928172,105.483996 L177.349643,113.88907 C177.59883,115.361109 176.074793,116.483461 174.771033,115.788971 L167.327069,111.820955 C166.809419,111.545253 166.190581,111.545253 165.672931,111.820955 L158.228967,115.788971 C156.925207,116.484159 155.40117,115.361109 155.650357,113.88907 L157.071828,105.483996 C157.170952,104.899787 156.979587,104.303014 156.561062,103.889112 L150.538569,97.9367391 C149.483996,96.8939572 150.065663,95.0778135 151.523618,94.8635336 L159.846622,93.637183 C160.425536,93.5520294 160.925976,93.183496 161.184801,92.6516353 L164.906782,85.0045676 C165.557974,83.6651441 167.441337,83.6651441 168.093218,85.0045676 Z" id="Path-Copy-27" fill="#FFD329" fill-rule="nonzero"></path>
                <path d="M208.093218,85.0045676 L211.815199,92.6516353 C212.074024,93.183496 212.574464,93.5520294 213.153378,93.637183 L221.476382,94.8635336 C222.934337,95.0785114 223.516004,96.8946551 222.461431,97.9367391 L216.438938,103.889112 C216.020413,104.303014 215.829048,104.899787 215.928172,105.483996 L217.349643,113.88907 C217.59883,115.361109 216.074793,116.483461 214.771033,115.788971 L207.327069,111.820955 C206.809419,111.545253 206.190581,111.545253 205.672931,111.820955 L198.228967,115.788971 C196.925207,116.484159 195.40117,115.361109 195.650357,113.88907 L197.071828,105.483996 C197.170952,104.899787 196.979587,104.303014 196.561062,103.889112 L190.538569,97.9367391 C189.483996,96.8939572 190.065663,95.0778135 191.523618,94.8635336 L199.846622,93.637183 C200.425536,93.5520294 200.925976,93.183496 201.184801,92.6516353 L204.906782,85.0045676 C205.557974,83.6651441 207.441337,83.6651441 208.093218,85.0045676 Z" id="Path-Copy-28" fill="#FFD329" fill-rule="nonzero"></path>
                <text id="Love-the-app!" font-family="OpenSans-Bold, Open Sans" font-size="24" font-weight="bold" line-spacing="38" fill="#0D141F">
                    <tspan x="30" y="56">Love the app!</tspan>
                </text>
                <text id="Could-you-maybe-add" font-family="OpenSans-Regular, Open Sans" font-size="18" font-weight="normal" line-spacing="28" fill="#0D141F">
                    <tspan x="30" y="151">Could you maybe add child fares for the zip </tspan>
                    <tspan x="30" y="179">cards?</tspan>
                </text>
            </g>
        </g>
    </g>
</svg>