<?xml version="1.0" encoding="UTF-8"?>
<svg width="429px" height="250px" viewBox="0 0 429 250" version="1.1" xmlns="http://www.w3.org/2000/svg" xmlns:xlink="http://www.w3.org/1999/xlink">
    <!-- Generator: Sketch 63.1 (92452) - https://sketch.com -->
    <title>review-1</title>
    <desc>Created with Sketch.</desc>
    <g id="Web" stroke="none" stroke-width="1" fill="none" fill-rule="evenodd">
        <g id="web---desktop" transform="translate(-90.000000, -7181.000000)">
            <g id="review-1" transform="translate(90.000000, 7181.000000)">
                <rect id="Rectangle" fill="#FFFFFF" x="0" y="0" width="429" height="250" rx="32"></rect>
                <path d="M48.0932175,85.0045676 L51.8151995,92.6516353 C52.0740242,93.183496 52.5744645,93.5520294 53.1533783,93.637183 L61.4763824,94.8635336 C62.9343365,95.0785114 63.5160037,96.8946551 62.4614307,97.9367391 L56.4389377,103.889112 C56.0204126,104.303014 55.8290475,104.899787 55.9281719,105.483996 L57.3496427,113.88907 C57.5988303,115.361109 56.0747933,116.483461 54.7710327,115.788971 L47.3270689,111.820955 C46.8094194,111.545253 46.1905806,111.545253 45.6729311,111.820955 L38.2289673,115.788971 C36.9252067,116.484159 35.4011697,115.361109 35.6503573,113.88907 L37.0718281,105.483996 C37.1709525,104.899787 36.9795874,104.303014 36.5610623,103.889112 L30.5385693,97.9367391 C29.4839963,96.8939572 30.0656635,95.0778135 31.5236176,94.8635336 L39.8466217,93.637183 C40.4255355,93.5520294 40.9259758,93.183496 41.1848005,92.6516353 L44.9067825,85.0045676 C45.5579744,83.6651441 47.4413372,83.6651441 48.0932175,85.0045676 Z" id="Path-Copy-14" fill="#FFD329" fill-rule="nonzero"></path>
                <path d="M88.0932175,85.0045676 L91.8151995,92.6516353 C92.0740242,93.183496 92.5744645,93.5520294 93.1533783,93.637183 L101.476382,94.8635336 C102.934337,95.0785114 103.516004,96.8946551 102.461431,97.9367391 L96.4389377,103.889112 C96.0204126,104.303014 95.8290475,104.899787 95.9281719,105.483996 L97.3496427,113.88907 C97.5988303,115.361109 96.0747933,116.483461 94.7710327,115.788971 L87.3270689,111.820955 C86.8094194,111.545253 86.1905806,111.545253 85.6729311,111.820955 L78.2289673,115.788971 C76.9252067,116.484159 75.4011697,115.361109 75.6503573,113.88907 L77.0718281,105.483996 C77.1709525,104.899787 76.9795874,104.303014 76.5610623,103.889112 L70.5385693,97.9367391 C69.4839963,96.8939572 70.0656635,95.0778135 71.5236176,94.8635336 L79.8466217,93.637183 C80.4255355,93.5520294 80.9259758,93.183496 81.1848005,92.6516353 L84.9067825,85.0045676 C85.5579744,83.6651441 87.4413372,83.6651441 88.0932175,85.0045676 Z" id="Path-Copy-15" fill="#FFD329" fill-rule="nonzero"></path>
                <path d="M128.093218,85.0045676 L131.815199,92.6516353 C132.074024,93.183496 132.574464,93.5520294 133.153378,93.637183 L141.476382,94.8635336 C142.934337,95.0785114 143.516004,96.8946551 142.461431,97.9367391 L136.438938,103.889112 C136.020413,104.303014 135.829048,104.899787 135.928172,105.483996 L137.349643,113.88907 C137.59883,115.361109 136.074793,116.483461 134.771033,115.788971 L127.327069,111.820955 C126.809419,111.545253 126.190581,111.545253 125.672931,111.820955 L118.228967,115.788971 C116.925207,116.484159 115.40117,115.361109 115.650357,113.88907 L117.071828,105.483996 C117.170952,104.899787 116.979587,104.303014 116.561062,103.889112 L110.538569,97.9367391 C109.483996,96.8939572 110.065663,95.0778135 111.523618,94.8635336 L119.846622,93.637183 C120.425536,93.5520294 120.925976,93.183496 121.184801,92.6516353 L124.906782,85.0045676 C125.557974,83.6651441 127.441337,83.6651441 128.093218,85.0045676 Z" id="Path-Copy-16" fill="#FFD329" fill-rule="nonzero"></path>
                <path d="M168.093218,85.0045676 L171.815199,92.6516353 C172.074024,93.183496 172.574464,93.5520294 173.153378,93.637183 L181.476382,94.8635336 C182.934337,95.0785114 183.516004,96.8946551 182.461431,97.9367391 L176.438938,103.889112 C176.020413,104.303014 175.829048,104.899787 175.928172,105.483996 L177.349643,113.88907 C177.59883,115.361109 176.074793,116.483461 174.771033,115.788971 L167.327069,111.820955 C166.809419,111.545253 166.190581,111.545253 165.672931,111.820955 L158.228967,115.788971 C156.925207,116.484159 155.40117,115.361109 155.650357,113.88907 L157.071828,105.483996 C157.170952,104.899787 156.979587,104.303014 156.561062,103.889112 L150.538569,97.9367391 C149.483996,96.8939572 150.065663,95.0778135 151.523618,94.8635336 L159.846622,93.637183 C160.425536,93.5520294 160.925976,93.183496 161.184801,92.6516353 L164.906782,85.0045676 C165.557974,83.6651441 167.441337,83.6651441 168.093218,85.0045676 Z" id="Path-Copy-17" fill="#FFD329" fill-rule="nonzero"></path>
                <path d="M208.093218,85.0045676 L211.815199,92.6516353 C212.074024,93.183496 212.574464,93.5520294 213.153378,93.637183 L221.476382,94.8635336 C222.934337,95.0785114 223.516004,96.8946551 222.461431,97.9367391 L216.438938,103.889112 C216.020413,104.303014 215.829048,104.899787 215.928172,105.483996 L217.349643,113.88907 C217.59883,115.361109 216.074793,116.483461 214.771033,115.788971 L207.327069,111.820955 C206.809419,111.545253 206.190581,111.545253 205.672931,111.820955 L198.228967,115.788971 C196.925207,116.484159 195.40117,115.361109 195.650357,113.88907 L197.071828,105.483996 C197.170952,104.899787 196.979587,104.303014 196.561062,103.889112 L190.538569,97.9367391 C189.483996,96.8939572 190.065663,95.0778135 191.523618,94.8635336 L199.846622,93.637183 C200.425536,93.5520294 200.925976,93.183496 201.184801,92.6516353 L204.906782,85.0045676 C205.557974,83.6651441 207.441337,83.6651441 208.093218,85.0045676 Z" id="Path-Copy-18" fill="#FFD329" fill-rule="nonzero"></path>
                <path d="M39.3632812,58.234375 C40.3789062,58.234375 41.3730469,58.1621094 42.3457031,58.0175781 C43.3183594,57.8730469 44.3554688,57.6210938 45.4570312,57.2617188 L45.4570312,57.2617188 L45.4570312,48.3789062 L38.6601562,48.3789062 L38.6601562,51.4023438 L41.90625,51.4023438 L41.90625,54.9765625 C41.125,55.1328125 40.3554688,55.2109375 39.5976562,55.2109375 C38.1445312,55.2109375 37.0371094,54.7207031 36.2753906,53.7402344 C35.5136719,52.7597656 35.1328125,51.3398438 35.1328125,49.4804688 C35.1328125,47.6992188 35.6054688,46.28125 36.5507812,45.2265625 C37.4960938,44.171875 38.7539062,43.6445312 40.3242188,43.6445312 C41.6757812,43.6445312 42.9765625,43.9570312 44.2265625,44.5820312 L44.2265625,44.5820312 L45.4335938,41.6757812 C43.8007812,40.9726562 42.1054688,40.6210938 40.3476562,40.6210938 C37.5429688,40.6210938 35.3496094,41.3945312 33.7675781,42.9414062 C32.1855469,44.4882812 31.3945312,46.6445312 31.3945312,49.4101562 C31.3945312,52.2539062 32.0761719,54.4355469 33.4394531,55.9550781 C34.8027344,57.4746094 36.7773438,58.234375 39.3632812,58.234375 Z M54.7734375,58.234375 C56.78125,58.234375 58.3476562,57.6328125 59.4726562,56.4296875 C60.5976562,55.2265625 61.1601562,53.5585938 61.1601562,51.4257812 C61.1601562,50.0507812 60.9023438,48.8515625 60.3867188,47.828125 C59.8710938,46.8046875 59.1328125,46.0195312 58.171875,45.4726562 C57.2109375,44.9257812 56.1015625,44.6523438 54.84375,44.6523438 C52.8203125,44.6523438 51.25,45.2460938 50.1328125,46.4335938 C49.015625,47.6210938 48.4570312,49.2851562 48.4570312,51.4257812 C48.4570312,52.8007812 48.7148438,54.0039062 49.2304688,55.0351562 C49.7460938,56.0664062 50.484375,56.8574219 51.4453125,57.4082031 C52.40625,57.9589844 53.515625,58.234375 54.7734375,58.234375 Z M54.8203125,55.3632812 C53.859375,55.3632812 53.1660156,55.03125 52.7402344,54.3671875 C52.3144531,53.703125 52.1015625,52.7226562 52.1015625,51.4257812 C52.1015625,50.1210938 52.3125,49.1464844 52.734375,48.5019531 C53.15625,47.8574219 53.84375,47.5351562 54.796875,47.5351562 C55.7578125,47.5351562 56.4492188,47.859375 56.8710938,48.5078125 C57.2929688,49.15625 57.5039062,50.1289062 57.5039062,51.4257812 C57.5039062,52.7304688 57.2949219,53.7128906 56.8769531,54.3730469 C56.4589844,55.0332031 55.7734375,55.3632812 54.8203125,55.3632812 Z M69.6328125,58.234375 C71.640625,58.234375 73.2070312,57.6328125 74.3320312,56.4296875 C75.4570312,55.2265625 76.0195312,53.5585938 76.0195312,51.4257812 C76.0195312,50.0507812 75.7617188,48.8515625 75.2460938,47.828125 C74.7304688,46.8046875 73.9921875,46.0195312 73.03125,45.4726562 C72.0703125,44.9257812 70.9609375,44.6523438 69.703125,44.6523438 C67.6796875,44.6523438 66.109375,45.2460938 64.9921875,46.4335938 C63.875,47.6210938 63.3164062,49.2851562 63.3164062,51.4257812 C63.3164062,52.8007812 63.5742188,54.0039062 64.0898438,55.0351562 C64.6054688,56.0664062 65.34375,56.8574219 66.3046875,57.4082031 C67.265625,57.9589844 68.375,58.234375 69.6328125,58.234375 Z M69.6796875,55.3632812 C68.71875,55.3632812 68.0253906,55.03125 67.5996094,54.3671875 C67.1738281,53.703125 66.9609375,52.7226562 66.9609375,51.4257812 C66.9609375,50.1210938 67.171875,49.1464844 67.59375,48.5019531 C68.015625,47.8574219 68.703125,47.5351562 69.65625,47.5351562 C70.6171875,47.5351562 71.3085938,47.859375 71.7304688,48.5078125 C72.1523438,49.15625 72.3632812,50.1289062 72.3632812,51.4257812 C72.3632812,52.7304688 72.1542969,53.7128906 71.7363281,54.3730469 C71.3183594,55.0332031 70.6328125,55.3632812 69.6796875,55.3632812 Z M83.1210938,58.234375 C84.7851562,58.234375 86.0234375,57.5898438 86.8359375,56.3007812 L86.8359375,56.3007812 L86.9882812,56.3007812 L87.6796875,58 L90.421875,58 L90.421875,39.765625 L86.8359375,39.765625 L86.8359375,43.9609375 C86.8359375,44.7265625 86.9257812,45.5976562 87.1054688,46.5742188 L87.1054688,46.5742188 L86.9882812,46.5742188 C86.1210938,45.2929688 84.8632812,44.6523438 83.2148438,44.6523438 C81.6445312,44.6523438 80.4121094,45.2519531 79.5175781,46.4511719 C78.6230469,47.6503906 78.1757812,49.3242188 78.1757812,51.4726562 C78.1757812,53.5898438 78.6152344,55.2460938 79.4941406,56.4414062 C80.3730469,57.6367188 81.5820312,58.234375 83.1210938,58.234375 Z M84.375,55.3867188 C83.546875,55.3867188 82.9101562,55.0644531 82.4648438,54.4199219 C82.0195312,53.7753906 81.796875,52.8085938 81.796875,51.5195312 C81.796875,50.2304688 82.0175781,49.2480469 82.4589844,48.5722656 C82.9003906,47.8964844 83.5195312,47.5585938 84.3164062,47.5585938 C85.2929688,47.5585938 85.9980469,47.8632812 86.4316406,48.4726562 C86.8652344,49.0820312 87.0820312,50.0898438 87.0820312,51.4960938 L87.0820312,51.4960938 L87.0820312,51.8828125 C87.0429688,53.15625 86.8105469,54.0585938 86.3847656,54.5898438 C85.9589844,55.1210938 85.2890625,55.3867188 84.375,55.3867188 Z M102.433594,58 L103.675781,53.921875 L109.921875,53.921875 L111.164062,58 L115.078125,58 L109.007812,40.796875 L104.566406,40.796875 L98.5195312,58 L102.433594,58 Z M109.054688,50.875 L104.589844,50.875 C105.808594,46.9296875 106.546875,44.4570312 106.804688,43.4570312 C106.867188,43.7382812 106.970703,44.1210938 107.115234,44.6054688 C107.259766,45.0898438 107.90625,47.1796875 109.054688,50.875 L109.054688,50.875 Z M120.527344,63.765625 L120.527344,58.4570312 C120.527344,58.2851562 120.464844,57.6523438 120.339844,56.5585938 L120.339844,56.5585938 L120.527344,56.5585938 C121.402344,57.6757812 122.609375,58.234375 124.148438,58.234375 C125.171875,58.234375 126.0625,57.9648438 126.820312,57.4257812 C127.578125,56.8867188 128.162109,56.1015625 128.572266,55.0703125 C128.982422,54.0390625 129.1875,52.8242188 129.1875,51.4257812 C129.1875,49.3007812 128.75,47.640625 127.875,46.4453125 C127,45.25 125.789062,44.6523438 124.242188,44.6523438 C122.601562,44.6523438 121.363281,45.3007812 120.527344,46.5976562 L120.527344,46.5976562 L120.363281,46.5976562 L119.859375,44.8984375 L116.953125,44.8984375 L116.953125,63.765625 L120.527344,63.765625 Z M123.140625,55.3398438 C122.234375,55.3398438 121.572266,55.0351562 121.154297,54.4257812 C120.736328,53.8164062 120.527344,52.8085938 120.527344,51.4023438 L120.527344,51.4023438 L120.527344,51.015625 C120.542969,49.765625 120.753906,48.8691406 121.160156,48.3261719 C121.566406,47.7832031 122.210938,47.5117188 123.09375,47.5117188 C123.9375,47.5117188 124.556641,47.8339844 124.951172,48.4785156 C125.345703,49.1230469 125.542969,50.0898438 125.542969,51.3789062 C125.542969,54.0195312 124.742188,55.3398438 123.140625,55.3398438 Z M135.714844,63.765625 L135.714844,58.4570312 C135.714844,58.2851562 135.652344,57.6523438 135.527344,56.5585938 L135.527344,56.5585938 L135.714844,56.5585938 C136.589844,57.6757812 137.796875,58.234375 139.335938,58.234375 C140.359375,58.234375 141.25,57.9648438 142.007812,57.4257812 C142.765625,56.8867188 143.349609,56.1015625 143.759766,55.0703125 C144.169922,54.0390625 144.375,52.8242188 144.375,51.4257812 C144.375,49.3007812 143.9375,47.640625 143.0625,46.4453125 C142.1875,45.25 140.976562,44.6523438 139.429688,44.6523438 C137.789062,44.6523438 136.550781,45.3007812 135.714844,46.5976562 L135.714844,46.5976562 L135.550781,46.5976562 L135.046875,44.8984375 L132.140625,44.8984375 L132.140625,63.765625 L135.714844,63.765625 Z M138.328125,55.3398438 C137.421875,55.3398438 136.759766,55.0351562 136.341797,54.4257812 C135.923828,53.8164062 135.714844,52.8085938 135.714844,51.4023438 L135.714844,51.4023438 L135.714844,51.015625 C135.730469,49.765625 135.941406,48.8691406 136.347656,48.3261719 C136.753906,47.7832031 137.398438,47.5117188 138.28125,47.5117188 C139.125,47.5117188 139.744141,47.8339844 140.138672,48.4785156 C140.533203,49.1230469 140.730469,50.0898438 140.730469,51.3789062 C140.730469,54.0195312 139.929688,55.3398438 138.328125,55.3398438 Z" id="GoodApp" fill="#0D141F" fill-rule="nonzero"></path>
                <path d="M35.7216797,153 L35.7216797,141.477539 L39.7910156,141.477539 L39.7910156,140.150391 L30.1582031,140.150391 L30.1582031,141.477539 L34.2275391,141.477539 L34.2275391,153 L35.7216797,153 Z M42.9638672,153 L42.9638672,147.963867 C42.9638672,146.709961 43.1967773,145.807617 43.6625977,145.256836 C44.128418,144.706055 44.8681641,144.430664 45.8818359,144.430664 C46.6435547,144.430664 47.203125,144.624023 47.5605469,145.010742 C47.9179688,145.397461 48.0966797,145.983398 48.0966797,146.768555 L48.0966797,146.768555 L48.0966797,153 L49.5556641,153 L49.5556641,146.71582 C49.5556641,145.49707 49.2612305,144.60791 48.6723633,144.04834 C48.0834961,143.48877 47.2001953,143.208984 46.0224609,143.208984 C45.3427734,143.208984 44.737793,143.342285 44.2075195,143.608887 C43.6772461,143.875488 43.2685547,144.240234 42.9814453,144.703125 L42.9814453,144.703125 L42.8935547,144.703125 C42.9404297,144.375 42.9638672,143.961914 42.9638672,143.463867 L42.9638672,143.463867 L42.9638672,139.324219 L41.5048828,139.324219 L41.5048828,153 L42.9638672,153 Z M53.2910156,141.732422 C53.5253906,141.732422 53.7275391,141.651855 53.8974609,141.490723 C54.0673828,141.32959 54.1523438,141.084961 54.1523438,140.756836 C54.1523438,140.428711 54.0673828,140.185547 53.8974609,140.027344 C53.7275391,139.869141 53.5253906,139.790039 53.2910156,139.790039 C53.0449219,139.790039 52.8398438,139.867676 52.6757812,140.022949 C52.5117188,140.178223 52.4296875,140.422852 52.4296875,140.756836 C52.4296875,141.084961 52.5117188,141.32959 52.6757812,141.490723 C52.8398438,141.651855 53.0449219,141.732422 53.2910156,141.732422 Z M54.0117188,153 L54.0117188,143.367188 L52.5527344,143.367188 L52.5527344,153 L54.0117188,153 Z M59.5048828,153.175781 C60.7119141,153.175781 61.6494141,152.932617 62.3173828,152.446289 C62.9853516,151.959961 63.3193359,151.268555 63.3193359,150.37207 C63.3193359,149.733398 63.1186523,149.203125 62.7172852,148.78125 C62.315918,148.359375 61.5439453,147.94043 60.4013672,147.524414 C59.5693359,147.213867 59.0068359,146.976562 58.7138672,146.8125 C58.4208984,146.648438 58.2084961,146.475586 58.0766602,146.293945 C57.9448242,146.112305 57.8789062,145.892578 57.8789062,145.634766 C57.8789062,145.253906 58.0546875,144.955078 58.40625,144.738281 C58.7578125,144.521484 59.2792969,144.413086 59.9707031,144.413086 C60.7558594,144.413086 61.6318359,144.612305 62.5986328,145.010742 L62.5986328,145.010742 L63.1171875,143.824219 C62.1269531,143.402344 61.1132812,143.191406 60.0761719,143.191406 C58.9628906,143.191406 58.0869141,143.418457 57.4482422,143.872559 C56.8095703,144.32666 56.4902344,144.946289 56.4902344,145.731445 C56.4902344,146.170898 56.5825195,146.548828 56.7670898,146.865234 C56.9516602,147.181641 57.2329102,147.464355 57.6108398,147.713379 C57.9887695,147.962402 58.6259766,148.253906 59.5224609,148.587891 C60.4658203,148.951172 61.1000977,149.266113 61.425293,149.532715 C61.7504883,149.799316 61.9130859,150.120117 61.9130859,150.495117 C61.9130859,150.993164 61.7080078,151.36377 61.2978516,151.606934 C60.8876953,151.850098 60.3017578,151.97168 59.5400391,151.97168 C59.0478516,151.97168 58.5366211,151.904297 58.0063477,151.769531 C57.4760742,151.634766 56.9794922,151.450195 56.5166016,151.21582 L56.5166016,151.21582 L56.5166016,152.569336 C57.2314453,152.973633 58.2275391,153.175781 59.5048828,153.175781 Z M71.1064453,141.732422 C71.3408203,141.732422 71.5429688,141.651855 71.7128906,141.490723 C71.8828125,141.32959 71.9677734,141.084961 71.9677734,140.756836 C71.9677734,140.428711 71.8828125,140.185547 71.7128906,140.027344 C71.5429688,139.869141 71.3408203,139.790039 71.1064453,139.790039 C70.8603516,139.790039 70.6552734,139.867676 70.4912109,140.022949 C70.3271484,140.178223 70.2451172,140.422852 70.2451172,140.756836 C70.2451172,141.084961 70.3271484,141.32959 70.4912109,141.490723 C70.6552734,141.651855 70.8603516,141.732422 71.1064453,141.732422 Z M71.8271484,153 L71.8271484,143.367188 L70.3681641,143.367188 L70.3681641,153 L71.8271484,153 Z M77.3203125,153.175781 C78.5273438,153.175781 79.4648438,152.932617 80.1328125,152.446289 C80.8007812,151.959961 81.1347656,151.268555 81.1347656,150.37207 C81.1347656,149.733398 80.934082,149.203125 80.5327148,148.78125 C80.1313477,148.359375 79.359375,147.94043 78.2167969,147.524414 C77.3847656,147.213867 76.8222656,146.976562 76.5292969,146.8125 C76.2363281,146.648438 76.0239258,146.475586 75.8920898,146.293945 C75.7602539,146.112305 75.6943359,145.892578 75.6943359,145.634766 C75.6943359,145.253906 75.8701172,144.955078 76.2216797,144.738281 C76.5732422,144.521484 77.0947266,144.413086 77.7861328,144.413086 C78.5712891,144.413086 79.4472656,144.612305 80.4140625,145.010742 L80.4140625,145.010742 L80.9326172,143.824219 C79.9423828,143.402344 78.9287109,143.191406 77.8916016,143.191406 C76.7783203,143.191406 75.9023438,143.418457 75.2636719,143.872559 C74.625,144.32666 74.3056641,144.946289 74.3056641,145.731445 C74.3056641,146.170898 74.3979492,146.548828 74.5825195,146.865234 C74.7670898,147.181641 75.0483398,147.464355 75.4262695,147.713379 C75.8041992,147.962402 76.4414062,148.253906 77.3378906,148.587891 C78.28125,148.951172 78.9155273,149.266113 79.2407227,149.532715 C79.565918,149.799316 79.7285156,150.120117 79.7285156,150.495117 C79.7285156,150.993164 79.5234375,151.36377 79.1132812,151.606934 C78.703125,151.850098 78.1171875,151.97168 77.3554688,151.97168 C76.8632812,151.97168 76.3520508,151.904297 75.8217773,151.769531 C75.2915039,151.634766 74.7949219,151.450195 74.3320312,151.21582 L74.3320312,151.21582 L74.3320312,152.569336 C75.046875,152.973633 76.0429688,153.175781 77.3203125,153.175781 Z M89.6425781,157.324219 L89.6425781,153.360352 C89.6425781,152.856445 89.6074219,152.323242 89.5371094,151.760742 L89.5371094,151.760742 L89.6425781,151.760742 C89.9941406,152.241211 90.4291992,152.597168 90.9477539,152.828613 C91.4663086,153.060059 92.0390625,153.175781 92.6660156,153.175781 C93.9199219,153.175781 94.8999023,152.737793 95.605957,151.861816 C96.3120117,150.98584 96.6650391,149.756836 96.6650391,148.174805 C96.6650391,146.598633 96.3178711,145.374023 95.6235352,144.500977 C94.9291992,143.62793 93.9433594,143.191406 92.6660156,143.191406 C92.0214844,143.191406 91.4501953,143.308594 90.9521484,143.542969 C90.4541016,143.777344 90.0175781,144.158203 89.6425781,144.685547 L89.6425781,144.685547 L89.5722656,144.685547 L89.3701172,143.367188 L88.1835938,143.367188 L88.1835938,157.324219 L89.6425781,157.324219 Z M92.4902344,151.954102 C91.4941406,151.954102 90.7705078,151.662598 90.3193359,151.07959 C89.8681641,150.496582 89.6425781,149.52832 89.6425781,148.174805 L89.6425781,148.174805 L89.6425781,147.849609 C89.6542969,146.660156 89.8798828,145.792969 90.3193359,145.248047 C90.7587891,144.703125 91.4707031,144.430664 92.4550781,144.430664 C93.3105469,144.430664 93.9741211,144.751465 94.4458008,145.393066 C94.9174805,146.034668 95.1533203,146.956055 95.1533203,148.157227 C95.1533203,149.34082 94.9174805,150.269531 94.4458008,150.943359 C93.9741211,151.617188 93.3222656,151.954102 92.4902344,151.954102 Z M100.672852,153 L100.672852,147.832031 C100.672852,146.888672 100.949707,146.100586 101.503418,145.467773 C102.057129,144.834961 102.723633,144.518555 103.50293,144.518555 C103.807617,144.518555 104.15918,144.5625 104.557617,144.650391 L104.557617,144.650391 L104.759766,143.296875 C104.419922,143.226562 104.036133,143.191406 103.608398,143.191406 C103.004883,143.191406 102.451172,143.361328 101.947266,143.701172 C101.443359,144.041016 101.012695,144.524414 100.655273,145.151367 L100.655273,145.151367 L100.584961,145.151367 L100.417969,143.367188 L99.2138672,143.367188 L99.2138672,153 L100.672852,153 Z M110.050781,153.175781 C111.445312,153.175781 112.538086,152.734863 113.329102,151.853027 C114.120117,150.971191 114.515625,149.745117 114.515625,148.174805 C114.515625,146.645508 114.118652,145.432617 113.324707,144.536133 C112.530762,143.639648 111.459961,143.191406 110.112305,143.191406 C108.717773,143.191406 107.62793,143.629395 106.842773,144.505371 C106.057617,145.381348 105.665039,146.604492 105.665039,148.174805 C105.665039,149.188477 105.84668,150.073242 106.209961,150.829102 C106.573242,151.584961 107.088867,152.165039 107.756836,152.569336 C108.424805,152.973633 109.189453,153.175781 110.050781,153.175781 Z M110.085938,151.954102 C109.130859,151.954102 108.407227,151.631836 107.915039,150.987305 C107.422852,150.342773 107.176758,149.405273 107.176758,148.174805 C107.176758,146.932617 107.419922,145.998047 107.90625,145.371094 C108.392578,144.744141 109.113281,144.430664 110.068359,144.430664 C111.035156,144.430664 111.766113,144.748535 112.26123,145.384277 C112.756348,146.02002 113.003906,146.950195 113.003906,148.174805 C113.003906,149.411133 112.756348,150.350098 112.26123,150.991699 C111.766113,151.633301 111.041016,151.954102 110.085938,151.954102 Z M121.555664,153.175781 C122.80957,153.175781 123.789551,152.737793 124.495605,151.861816 C125.20166,150.98584 125.554688,149.756836 125.554688,148.174805 C125.554688,146.592773 125.20459,145.369629 124.504395,144.505371 C123.804199,143.641113 122.821289,143.208984 121.555664,143.208984 C120.219727,143.208984 119.211914,143.689453 118.532227,144.650391 L118.532227,144.650391 L118.461914,144.650391 C118.508789,144.058594 118.532227,143.390625 118.532227,142.646484 L118.532227,142.646484 L118.532227,139.324219 L117.073242,139.324219 L117.073242,153 L118.119141,153 L118.426758,151.760742 L118.532227,151.760742 C118.883789,152.241211 119.318848,152.597168 119.837402,152.828613 C120.355957,153.060059 120.928711,153.175781 121.555664,153.175781 Z M121.379883,151.954102 C120.383789,151.954102 119.660156,151.662598 119.208984,151.07959 C118.757812,150.496582 118.532227,149.52832 118.532227,148.174805 C118.532227,146.821289 118.751953,145.858887 119.191406,145.287598 C119.630859,144.716309 120.348633,144.430664 121.344727,144.430664 C122.264648,144.430664 122.944336,144.738281 123.383789,145.353516 C123.823242,145.96875 124.042969,146.90332 124.042969,148.157227 C124.042969,149.381836 123.823242,150.320801 123.383789,150.974121 C122.944336,151.627441 122.276367,151.954102 121.379883,151.954102 Z M130.441406,153.175781 C131.15625,153.175781 131.752441,153.068848 132.22998,152.85498 C132.70752,152.641113 133.186523,152.232422 133.666992,151.628906 L133.666992,151.628906 L133.737305,151.628906 L134.027344,153 L135.108398,153 L135.108398,146.425781 C135.108398,145.300781 134.831543,144.483398 134.277832,143.973633 C133.724121,143.463867 132.873047,143.208984 131.724609,143.208984 C131.15625,143.208984 130.589355,143.282227 130.023926,143.428711 C129.458496,143.575195 128.938477,143.777344 128.463867,144.035156 L128.463867,144.035156 L128.912109,145.151367 C129.925781,144.65918 130.833984,144.413086 131.636719,144.413086 C132.351562,144.413086 132.871582,144.593262 133.196777,144.953613 C133.521973,145.313965 133.68457,145.87207 133.68457,146.62793 L133.68457,146.62793 L133.68457,147.225586 L132.049805,147.27832 C128.938477,147.37207 127.382812,148.391602 127.382812,150.336914 C127.382812,151.245117 127.653809,151.945312 128.195801,152.4375 C128.737793,152.929688 129.486328,153.175781 130.441406,153.175781 Z M130.731445,151.97168 C130.157227,151.97168 129.710449,151.833984 129.391113,151.558594 C129.071777,151.283203 128.912109,150.881836 128.912109,150.354492 C128.912109,149.680664 129.168457,149.184082 129.681152,148.864746 C130.193848,148.54541 131.030273,148.365234 132.19043,148.324219 L132.19043,148.324219 L133.649414,148.262695 L133.649414,149.132812 C133.649414,150.029297 133.390137,150.726562 132.871582,151.224609 C132.353027,151.722656 131.639648,151.97168 130.731445,151.97168 Z M142.59668,153.175781 C143.850586,153.175781 144.830566,152.737793 145.536621,151.861816 C146.242676,150.98584 146.595703,149.756836 146.595703,148.174805 C146.595703,146.592773 146.245605,145.369629 145.54541,144.505371 C144.845215,143.641113 143.862305,143.208984 142.59668,143.208984 C141.260742,143.208984 140.25293,143.689453 139.573242,144.650391 L139.573242,144.650391 L139.50293,144.650391 C139.549805,144.058594 139.573242,143.390625 139.573242,142.646484 L139.573242,142.646484 L139.573242,139.324219 L138.114258,139.324219 L138.114258,153 L139.160156,153 L139.467773,151.760742 L139.573242,151.760742 C139.924805,152.241211 140.359863,152.597168 140.878418,152.828613 C141.396973,153.060059 141.969727,153.175781 142.59668,153.175781 Z M142.420898,151.954102 C141.424805,151.954102 140.701172,151.662598 140.25,151.07959 C139.798828,150.496582 139.573242,149.52832 139.573242,148.174805 C139.573242,146.821289 139.792969,145.858887 140.232422,145.287598 C140.671875,144.716309 141.389648,144.430664 142.385742,144.430664 C143.305664,144.430664 143.985352,144.738281 144.424805,145.353516 C144.864258,145.96875 145.083984,146.90332 145.083984,148.157227 C145.083984,149.381836 144.864258,150.320801 144.424805,150.974121 C143.985352,151.627441 143.317383,151.954102 142.420898,151.954102 Z M150.603516,153 L150.603516,139.324219 L149.144531,139.324219 L149.144531,153 L150.603516,153 Z M153.609375,157.324219 C154.40625,157.324219 155.078613,157.097168 155.626465,156.643066 C156.174316,156.188965 156.65332,155.419922 157.063477,154.335938 L157.063477,154.335938 L161.203125,143.367188 L159.638672,143.367188 C158.291016,147.09375 157.495605,149.318848 157.252441,150.04248 C157.009277,150.766113 156.849609,151.277344 156.773438,151.576172 L156.773438,151.576172 L156.703125,151.576172 C156.591797,151.019531 156.304688,150.114258 155.841797,148.860352 L155.841797,148.860352 L153.732422,143.367188 L152.167969,143.367188 L156.052734,153.052734 L155.516602,154.423828 C155.088867,155.548828 154.374023,156.111328 153.37207,156.111328 C152.973633,156.111328 152.613281,156.076172 152.291016,156.005859 L152.291016,156.005859 L152.291016,157.174805 C152.724609,157.274414 153.164062,157.324219 153.609375,157.324219 Z M170.34375,153.175781 C170.589844,153.175781 170.866699,153.150879 171.174316,153.101074 C171.481934,153.05127 171.714844,152.988281 171.873047,152.912109 L171.873047,152.912109 L171.873047,151.795898 C171.732422,151.836914 171.541992,151.876465 171.301758,151.914551 C171.061523,151.952637 170.8125,151.97168 170.554688,151.97168 C170.074219,151.97168 169.696289,151.816406 169.420898,151.505859 C169.145508,151.195312 169.007812,150.75 169.007812,150.169922 L169.007812,150.169922 L169.007812,144.500977 L171.802734,144.500977 L171.802734,143.367188 L169.007812,143.367188 L169.007812,141.134766 L168.164062,141.134766 L167.548828,143.191406 L166.168945,143.797852 L166.168945,144.500977 L167.548828,144.500977 L167.548828,150.231445 C167.548828,152.194336 168.480469,153.175781 170.34375,153.175781 Z M175.256836,153 L175.256836,147.963867 C175.256836,146.709961 175.489746,145.807617 175.955566,145.256836 C176.421387,144.706055 177.161133,144.430664 178.174805,144.430664 C178.936523,144.430664 179.496094,144.624023 179.853516,145.010742 C180.210938,145.397461 180.389648,145.983398 180.389648,146.768555 L180.389648,146.768555 L180.389648,153 L181.848633,153 L181.848633,146.71582 C181.848633,145.49707 181.554199,144.60791 180.965332,144.04834 C180.376465,143.48877 179.493164,143.208984 178.31543,143.208984 C177.635742,143.208984 177.030762,143.342285 176.500488,143.608887 C175.970215,143.875488 175.561523,144.240234 175.274414,144.703125 L175.274414,144.703125 L175.186523,144.703125 C175.233398,144.375 175.256836,143.961914 175.256836,143.463867 L175.256836,143.463867 L175.256836,139.324219 L173.797852,139.324219 L173.797852,153 L175.256836,153 Z M188.915039,153.175781 C189.56543,153.175781 190.120605,153.127441 190.580566,153.030762 C191.040527,152.934082 191.52832,152.774414 192.043945,152.551758 L192.043945,152.551758 L192.043945,151.250977 C191.030273,151.68457 190.004883,151.901367 188.967773,151.901367 C187.983398,151.901367 187.220215,151.608398 186.678223,151.022461 C186.13623,150.436523 185.850586,149.578125 185.821289,148.447266 L185.821289,148.447266 L192.457031,148.447266 L192.457031,147.524414 C192.457031,146.223633 192.105469,145.17627 191.402344,144.382324 C190.699219,143.588379 189.744141,143.191406 188.537109,143.191406 C187.248047,143.191406 186.221191,143.648438 185.456543,144.5625 C184.691895,145.476562 184.30957,146.709961 184.30957,148.262695 C184.30957,149.803711 184.721191,151.007812 185.544434,151.875 C186.367676,152.742188 187.491211,153.175781 188.915039,153.175781 Z M190.892578,147.260742 L185.856445,147.260742 C185.938477,146.370117 186.209473,145.672852 186.669434,145.168945 C187.129395,144.665039 187.746094,144.413086 188.519531,144.413086 C189.28125,144.413086 189.867188,144.657715 190.277344,145.146973 C190.6875,145.63623 190.892578,146.34082 190.892578,147.260742 L190.892578,147.260742 Z M204.102539,153.175781 C205.356445,153.175781 206.336426,152.737793 207.04248,151.861816 C207.748535,150.98584 208.101562,149.756836 208.101562,148.174805 C208.101562,146.592773 207.751465,145.369629 207.05127,144.505371 C206.351074,143.641113 205.368164,143.208984 204.102539,143.208984 C202.766602,143.208984 201.758789,143.689453 201.079102,144.650391 L201.079102,144.650391 L201.008789,144.650391 C201.055664,144.058594 201.079102,143.390625 201.079102,142.646484 L201.079102,142.646484 L201.079102,139.324219 L199.620117,139.324219 L199.620117,153 L200.666016,153 L200.973633,151.760742 L201.079102,151.760742 C201.430664,152.241211 201.865723,152.597168 202.384277,152.828613 C202.902832,153.060059 203.475586,153.175781 204.102539,153.175781 Z M203.926758,151.954102 C202.930664,151.954102 202.207031,151.662598 201.755859,151.07959 C201.304688,150.496582 201.079102,149.52832 201.079102,148.174805 C201.079102,146.821289 201.298828,145.858887 201.738281,145.287598 C202.177734,144.716309 202.895508,144.430664 203.891602,144.430664 C204.811523,144.430664 205.491211,144.738281 205.930664,145.353516 C206.370117,145.96875 206.589844,146.90332 206.589844,148.157227 C206.589844,149.381836 206.370117,150.320801 205.930664,150.974121 C205.491211,151.627441 204.823242,151.954102 203.926758,151.954102 Z M214.719727,153.175781 C215.370117,153.175781 215.925293,153.127441 216.385254,153.030762 C216.845215,152.934082 217.333008,152.774414 217.848633,152.551758 L217.848633,152.551758 L217.848633,151.250977 C216.834961,151.68457 215.80957,151.901367 214.772461,151.901367 C213.788086,151.901367 213.024902,151.608398 212.48291,151.022461 C211.940918,150.436523 211.655273,149.578125 211.625977,148.447266 L211.625977,148.447266 L218.261719,148.447266 L218.261719,147.524414 C218.261719,146.223633 217.910156,145.17627 217.207031,144.382324 C216.503906,143.588379 215.548828,143.191406 214.341797,143.191406 C213.052734,143.191406 212.025879,143.648438 211.26123,144.5625 C210.496582,145.476562 210.114258,146.709961 210.114258,148.262695 C210.114258,149.803711 210.525879,151.007812 211.349121,151.875 C212.172363,152.742188 213.295898,153.175781 214.719727,153.175781 Z M216.697266,147.260742 L211.661133,147.260742 C211.743164,146.370117 212.01416,145.672852 212.474121,145.168945 C212.934082,144.665039 213.550781,144.413086 214.324219,144.413086 C215.085938,144.413086 215.671875,144.657715 216.082031,145.146973 C216.492188,145.63623 216.697266,146.34082 216.697266,147.260742 L216.697266,147.260742 Z M223.148438,153.175781 C224.355469,153.175781 225.292969,152.932617 225.960938,152.446289 C226.628906,151.959961 226.962891,151.268555 226.962891,150.37207 C226.962891,149.733398 226.762207,149.203125 226.36084,148.78125 C225.959473,148.359375 225.1875,147.94043 224.044922,147.524414 C223.212891,147.213867 222.650391,146.976562 222.357422,146.8125 C222.064453,146.648438 221.852051,146.475586 221.720215,146.293945 C221.588379,146.112305 221.522461,145.892578 221.522461,145.634766 C221.522461,145.253906 221.698242,144.955078 222.049805,144.738281 C222.401367,144.521484 222.922852,144.413086 223.614258,144.413086 C224.399414,144.413086 225.275391,144.612305 226.242188,145.010742 L226.242188,145.010742 L226.760742,143.824219 C225.770508,143.402344 224.756836,143.191406 223.719727,143.191406 C222.606445,143.191406 221.730469,143.418457 221.091797,143.872559 C220.453125,144.32666 220.133789,144.946289 220.133789,145.731445 C220.133789,146.170898 220.226074,146.548828 220.410645,146.865234 C220.595215,147.181641 220.876465,147.464355 221.254395,147.713379 C221.632324,147.962402 222.269531,148.253906 223.166016,148.587891 C224.109375,148.951172 224.743652,149.266113 225.068848,149.532715 C225.394043,149.799316 225.556641,150.120117 225.556641,150.495117 C225.556641,150.993164 225.351562,151.36377 224.941406,151.606934 C224.53125,151.850098 223.945312,151.97168 223.183594,151.97168 C222.691406,151.97168 222.180176,151.904297 221.649902,151.769531 C221.119629,151.634766 220.623047,151.450195 220.160156,151.21582 L220.160156,151.21582 L220.160156,152.569336 C220.875,152.973633 221.871094,153.175781 223.148438,153.175781 Z M232.236328,153.175781 C232.482422,153.175781 232.759277,153.150879 233.066895,153.101074 C233.374512,153.05127 233.607422,152.988281 233.765625,152.912109 L233.765625,152.912109 L233.765625,151.795898 C233.625,151.836914 233.43457,151.876465 233.194336,151.914551 C232.954102,151.952637 232.705078,151.97168 232.447266,151.97168 C231.966797,151.97168 231.588867,151.816406 231.313477,151.505859 C231.038086,151.195312 230.900391,150.75 230.900391,150.169922 L230.900391,150.169922 L230.900391,144.500977 L233.695312,144.500977 L233.695312,143.367188 L230.900391,143.367188 L230.900391,141.134766 L230.056641,141.134766 L229.441406,143.191406 L228.061523,143.797852 L228.061523,144.500977 L229.441406,144.500977 L229.441406,150.231445 C229.441406,152.194336 230.373047,153.175781 232.236328,153.175781 Z M242.704102,153.175781 C243.418945,153.175781 244.015137,153.068848 244.492676,152.85498 C244.970215,152.641113 245.449219,152.232422 245.929688,151.628906 L245.929688,151.628906 L246,151.628906 L246.290039,153 L247.371094,153 L247.371094,146.425781 C247.371094,145.300781 247.094238,144.483398 246.540527,143.973633 C245.986816,143.463867 245.135742,143.208984 243.987305,143.208984 C243.418945,143.208984 242.852051,143.282227 242.286621,143.428711 C241.721191,143.575195 241.201172,143.777344 240.726562,144.035156 L240.726562,144.035156 L241.174805,145.151367 C242.188477,144.65918 243.09668,144.413086 243.899414,144.413086 C244.614258,144.413086 245.134277,144.593262 245.459473,144.953613 C245.784668,145.313965 245.947266,145.87207 245.947266,146.62793 L245.947266,146.62793 L245.947266,147.225586 L244.3125,147.27832 C241.201172,147.37207 239.645508,148.391602 239.645508,150.336914 C239.645508,151.245117 239.916504,151.945312 240.458496,152.4375 C241.000488,152.929688 241.749023,153.175781 242.704102,153.175781 Z M242.994141,151.97168 C242.419922,151.97168 241.973145,151.833984 241.653809,151.558594 C241.334473,151.283203 241.174805,150.881836 241.174805,150.354492 C241.174805,149.680664 241.431152,149.184082 241.943848,148.864746 C242.456543,148.54541 243.292969,148.365234 244.453125,148.324219 L244.453125,148.324219 L245.912109,148.262695 L245.912109,149.132812 C245.912109,150.029297 245.652832,150.726562 245.134277,151.224609 C244.615723,151.722656 243.902344,151.97168 242.994141,151.97168 Z M251.835938,157.324219 L251.835938,153.360352 C251.835938,152.856445 251.800781,152.323242 251.730469,151.760742 L251.730469,151.760742 L251.835938,151.760742 C252.1875,152.241211 252.622559,152.597168 253.141113,152.828613 C253.659668,153.060059 254.232422,153.175781 254.859375,153.175781 C256.113281,153.175781 257.093262,152.737793 257.799316,151.861816 C258.505371,150.98584 258.858398,149.756836 258.858398,148.174805 C258.858398,146.598633 258.51123,145.374023 257.816895,144.500977 C257.122559,143.62793 256.136719,143.191406 254.859375,143.191406 C254.214844,143.191406 253.643555,143.308594 253.145508,143.542969 C252.647461,143.777344 252.210938,144.158203 251.835938,144.685547 L251.835938,144.685547 L251.765625,144.685547 L251.563477,143.367188 L250.376953,143.367188 L250.376953,157.324219 L251.835938,157.324219 Z M254.683594,151.954102 C253.6875,151.954102 252.963867,151.662598 252.512695,151.07959 C252.061523,150.496582 251.835938,149.52832 251.835938,148.174805 L251.835938,148.174805 L251.835938,147.849609 C251.847656,146.660156 252.073242,145.792969 252.512695,145.248047 C252.952148,144.703125 253.664062,144.430664 254.648438,144.430664 C255.503906,144.430664 256.16748,144.751465 256.63916,145.393066 C257.11084,146.034668 257.34668,146.956055 257.34668,148.157227 C257.34668,149.34082 257.11084,150.269531 256.63916,150.943359 C256.16748,151.617188 255.515625,151.954102 254.683594,151.954102 Z M262.866211,157.324219 L262.866211,153.360352 C262.866211,152.856445 262.831055,152.323242 262.760742,151.760742 L262.760742,151.760742 L262.866211,151.760742 C263.217773,152.241211 263.652832,152.597168 264.171387,152.828613 C264.689941,153.060059 265.262695,153.175781 265.889648,153.175781 C267.143555,153.175781 268.123535,152.737793 268.82959,151.861816 C269.535645,150.98584 269.888672,149.756836 269.888672,148.174805 C269.888672,146.598633 269.541504,145.374023 268.847168,144.500977 C268.152832,143.62793 267.166992,143.191406 265.889648,143.191406 C265.245117,143.191406 264.673828,143.308594 264.175781,143.542969 C263.677734,143.777344 263.241211,144.158203 262.866211,144.685547 L262.866211,144.685547 L262.795898,144.685547 L262.59375,143.367188 L261.407227,143.367188 L261.407227,157.324219 L262.866211,157.324219 Z M265.713867,151.954102 C264.717773,151.954102 263.994141,151.662598 263.542969,151.07959 C263.091797,150.496582 262.866211,149.52832 262.866211,148.174805 L262.866211,148.174805 L262.866211,147.849609 C262.87793,146.660156 263.103516,145.792969 263.542969,145.248047 C263.982422,144.703125 264.694336,144.430664 265.678711,144.430664 C266.53418,144.430664 267.197754,144.751465 267.669434,145.393066 C268.141113,146.034668 268.376953,146.956055 268.376953,148.157227 C268.376953,149.34082 268.141113,150.269531 267.669434,150.943359 C267.197754,151.617188 266.545898,151.954102 265.713867,151.954102 Z M279.451172,153.175781 C280.166016,153.175781 280.762207,153.068848 281.239746,152.85498 C281.717285,152.641113 282.196289,152.232422 282.676758,151.628906 L282.676758,151.628906 L282.74707,151.628906 L283.037109,153 L284.118164,153 L284.118164,146.425781 C284.118164,145.300781 283.841309,144.483398 283.287598,143.973633 C282.733887,143.463867 281.882812,143.208984 280.734375,143.208984 C280.166016,143.208984 279.599121,143.282227 279.033691,143.428711 C278.468262,143.575195 277.948242,143.777344 277.473633,144.035156 L277.473633,144.035156 L277.921875,145.151367 C278.935547,144.65918 279.84375,144.413086 280.646484,144.413086 C281.361328,144.413086 281.881348,144.593262 282.206543,144.953613 C282.531738,145.313965 282.694336,145.87207 282.694336,146.62793 L282.694336,146.62793 L282.694336,147.225586 L281.05957,147.27832 C277.948242,147.37207 276.392578,148.391602 276.392578,150.336914 C276.392578,151.245117 276.663574,151.945312 277.205566,152.4375 C277.747559,152.929688 278.496094,153.175781 279.451172,153.175781 Z M279.741211,151.97168 C279.166992,151.97168 278.720215,151.833984 278.400879,151.558594 C278.081543,151.283203 277.921875,150.881836 277.921875,150.354492 C277.921875,149.680664 278.178223,149.184082 278.690918,148.864746 C279.203613,148.54541 280.040039,148.365234 281.200195,148.324219 L281.200195,148.324219 L282.65918,148.262695 L282.65918,149.132812 C282.65918,150.029297 282.399902,150.726562 281.881348,151.224609 C281.362793,151.722656 280.649414,151.97168 279.741211,151.97168 Z M289.523438,153.175781 C290.730469,153.175781 291.667969,152.932617 292.335938,152.446289 C293.003906,151.959961 293.337891,151.268555 293.337891,150.37207 C293.337891,149.733398 293.137207,149.203125 292.73584,148.78125 C292.334473,148.359375 291.5625,147.94043 290.419922,147.524414 C289.587891,147.213867 289.025391,146.976562 288.732422,146.8125 C288.439453,146.648438 288.227051,146.475586 288.095215,146.293945 C287.963379,146.112305 287.897461,145.892578 287.897461,145.634766 C287.897461,145.253906 288.073242,144.955078 288.424805,144.738281 C288.776367,144.521484 289.297852,144.413086 289.989258,144.413086 C290.774414,144.413086 291.650391,144.612305 292.617188,145.010742 L292.617188,145.010742 L293.135742,143.824219 C292.145508,143.402344 291.131836,143.191406 290.094727,143.191406 C288.981445,143.191406 288.105469,143.418457 287.466797,143.872559 C286.828125,144.32666 286.508789,144.946289 286.508789,145.731445 C286.508789,146.170898 286.601074,146.548828 286.785645,146.865234 C286.970215,147.181641 287.251465,147.464355 287.629395,147.713379 C288.007324,147.962402 288.644531,148.253906 289.541016,148.587891 C290.484375,148.951172 291.118652,149.266113 291.443848,149.532715 C291.769043,149.799316 291.931641,150.120117 291.931641,150.495117 C291.931641,150.993164 291.726562,151.36377 291.316406,151.606934 C290.90625,151.850098 290.320312,151.97168 289.558594,151.97168 C289.066406,151.97168 288.555176,151.904297 288.024902,151.769531 C287.494629,151.634766 286.998047,151.450195 286.535156,151.21582 L286.535156,151.21582 L286.535156,152.569336 C287.25,152.973633 288.246094,153.175781 289.523438,153.175781 Z M301.125,141.732422 C301.359375,141.732422 301.561523,141.651855 301.731445,141.490723 C301.901367,141.32959 301.986328,141.084961 301.986328,140.756836 C301.986328,140.428711 301.901367,140.185547 301.731445,140.027344 C301.561523,139.869141 301.359375,139.790039 301.125,139.790039 C300.878906,139.790039 300.673828,139.867676 300.509766,140.022949 C300.345703,140.178223 300.263672,140.422852 300.263672,140.756836 C300.263672,141.084961 300.345703,141.32959 300.509766,141.490723 C300.673828,141.651855 300.878906,141.732422 301.125,141.732422 Z M301.845703,153 L301.845703,143.367188 L300.386719,143.367188 L300.386719,153 L301.845703,153 Z M307.839844,153.175781 C308.085938,153.175781 308.362793,153.150879 308.67041,153.101074 C308.978027,153.05127 309.210938,152.988281 309.369141,152.912109 L309.369141,152.912109 L309.369141,151.795898 C309.228516,151.836914 309.038086,151.876465 308.797852,151.914551 C308.557617,151.952637 308.308594,151.97168 308.050781,151.97168 C307.570312,151.97168 307.192383,151.816406 306.916992,151.505859 C306.641602,151.195312 306.503906,150.75 306.503906,150.169922 L306.503906,150.169922 L306.503906,144.500977 L309.298828,144.500977 L309.298828,143.367188 L306.503906,143.367188 L306.503906,141.134766 L305.660156,141.134766 L305.044922,143.191406 L303.665039,143.797852 L303.665039,144.500977 L305.044922,144.500977 L305.044922,150.231445 C305.044922,152.194336 305.976562,153.175781 307.839844,153.175781 Z M311.399414,144.553711 C311.709961,143.885742 312.008789,143.163574 312.295898,142.387207 C312.583008,141.61084 312.802734,140.929688 312.955078,140.34375 L312.955078,140.34375 L312.823242,140.150391 L311.223633,140.150391 C311.036133,141.416016 310.737305,142.883789 310.327148,144.553711 L310.327148,144.553711 L311.399414,144.553711 Z M316.576172,153.175781 C317.783203,153.175781 318.720703,152.932617 319.388672,152.446289 C320.056641,151.959961 320.390625,151.268555 320.390625,150.37207 C320.390625,149.733398 320.189941,149.203125 319.788574,148.78125 C319.387207,148.359375 318.615234,147.94043 317.472656,147.524414 C316.640625,147.213867 316.078125,146.976562 315.785156,146.8125 C315.492188,146.648438 315.279785,146.475586 315.147949,146.293945 C315.016113,146.112305 314.950195,145.892578 314.950195,145.634766 C314.950195,145.253906 315.125977,144.955078 315.477539,144.738281 C315.829102,144.521484 316.350586,144.413086 317.041992,144.413086 C317.827148,144.413086 318.703125,144.612305 319.669922,145.010742 L319.669922,145.010742 L320.188477,143.824219 C319.198242,143.402344 318.18457,143.191406 317.147461,143.191406 C316.03418,143.191406 315.158203,143.418457 314.519531,143.872559 C313.880859,144.32666 313.561523,144.946289 313.561523,145.731445 C313.561523,146.170898 313.653809,146.548828 313.838379,146.865234 C314.022949,147.181641 314.304199,147.464355 314.682129,147.713379 C315.060059,147.962402 315.697266,148.253906 316.59375,148.587891 C317.537109,148.951172 318.171387,149.266113 318.496582,149.532715 C318.821777,149.799316 318.984375,150.120117 318.984375,150.495117 C318.984375,150.993164 318.779297,151.36377 318.369141,151.606934 C317.958984,151.850098 317.373047,151.97168 316.611328,151.97168 C316.119141,151.97168 315.60791,151.904297 315.077637,151.769531 C314.547363,151.634766 314.050781,151.450195 313.587891,151.21582 L313.587891,151.21582 L313.587891,152.569336 C314.302734,152.973633 315.298828,153.175781 316.576172,153.175781 Z M329.838867,153.175781 C331.045898,153.175781 331.983398,152.932617 332.651367,152.446289 C333.319336,151.959961 333.65332,151.268555 333.65332,150.37207 C333.65332,149.733398 333.452637,149.203125 333.05127,148.78125 C332.649902,148.359375 331.87793,147.94043 330.735352,147.524414 C329.90332,147.213867 329.34082,146.976562 329.047852,146.8125 C328.754883,146.648438 328.54248,146.475586 328.410645,146.293945 C328.278809,146.112305 328.212891,145.892578 328.212891,145.634766 C328.212891,145.253906 328.388672,144.955078 328.740234,144.738281 C329.091797,144.521484 329.613281,144.413086 330.304688,144.413086 C331.089844,144.413086 331.96582,144.612305 332.932617,145.010742 L332.932617,145.010742 L333.451172,143.824219 C332.460938,143.402344 331.447266,143.191406 330.410156,143.191406 C329.296875,143.191406 328.420898,143.418457 327.782227,143.872559 C327.143555,144.32666 326.824219,144.946289 326.824219,145.731445 C326.824219,146.170898 326.916504,146.548828 327.101074,146.865234 C327.285645,147.181641 327.566895,147.464355 327.944824,147.713379 C328.322754,147.962402 328.959961,148.253906 329.856445,148.587891 C330.799805,148.951172 331.434082,149.266113 331.759277,149.532715 C332.084473,149.799316 332.24707,150.120117 332.24707,150.495117 C332.24707,150.993164 332.041992,151.36377 331.631836,151.606934 C331.22168,151.850098 330.635742,151.97168 329.874023,151.97168 C329.381836,151.97168 328.870605,151.904297 328.340332,151.769531 C327.810059,151.634766 327.313477,151.450195 326.850586,151.21582 L326.850586,151.21582 L326.850586,152.569336 C327.56543,152.973633 328.561523,153.175781 329.838867,153.175781 Z M339.875977,153.175781 C341.270508,153.175781 342.363281,152.734863 343.154297,151.853027 C343.945312,150.971191 344.34082,149.745117 344.34082,148.174805 C344.34082,146.645508 343.943848,145.432617 343.149902,144.536133 C342.355957,143.639648 341.285156,143.191406 339.9375,143.191406 C338.542969,143.191406 337.453125,143.629395 336.667969,144.505371 C335.882812,145.381348 335.490234,146.604492 335.490234,148.174805 C335.490234,149.188477 335.671875,150.073242 336.035156,150.829102 C336.398438,151.584961 336.914062,152.165039 337.582031,152.569336 C338.25,152.973633 339.014648,153.175781 339.875977,153.175781 Z M339.911133,151.954102 C338.956055,151.954102 338.232422,151.631836 337.740234,150.987305 C337.248047,150.342773 337.001953,149.405273 337.001953,148.174805 C337.001953,146.932617 337.245117,145.998047 337.731445,145.371094 C338.217773,144.744141 338.938477,144.430664 339.893555,144.430664 C340.860352,144.430664 341.591309,144.748535 342.086426,145.384277 C342.581543,146.02002 342.829102,146.950195 342.829102,148.174805 C342.829102,149.411133 342.581543,150.350098 342.086426,150.991699 C341.591309,151.633301 340.866211,151.954102 339.911133,151.954102 Z M33.9462891,181.175781 C35.1533203,181.175781 36.0908203,180.932617 36.7587891,180.446289 C37.4267578,179.959961 37.7607422,179.268555 37.7607422,178.37207 C37.7607422,177.733398 37.5600586,177.203125 37.1586914,176.78125 C36.7573242,176.359375 35.9853516,175.94043 34.8427734,175.524414 C34.0107422,175.213867 33.4482422,174.976562 33.1552734,174.8125 C32.8623047,174.648438 32.6499023,174.475586 32.5180664,174.293945 C32.3862305,174.112305 32.3203125,173.892578 32.3203125,173.634766 C32.3203125,173.253906 32.4960938,172.955078 32.8476562,172.738281 C33.1992188,172.521484 33.7207031,172.413086 34.4121094,172.413086 C35.1972656,172.413086 36.0732422,172.612305 37.0400391,173.010742 L37.0400391,173.010742 L37.5585938,171.824219 C36.5683594,171.402344 35.5546875,171.191406 34.5175781,171.191406 C33.4042969,171.191406 32.5283203,171.418457 31.8896484,171.872559 C31.2509766,172.32666 30.9316406,172.946289 30.9316406,173.731445 C30.9316406,174.170898 31.0239258,174.548828 31.2084961,174.865234 C31.3930664,175.181641 31.6743164,175.464355 32.0522461,175.713379 C32.4301758,175.962402 33.0673828,176.253906 33.9638672,176.587891 C34.9072266,176.951172 35.5415039,177.266113 35.8666992,177.532715 C36.1918945,177.799316 36.3544922,178.120117 36.3544922,178.495117 C36.3544922,178.993164 36.1494141,179.36377 35.7392578,179.606934 C35.3291016,179.850098 34.7431641,179.97168 33.9814453,179.97168 C33.4892578,179.97168 32.9780273,179.904297 32.4477539,179.769531 C31.9174805,179.634766 31.4208984,179.450195 30.9580078,179.21582 L30.9580078,179.21582 L30.9580078,180.569336 C31.6728516,180.973633 32.6689453,181.175781 33.9462891,181.175781 Z M40.8720703,169.732422 C41.1064453,169.732422 41.3085938,169.651855 41.4785156,169.490723 C41.6484375,169.32959 41.7333984,169.084961 41.7333984,168.756836 C41.7333984,168.428711 41.6484375,168.185547 41.4785156,168.027344 C41.3085938,167.869141 41.1064453,167.790039 40.8720703,167.790039 C40.6259766,167.790039 40.4208984,167.867676 40.2568359,168.022949 C40.0927734,168.178223 40.0107422,168.422852 40.0107422,168.756836 C40.0107422,169.084961 40.0927734,169.32959 40.2568359,169.490723 C40.4208984,169.651855 40.6259766,169.732422 40.8720703,169.732422 Z M41.5927734,181 L41.5927734,171.367188 L40.1337891,171.367188 L40.1337891,181 L41.5927734,181 Z M46.1455078,181 L46.1455078,175.946289 C46.1455078,174.698242 46.3579102,173.800293 46.7827148,173.252441 C47.2075195,172.70459 47.8769531,172.430664 48.7910156,172.430664 C49.4882812,172.430664 50.0009766,172.622559 50.3291016,173.006348 C50.6572266,173.390137 50.8212891,173.96582 50.8212891,174.733398 L50.8212891,174.733398 L50.8212891,181 L52.2802734,181 L52.2802734,175.621094 C52.2802734,174.537109 52.4970703,173.734375 52.9306641,173.212891 C53.3642578,172.691406 54.0351562,172.430664 54.9433594,172.430664 C55.6347656,172.430664 56.1445312,172.622559 56.4726562,173.006348 C56.8007812,173.390137 56.9648438,173.96582 56.9648438,174.733398 L56.9648438,174.733398 L56.9648438,181 L58.4238281,181 L58.4238281,174.71582 C58.4238281,173.485352 58.152832,172.590332 57.6108398,172.030762 C57.0688477,171.471191 56.2529297,171.191406 55.1630859,171.191406 C54.4658203,171.191406 53.8447266,171.337891 53.2998047,171.630859 C52.7548828,171.923828 52.3388672,172.322266 52.0517578,172.826172 L52.0517578,172.826172 L51.9814453,172.826172 C51.5185547,171.736328 50.5341797,171.191406 49.0283203,171.191406 C48.4072266,171.191406 47.8461914,171.323242 47.3452148,171.586914 C46.8442383,171.850586 46.4560547,172.216797 46.1806641,172.685547 L46.1806641,172.685547 L46.1103516,172.685547 L45.8730469,171.367188 L44.6865234,171.367188 L44.6865234,181 L46.1455078,181 Z M62.8886719,185.324219 L62.8886719,181.360352 C62.8886719,180.856445 62.8535156,180.323242 62.7832031,179.760742 L62.7832031,179.760742 L62.8886719,179.760742 C63.2402344,180.241211 63.675293,180.597168 64.1938477,180.828613 C64.7124023,181.060059 65.2851562,181.175781 65.9121094,181.175781 C67.1660156,181.175781 68.1459961,180.737793 68.8520508,179.861816 C69.5581055,178.98584 69.9111328,177.756836 69.9111328,176.174805 C69.9111328,174.598633 69.5639648,173.374023 68.8696289,172.500977 C68.175293,171.62793 67.1894531,171.191406 65.9121094,171.191406 C65.2675781,171.191406 64.6962891,171.308594 64.1982422,171.542969 C63.7001953,171.777344 63.2636719,172.158203 62.8886719,172.685547 L62.8886719,172.685547 L62.8183594,172.685547 L62.6162109,171.367188 L61.4296875,171.367188 L61.4296875,185.324219 L62.8886719,185.324219 Z M65.7363281,179.954102 C64.7402344,179.954102 64.0166016,179.662598 63.5654297,179.07959 C63.1142578,178.496582 62.8886719,177.52832 62.8886719,176.174805 L62.8886719,176.174805 L62.8886719,175.849609 C62.9003906,174.660156 63.1259766,173.792969 63.5654297,173.248047 C64.0048828,172.703125 64.7167969,172.430664 65.7011719,172.430664 C66.5566406,172.430664 67.2202148,172.751465 67.6918945,173.393066 C68.1635742,174.034668 68.3994141,174.956055 68.3994141,176.157227 C68.3994141,177.34082 68.1635742,178.269531 67.6918945,178.943359 C67.2202148,179.617188 66.5683594,179.954102 65.7363281,179.954102 Z M73.9189453,181 L73.9189453,167.324219 L72.4599609,167.324219 L72.4599609,181 L73.9189453,181 Z M81.0820312,181.175781 C81.7324219,181.175781 82.2875977,181.127441 82.7475586,181.030762 C83.2075195,180.934082 83.6953125,180.774414 84.2109375,180.551758 L84.2109375,180.551758 L84.2109375,179.250977 C83.1972656,179.68457 82.171875,179.901367 81.1347656,179.901367 C80.1503906,179.901367 79.387207,179.608398 78.8452148,179.022461 C78.3032227,178.436523 78.0175781,177.578125 77.9882812,176.447266 L77.9882812,176.447266 L84.6240234,176.447266 L84.6240234,175.524414 C84.6240234,174.223633 84.2724609,173.17627 83.5693359,172.382324 C82.8662109,171.588379 81.9111328,171.191406 80.7041016,171.191406 C79.4150391,171.191406 78.3881836,171.648438 77.6235352,172.5625 C76.8588867,173.476562 76.4765625,174.709961 76.4765625,176.262695 C76.4765625,177.803711 76.8881836,179.007812 77.7114258,179.875 C78.534668,180.742188 79.6582031,181.175781 81.0820312,181.175781 Z M83.0595703,175.260742 L78.0234375,175.260742 C78.1054688,174.370117 78.3764648,173.672852 78.8364258,173.168945 C79.2963867,172.665039 79.9130859,172.413086 80.6865234,172.413086 C81.4482422,172.413086 82.0341797,172.657715 82.4443359,173.146973 C82.8544922,173.63623 83.0595703,174.34082 83.0595703,175.260742 L83.0595703,175.260742 Z M87.2167969,183.320312 C87.5273438,182.652344 87.8261719,181.930176 88.1132812,181.153809 C88.4003906,180.377441 88.6201172,179.696289 88.7724609,179.110352 L88.7724609,179.110352 L88.640625,178.908203 L87.0410156,178.908203 C86.9648438,179.447266 86.831543,180.165039 86.6411133,181.061523 C86.4506836,181.958008 86.2763672,182.710938 86.1181641,183.320312 L86.1181641,183.320312 L87.2167969,183.320312 Z M99.0996094,181.175781 C99.3457031,181.175781 99.6225586,181.150879 99.9301758,181.101074 C100.237793,181.05127 100.470703,180.988281 100.628906,180.912109 L100.628906,180.912109 L100.628906,179.795898 C100.488281,179.836914 100.297852,179.876465 100.057617,179.914551 C99.8173828,179.952637 99.5683594,179.97168 99.3105469,179.97168 C98.8300781,179.97168 98.4521484,179.816406 98.1767578,179.505859 C97.9013672,179.195312 97.7636719,178.75 97.7636719,178.169922 L97.7636719,178.169922 L97.7636719,172.500977 L100.558594,172.500977 L100.558594,171.367188 L97.7636719,171.367188 L97.7636719,169.134766 L96.9199219,169.134766 L96.3046875,171.191406 L94.9248047,171.797852 L94.9248047,172.500977 L96.3046875,172.500977 L96.3046875,178.231445 C96.3046875,180.194336 97.2363281,181.175781 99.0996094,181.175781 Z M104.012695,181 L104.012695,175.963867 C104.012695,174.709961 104.245605,173.807617 104.711426,173.256836 C105.177246,172.706055 105.916992,172.430664 106.930664,172.430664 C107.692383,172.430664 108.251953,172.624023 108.609375,173.010742 C108.966797,173.397461 109.145508,173.983398 109.145508,174.768555 L109.145508,174.768555 L109.145508,181 L110.604492,181 L110.604492,174.71582 C110.604492,173.49707 110.310059,172.60791 109.721191,172.04834 C109.132324,171.48877 108.249023,171.208984 107.071289,171.208984 C106.391602,171.208984 105.786621,171.342285 105.256348,171.608887 C104.726074,171.875488 104.317383,172.240234 104.030273,172.703125 L104.030273,172.703125 L103.942383,172.703125 C103.989258,172.375 104.012695,171.961914 104.012695,171.463867 L104.012695,171.463867 L104.012695,167.324219 L102.553711,167.324219 L102.553711,181 L104.012695,181 Z M117.670898,181.175781 C118.321289,181.175781 118.876465,181.127441 119.336426,181.030762 C119.796387,180.934082 120.28418,180.774414 120.799805,180.551758 L120.799805,180.551758 L120.799805,179.250977 C119.786133,179.68457 118.760742,179.901367 117.723633,179.901367 C116.739258,179.901367 115.976074,179.608398 115.434082,179.022461 C114.89209,178.436523 114.606445,177.578125 114.577148,176.447266 L114.577148,176.447266 L121.212891,176.447266 L121.212891,175.524414 C121.212891,174.223633 120.861328,173.17627 120.158203,172.382324 C119.455078,171.588379 118.5,171.191406 117.292969,171.191406 C116.003906,171.191406 114.977051,171.648438 114.212402,172.5625 C113.447754,173.476562 113.06543,174.709961 113.06543,176.262695 C113.06543,177.803711 113.477051,179.007812 114.300293,179.875 C115.123535,180.742188 116.24707,181.175781 117.670898,181.175781 Z M119.648438,175.260742 L114.612305,175.260742 C114.694336,174.370117 114.965332,173.672852 115.425293,173.168945 C115.885254,172.665039 116.501953,172.413086 117.275391,172.413086 C118.037109,172.413086 118.623047,172.657715 119.033203,173.146973 C119.443359,173.63623 119.648438,174.34082 119.648438,175.260742 L119.648438,175.260742 Z M125.15918,181 L125.15918,175.832031 C125.15918,174.888672 125.436035,174.100586 125.989746,173.467773 C126.543457,172.834961 127.209961,172.518555 127.989258,172.518555 C128.293945,172.518555 128.645508,172.5625 129.043945,172.650391 L129.043945,172.650391 L129.246094,171.296875 C128.90625,171.226562 128.522461,171.191406 128.094727,171.191406 C127.491211,171.191406 126.9375,171.361328 126.433594,171.701172 C125.929688,172.041016 125.499023,172.524414 125.141602,173.151367 L125.141602,173.151367 L125.071289,173.151367 L124.904297,171.367188 L123.700195,171.367188 L123.700195,181 L125.15918,181 Z M134.756836,181.175781 C135.407227,181.175781 135.962402,181.127441 136.422363,181.030762 C136.882324,180.934082 137.370117,180.774414 137.885742,180.551758 L137.885742,180.551758 L137.885742,179.250977 C136.87207,179.68457 135.84668,179.901367 134.80957,179.901367 C133.825195,179.901367 133.062012,179.608398 132.52002,179.022461 C131.978027,178.436523 131.692383,177.578125 131.663086,176.447266 L131.663086,176.447266 L138.298828,176.447266 L138.298828,175.524414 C138.298828,174.223633 137.947266,173.17627 137.244141,172.382324 C136.541016,171.588379 135.585938,171.191406 134.378906,171.191406 C133.089844,171.191406 132.062988,171.648438 131.29834,172.5625 C130.533691,173.476562 130.151367,174.709961 130.151367,176.262695 C130.151367,177.803711 130.562988,179.007812 131.38623,179.875 C132.209473,180.742188 133.333008,181.175781 134.756836,181.175781 Z M136.734375,175.260742 L131.698242,175.260742 C131.780273,174.370117 132.05127,173.672852 132.51123,173.168945 C132.971191,172.665039 133.587891,172.413086 134.361328,172.413086 C135.123047,172.413086 135.708984,172.657715 136.119141,173.146973 C136.529297,173.63623 136.734375,174.34082 136.734375,175.260742 L136.734375,175.260742 Z M140.355469,172.553711 C140.666016,171.885742 140.964844,171.163574 141.251953,170.387207 C141.539062,169.61084 141.758789,168.929688 141.911133,168.34375 L141.911133,168.34375 L141.779297,168.150391 L140.179688,168.150391 C139.992188,169.416016 139.693359,170.883789 139.283203,172.553711 L139.283203,172.553711 L140.355469,172.553711 Z M145.532227,181.175781 C146.739258,181.175781 147.676758,180.932617 148.344727,180.446289 C149.012695,179.959961 149.34668,179.268555 149.34668,178.37207 C149.34668,177.733398 149.145996,177.203125 148.744629,176.78125 C148.343262,176.359375 147.571289,175.94043 146.428711,175.524414 C145.59668,175.213867 145.03418,174.976562 144.741211,174.8125 C144.448242,174.648438 144.23584,174.475586 144.104004,174.293945 C143.972168,174.112305 143.90625,173.892578 143.90625,173.634766 C143.90625,173.253906 144.082031,172.955078 144.433594,172.738281 C144.785156,172.521484 145.306641,172.413086 145.998047,172.413086 C146.783203,172.413086 147.65918,172.612305 148.625977,173.010742 L148.625977,173.010742 L149.144531,171.824219 C148.154297,171.402344 147.140625,171.191406 146.103516,171.191406 C144.990234,171.191406 144.114258,171.418457 143.475586,171.872559 C142.836914,172.32666 142.517578,172.946289 142.517578,173.731445 C142.517578,174.170898 142.609863,174.548828 142.794434,174.865234 C142.979004,175.181641 143.260254,175.464355 143.638184,175.713379 C144.016113,175.962402 144.65332,176.253906 145.549805,176.587891 C146.493164,176.951172 147.127441,177.266113 147.452637,177.532715 C147.777832,177.799316 147.94043,178.120117 147.94043,178.495117 C147.94043,178.993164 147.735352,179.36377 147.325195,179.606934 C146.915039,179.850098 146.329102,179.97168 145.567383,179.97168 C145.075195,179.97168 144.563965,179.904297 144.033691,179.769531 C143.503418,179.634766 143.006836,179.450195 142.543945,179.21582 L142.543945,179.21582 L142.543945,180.569336 C143.258789,180.973633 144.254883,181.175781 145.532227,181.175781 Z M160.245117,181.175781 C161.639648,181.175781 162.732422,180.734863 163.523438,179.853027 C164.314453,178.971191 164.709961,177.745117 164.709961,176.174805 C164.709961,174.645508 164.312988,173.432617 163.519043,172.536133 C162.725098,171.639648 161.654297,171.191406 160.306641,171.191406 C158.912109,171.191406 157.822266,171.629395 157.037109,172.505371 C156.251953,173.381348 155.859375,174.604492 155.859375,176.174805 C155.859375,177.188477 156.041016,178.073242 156.404297,178.829102 C156.767578,179.584961 157.283203,180.165039 157.951172,180.569336 C158.619141,180.973633 159.383789,181.175781 160.245117,181.175781 Z M160.280273,179.954102 C159.325195,179.954102 158.601562,179.631836 158.109375,178.987305 C157.617188,178.342773 157.371094,177.405273 157.371094,176.174805 C157.371094,174.932617 157.614258,173.998047 158.100586,173.371094 C158.586914,172.744141 159.307617,172.430664 160.262695,172.430664 C161.229492,172.430664 161.960449,172.748535 162.455566,173.384277 C162.950684,174.02002 163.198242,174.950195 163.198242,176.174805 C163.198242,177.411133 162.950684,178.350098 162.455566,178.991699 C161.960449,179.633301 161.235352,179.954102 160.280273,179.954102 Z M168.726562,181 L168.726562,175.946289 C168.726562,174.692383 168.960938,173.792969 169.429688,173.248047 C169.898438,172.703125 170.636719,172.430664 171.644531,172.430664 C172.40625,172.430664 172.96582,172.624023 173.323242,173.010742 C173.680664,173.397461 173.859375,173.983398 173.859375,174.768555 L173.859375,174.768555 L173.859375,181 L175.318359,181 L175.318359,174.71582 C175.318359,173.485352 175.025391,172.590332 174.439453,172.030762 C173.853516,171.471191 172.980469,171.191406 171.820312,171.191406 C171.158203,171.191406 170.557617,171.321777 170.018555,171.58252 C169.479492,171.843262 169.060547,172.210938 168.761719,172.685547 L168.761719,172.685547 L168.691406,172.685547 L168.454102,171.367188 L167.267578,171.367188 L167.267578,181 L168.726562,181 Z M179.774414,181 L179.774414,167.324219 L178.31543,167.324219 L178.31543,181 L179.774414,181 Z M182.780273,185.324219 C183.577148,185.324219 184.249512,185.097168 184.797363,184.643066 C185.345215,184.188965 185.824219,183.419922 186.234375,182.335938 L186.234375,182.335938 L190.374023,171.367188 L188.80957,171.367188 C187.461914,175.09375 186.666504,177.318848 186.42334,178.04248 C186.180176,178.766113 186.020508,179.277344 185.944336,179.576172 L185.944336,179.576172 L185.874023,179.576172 C185.762695,179.019531 185.475586,178.114258 185.012695,176.860352 L185.012695,176.860352 L182.90332,171.367188 L181.338867,171.367188 L185.223633,181.052734 L184.6875,182.423828 C184.259766,183.548828 183.544922,184.111328 182.542969,184.111328 C182.144531,184.111328 181.78418,184.076172 181.461914,184.005859 L181.461914,184.005859 L181.461914,185.174805 C181.895508,185.274414 182.334961,185.324219 182.780273,185.324219 Z M204.392578,181 L204.392578,179.646484 L197.783203,179.646484 L197.783203,179.576172 L200.595703,176.825195 C201.849609,175.606445 202.705078,174.598633 203.162109,173.801758 C203.619141,173.004883 203.847656,172.199219 203.847656,171.384766 C203.847656,170.341797 203.504883,169.51123 202.819336,168.893066 C202.133789,168.274902 201.1875,167.96582 199.980469,167.96582 C198.585938,167.96582 197.296875,168.458008 196.113281,169.442383 L196.113281,169.442383 L196.886719,170.435547 C197.472656,169.972656 198.004395,169.65332 198.481934,169.477539 C198.959473,169.301758 199.464844,169.213867 199.998047,169.213867 C200.736328,169.213867 201.313477,169.414551 201.729492,169.815918 C202.145508,170.217285 202.353516,170.760742 202.353516,171.446289 C202.353516,171.932617 202.271484,172.386719 202.107422,172.808594 C201.943359,173.230469 201.697266,173.664062 201.369141,174.109375 C201.041016,174.554688 200.361328,175.298828 199.330078,176.341797 L199.330078,176.341797 L195.946289,179.743164 L195.946289,181 L204.392578,181 Z M215.431641,181.175781 C216.826172,181.175781 217.918945,180.734863 218.709961,179.853027 C219.500977,178.971191 219.896484,177.745117 219.896484,176.174805 C219.896484,174.645508 219.499512,173.432617 218.705566,172.536133 C217.911621,171.639648 216.84082,171.191406 215.493164,171.191406 C214.098633,171.191406 213.008789,171.629395 212.223633,172.505371 C211.438477,173.381348 211.045898,174.604492 211.045898,176.174805 C211.045898,177.188477 211.227539,178.073242 211.59082,178.829102 C211.954102,179.584961 212.469727,180.165039 213.137695,180.569336 C213.805664,180.973633 214.570312,181.175781 215.431641,181.175781 Z M215.466797,179.954102 C214.511719,179.954102 213.788086,179.631836 213.295898,178.987305 C212.803711,178.342773 212.557617,177.405273 212.557617,176.174805 C212.557617,174.932617 212.800781,173.998047 213.287109,173.371094 C213.773438,172.744141 214.494141,172.430664 215.449219,172.430664 C216.416016,172.430664 217.146973,172.748535 217.64209,173.384277 C218.137207,174.02002 218.384766,174.950195 218.384766,176.174805 C218.384766,177.411133 218.137207,178.350098 217.64209,178.991699 C217.146973,179.633301 216.421875,179.954102 215.466797,179.954102 Z M225.354492,181.175781 C225.600586,181.175781 225.877441,181.150879 226.185059,181.101074 C226.492676,181.05127 226.725586,180.988281 226.883789,180.912109 L226.883789,180.912109 L226.883789,179.795898 C226.743164,179.836914 226.552734,179.876465 226.3125,179.914551 C226.072266,179.952637 225.823242,179.97168 225.56543,179.97168 C225.084961,179.97168 224.707031,179.816406 224.431641,179.505859 C224.15625,179.195312 224.018555,178.75 224.018555,178.169922 L224.018555,178.169922 L224.018555,172.500977 L226.813477,172.500977 L226.813477,171.367188 L224.018555,171.367188 L224.018555,169.134766 L223.174805,169.134766 L222.55957,171.191406 L221.179688,171.797852 L221.179688,172.500977 L222.55957,172.500977 L222.55957,178.231445 C222.55957,180.194336 223.491211,181.175781 225.354492,181.175781 Z M230.267578,181 L230.267578,175.963867 C230.267578,174.709961 230.500488,173.807617 230.966309,173.256836 C231.432129,172.706055 232.171875,172.430664 233.185547,172.430664 C233.947266,172.430664 234.506836,172.624023 234.864258,173.010742 C235.22168,173.397461 235.400391,173.983398 235.400391,174.768555 L235.400391,174.768555 L235.400391,181 L236.859375,181 L236.859375,174.71582 C236.859375,173.49707 236.564941,172.60791 235.976074,172.04834 C235.387207,171.48877 234.503906,171.208984 233.326172,171.208984 C232.646484,171.208984 232.041504,171.342285 231.51123,171.608887 C230.980957,171.875488 230.572266,172.240234 230.285156,172.703125 L230.285156,172.703125 L230.197266,172.703125 C230.244141,172.375 230.267578,171.961914 230.267578,171.463867 L230.267578,171.463867 L230.267578,167.324219 L228.808594,167.324219 L228.808594,181 L230.267578,181 Z M243.925781,181.175781 C244.576172,181.175781 245.131348,181.127441 245.591309,181.030762 C246.05127,180.934082 246.539062,180.774414 247.054688,180.551758 L247.054688,180.551758 L247.054688,179.250977 C246.041016,179.68457 245.015625,179.901367 243.978516,179.901367 C242.994141,179.901367 242.230957,179.608398 241.688965,179.022461 C241.146973,178.436523 240.861328,177.578125 240.832031,176.447266 L240.832031,176.447266 L247.467773,176.447266 L247.467773,175.524414 C247.467773,174.223633 247.116211,173.17627 246.413086,172.382324 C245.709961,171.588379 244.754883,171.191406 243.547852,171.191406 C242.258789,171.191406 241.231934,171.648438 240.467285,172.5625 C239.702637,173.476562 239.320312,174.709961 239.320312,176.262695 C239.320312,177.803711 239.731934,179.007812 240.555176,179.875 C241.378418,180.742188 242.501953,181.175781 243.925781,181.175781 Z M245.90332,175.260742 L240.867188,175.260742 C240.949219,174.370117 241.220215,173.672852 241.680176,173.168945 C242.140137,172.665039 242.756836,172.413086 243.530273,172.413086 C244.291992,172.413086 244.87793,172.657715 245.288086,173.146973 C245.698242,173.63623 245.90332,174.34082 245.90332,175.260742 L245.90332,175.260742 Z M251.414062,181 L251.414062,175.832031 C251.414062,174.888672 251.690918,174.100586 252.244629,173.467773 C252.79834,172.834961 253.464844,172.518555 254.244141,172.518555 C254.548828,172.518555 254.900391,172.5625 255.298828,172.650391 L255.298828,172.650391 L255.500977,171.296875 C255.161133,171.226562 254.777344,171.191406 254.349609,171.191406 C253.746094,171.191406 253.192383,171.361328 252.688477,171.701172 C252.18457,172.041016 251.753906,172.524414 251.396484,173.151367 L251.396484,173.151367 L251.326172,173.151367 L251.15918,171.367188 L249.955078,171.367188 L249.955078,181 L251.414062,181 Z M264.316406,181.175781 C265.03125,181.175781 265.627441,181.068848 266.10498,180.85498 C266.58252,180.641113 267.061523,180.232422 267.541992,179.628906 L267.541992,179.628906 L267.612305,179.628906 L267.902344,181 L268.983398,181 L268.983398,174.425781 C268.983398,173.300781 268.706543,172.483398 268.152832,171.973633 C267.599121,171.463867 266.748047,171.208984 265.599609,171.208984 C265.03125,171.208984 264.464355,171.282227 263.898926,171.428711 C263.333496,171.575195 262.813477,171.777344 262.338867,172.035156 L262.338867,172.035156 L262.787109,173.151367 C263.800781,172.65918 264.708984,172.413086 265.511719,172.413086 C266.226562,172.413086 266.746582,172.593262 267.071777,172.953613 C267.396973,173.313965 267.55957,173.87207 267.55957,174.62793 L267.55957,174.62793 L267.55957,175.225586 L265.924805,175.27832 C262.813477,175.37207 261.257812,176.391602 261.257812,178.336914 C261.257812,179.245117 261.528809,179.945312 262.070801,180.4375 C262.612793,180.929688 263.361328,181.175781 264.316406,181.175781 Z M264.606445,179.97168 C264.032227,179.97168 263.585449,179.833984 263.266113,179.558594 C262.946777,179.283203 262.787109,178.881836 262.787109,178.354492 C262.787109,177.680664 263.043457,177.184082 263.556152,176.864746 C264.068848,176.54541 264.905273,176.365234 266.06543,176.324219 L266.06543,176.324219 L267.524414,176.262695 L267.524414,177.132812 C267.524414,178.029297 267.265137,178.726562 266.746582,179.224609 C266.228027,179.722656 265.514648,179.97168 264.606445,179.97168 Z M273.448242,185.324219 L273.448242,181.360352 C273.448242,180.856445 273.413086,180.323242 273.342773,179.760742 L273.342773,179.760742 L273.448242,179.760742 C273.799805,180.241211 274.234863,180.597168 274.753418,180.828613 C275.271973,181.060059 275.844727,181.175781 276.47168,181.175781 C277.725586,181.175781 278.705566,180.737793 279.411621,179.861816 C280.117676,178.98584 280.470703,177.756836 280.470703,176.174805 C280.470703,174.598633 280.123535,173.374023 279.429199,172.500977 C278.734863,171.62793 277.749023,171.191406 276.47168,171.191406 C275.827148,171.191406 275.255859,171.308594 274.757812,171.542969 C274.259766,171.777344 273.823242,172.158203 273.448242,172.685547 L273.448242,172.685547 L273.37793,172.685547 L273.175781,171.367188 L271.989258,171.367188 L271.989258,185.324219 L273.448242,185.324219 Z M276.295898,179.954102 C275.299805,179.954102 274.576172,179.662598 274.125,179.07959 C273.673828,178.496582 273.448242,177.52832 273.448242,176.174805 L273.448242,176.174805 L273.448242,175.849609 C273.459961,174.660156 273.685547,173.792969 274.125,173.248047 C274.564453,172.703125 275.276367,172.430664 276.260742,172.430664 C277.116211,172.430664 277.779785,172.751465 278.251465,173.393066 C278.723145,174.034668 278.958984,174.956055 278.958984,176.157227 C278.958984,177.34082 278.723145,178.269531 278.251465,178.943359 C277.779785,179.617188 277.12793,179.954102 276.295898,179.954102 Z M284.478516,185.324219 L284.478516,181.360352 C284.478516,180.856445 284.443359,180.323242 284.373047,179.760742 L284.373047,179.760742 L284.478516,179.760742 C284.830078,180.241211 285.265137,180.597168 285.783691,180.828613 C286.302246,181.060059 286.875,181.175781 287.501953,181.175781 C288.755859,181.175781 289.73584,180.737793 290.441895,179.861816 C291.147949,178.98584 291.500977,177.756836 291.500977,176.174805 C291.500977,174.598633 291.153809,173.374023 290.459473,172.500977 C289.765137,171.62793 288.779297,171.191406 287.501953,171.191406 C286.857422,171.191406 286.286133,171.308594 285.788086,171.542969 C285.290039,171.777344 284.853516,172.158203 284.478516,172.685547 L284.478516,172.685547 L284.408203,172.685547 L284.206055,171.367188 L283.019531,171.367188 L283.019531,185.324219 L284.478516,185.324219 Z M287.326172,179.954102 C286.330078,179.954102 285.606445,179.662598 285.155273,179.07959 C284.704102,178.496582 284.478516,177.52832 284.478516,176.174805 L284.478516,176.174805 L284.478516,175.849609 C284.490234,174.660156 284.71582,173.792969 285.155273,173.248047 C285.594727,172.703125 286.306641,172.430664 287.291016,172.430664 C288.146484,172.430664 288.810059,172.751465 289.281738,173.393066 C289.753418,174.034668 289.989258,174.956055 289.989258,176.157227 C289.989258,177.34082 289.753418,178.269531 289.281738,178.943359 C288.810059,179.617188 288.158203,179.954102 287.326172,179.954102 Z M296.449219,181.175781 C297.65625,181.175781 298.59375,180.932617 299.261719,180.446289 C299.929688,179.959961 300.263672,179.268555 300.263672,178.37207 C300.263672,177.733398 300.062988,177.203125 299.661621,176.78125 C299.260254,176.359375 298.488281,175.94043 297.345703,175.524414 C296.513672,175.213867 295.951172,174.976562 295.658203,174.8125 C295.365234,174.648438 295.152832,174.475586 295.020996,174.293945 C294.88916,174.112305 294.823242,173.892578 294.823242,173.634766 C294.823242,173.253906 294.999023,172.955078 295.350586,172.738281 C295.702148,172.521484 296.223633,172.413086 296.915039,172.413086 C297.700195,172.413086 298.576172,172.612305 299.542969,173.010742 L299.542969,173.010742 L300.061523,171.824219 C299.071289,171.402344 298.057617,171.191406 297.020508,171.191406 C295.907227,171.191406 295.03125,171.418457 294.392578,171.872559 C293.753906,172.32666 293.43457,172.946289 293.43457,173.731445 C293.43457,174.170898 293.526855,174.548828 293.711426,174.865234 C293.895996,175.181641 294.177246,175.464355 294.555176,175.713379 C294.933105,175.962402 295.570312,176.253906 296.466797,176.587891 C297.410156,176.951172 298.044434,177.266113 298.369629,177.532715 C298.694824,177.799316 298.857422,178.120117 298.857422,178.495117 C298.857422,178.993164 298.652344,179.36377 298.242188,179.606934 C297.832031,179.850098 297.246094,179.97168 296.484375,179.97168 C295.992188,179.97168 295.480957,179.904297 294.950684,179.769531 C294.42041,179.634766 293.923828,179.450195 293.460938,179.21582 L293.460938,179.21582 L293.460938,180.569336 C294.175781,180.973633 295.171875,181.175781 296.449219,181.175781 Z M309.650391,181.175781 C310.365234,181.175781 310.961426,181.068848 311.438965,180.85498 C311.916504,180.641113 312.395508,180.232422 312.875977,179.628906 L312.875977,179.628906 L312.946289,179.628906 L313.236328,181 L314.317383,181 L314.317383,174.425781 C314.317383,173.300781 314.040527,172.483398 313.486816,171.973633 C312.933105,171.463867 312.082031,171.208984 310.933594,171.208984 C310.365234,171.208984 309.79834,171.282227 309.23291,171.428711 C308.66748,171.575195 308.147461,171.777344 307.672852,172.035156 L307.672852,172.035156 L308.121094,173.151367 C309.134766,172.65918 310.042969,172.413086 310.845703,172.413086 C311.560547,172.413086 312.080566,172.593262 312.405762,172.953613 C312.730957,173.313965 312.893555,173.87207 312.893555,174.62793 L312.893555,174.62793 L312.893555,175.225586 L311.258789,175.27832 C308.147461,175.37207 306.591797,176.391602 306.591797,178.336914 C306.591797,179.245117 306.862793,179.945312 307.404785,180.4375 C307.946777,180.929688 308.695312,181.175781 309.650391,181.175781 Z M309.94043,179.97168 C309.366211,179.97168 308.919434,179.833984 308.600098,179.558594 C308.280762,179.283203 308.121094,178.881836 308.121094,178.354492 C308.121094,177.680664 308.377441,177.184082 308.890137,176.864746 C309.402832,176.54541 310.239258,176.365234 311.399414,176.324219 L311.399414,176.324219 L312.858398,176.262695 L312.858398,177.132812 C312.858398,178.029297 312.599121,178.726562 312.080566,179.224609 C311.562012,179.722656 310.848633,179.97168 309.94043,179.97168 Z M318.782227,181 L318.782227,175.946289 C318.782227,174.692383 319.016602,173.792969 319.485352,173.248047 C319.954102,172.703125 320.692383,172.430664 321.700195,172.430664 C322.461914,172.430664 323.021484,172.624023 323.378906,173.010742 C323.736328,173.397461 323.915039,173.983398 323.915039,174.768555 L323.915039,174.768555 L323.915039,181 L325.374023,181 L325.374023,174.71582 C325.374023,173.485352 325.081055,172.590332 324.495117,172.030762 C323.90918,171.471191 323.036133,171.191406 321.875977,171.191406 C321.213867,171.191406 320.613281,171.321777 320.074219,171.58252 C319.535156,171.843262 319.116211,172.210938 318.817383,172.685547 L318.817383,172.685547 L318.74707,172.685547 L318.509766,171.367188 L317.323242,171.367188 L317.323242,181 L318.782227,181 Z M331.825195,181.175781 C333.166992,181.175781 334.174805,180.686523 334.848633,179.708008 L334.848633,179.708008 L334.927734,179.708008 L335.121094,181 L336.307617,181 L336.307617,167.324219 L334.848633,167.324219 L334.848633,171.244141 L334.883789,171.920898 L334.945312,172.615234 L334.831055,172.615234 C334.133789,171.666016 333.131836,171.191406 331.825195,171.191406 C330.571289,171.191406 329.592773,171.630859 328.889648,172.509766 C328.186523,173.388672 327.834961,174.62207 327.834961,176.209961 C327.834961,177.797852 328.185059,179.022461 328.885254,179.883789 C329.585449,180.745117 330.56543,181.175781 331.825195,181.175781 Z M332.009766,179.954102 C331.136719,179.954102 330.474609,179.640625 330.023438,179.013672 C329.572266,178.386719 329.34668,177.458008 329.34668,176.227539 C329.34668,175.014648 329.57373,174.075684 330.027832,173.410645 C330.481934,172.745605 331.136719,172.413086 331.992188,172.413086 C332.988281,172.413086 333.713379,172.70459 334.16748,173.287598 C334.621582,173.870605 334.848633,174.844727 334.848633,176.209961 L334.848633,176.209961 L334.848633,176.517578 C334.848633,177.724609 334.624512,178.599121 334.17627,179.141113 C333.728027,179.683105 333.005859,179.954102 332.009766,179.954102 Z M345.536133,181 L345.536133,167.324219 L344.077148,167.324219 L344.077148,181 L345.536133,181 Z M352.479492,181.175781 C353.874023,181.175781 354.966797,180.734863 355.757812,179.853027 C356.548828,178.971191 356.944336,177.745117 356.944336,176.174805 C356.944336,174.645508 356.547363,173.432617 355.753418,172.536133 C354.959473,171.639648 353.888672,171.191406 352.541016,171.191406 C351.146484,171.191406 350.056641,171.629395 349.271484,172.505371 C348.486328,173.381348 348.09375,174.604492 348.09375,176.174805 C348.09375,177.188477 348.275391,178.073242 348.638672,178.829102 C349.001953,179.584961 349.517578,180.165039 350.185547,180.569336 C350.853516,180.973633 351.618164,181.175781 352.479492,181.175781 Z M352.514648,179.954102 C351.55957,179.954102 350.835938,179.631836 350.34375,178.987305 C349.851562,178.342773 349.605469,177.405273 349.605469,176.174805 C349.605469,174.932617 349.848633,173.998047 350.334961,173.371094 C350.821289,172.744141 351.541992,172.430664 352.49707,172.430664 C353.463867,172.430664 354.194824,172.748535 354.689941,173.384277 C355.185059,174.02002 355.432617,174.950195 355.432617,176.174805 C355.432617,177.411133 355.185059,178.350098 354.689941,178.991699 C354.194824,179.633301 353.469727,179.954102 352.514648,179.954102 Z M363.351562,181.175781 C364.746094,181.175781 365.838867,180.734863 366.629883,179.853027 C367.420898,178.971191 367.816406,177.745117 367.816406,176.174805 C367.816406,174.645508 367.419434,173.432617 366.625488,172.536133 C365.831543,171.639648 364.760742,171.191406 363.413086,171.191406 C362.018555,171.191406 360.928711,171.629395 360.143555,172.505371 C359.358398,173.381348 358.96582,174.604492 358.96582,176.174805 C358.96582,177.188477 359.147461,178.073242 359.510742,178.829102 C359.874023,179.584961 360.389648,180.165039 361.057617,180.569336 C361.725586,180.973633 362.490234,181.175781 363.351562,181.175781 Z M363.386719,179.954102 C362.431641,179.954102 361.708008,179.631836 361.21582,178.987305 C360.723633,178.342773 360.477539,177.405273 360.477539,176.174805 C360.477539,174.932617 360.720703,173.998047 361.207031,173.371094 C361.693359,172.744141 362.414062,172.430664 363.369141,172.430664 C364.335938,172.430664 365.066895,172.748535 365.562012,173.384277 C366.057129,174.02002 366.304688,174.950195 366.304688,176.174805 C366.304688,177.411133 366.057129,178.350098 365.562012,178.991699 C365.066895,179.633301 364.341797,179.954102 363.386719,179.954102 Z M371.81543,181 L371.81543,177.396484 L372.914062,176.447266 L376.31543,181 L378.082031,181 L373.907227,175.47168 L377.80957,171.367188 L376.078125,171.367188 L372.966797,174.663086 C372.451172,175.243164 372.067383,175.711914 371.81543,176.069336 L371.81543,176.069336 L371.745117,176.069336 C371.791992,175.395508 371.81543,174.897461 371.81543,174.575195 L371.81543,174.575195 L371.81543,167.324219 L370.374023,167.324219 L370.374023,181 L371.81543,181 Z M33.0058594,209 L33.0058594,203.832031 C33.0058594,202.888672 33.2827148,202.100586 33.8364258,201.467773 C34.3901367,200.834961 35.0566406,200.518555 35.8359375,200.518555 C36.140625,200.518555 36.4921875,200.5625 36.890625,200.650391 L36.890625,200.650391 L37.0927734,199.296875 C36.7529297,199.226562 36.3691406,199.191406 35.9414062,199.191406 C35.3378906,199.191406 34.7841797,199.361328 34.2802734,199.701172 C33.7763672,200.041016 33.3457031,200.524414 32.9882812,201.151367 L32.9882812,201.151367 L32.9179688,201.151367 L32.7509766,199.367188 L31.546875,199.367188 L31.546875,209 L33.0058594,209 Z M42.6035156,209.175781 C43.2539062,209.175781 43.809082,209.127441 44.269043,209.030762 C44.7290039,208.934082 45.2167969,208.774414 45.7324219,208.551758 L45.7324219,208.551758 L45.7324219,207.250977 C44.71875,207.68457 43.6933594,207.901367 42.65625,207.901367 C41.671875,207.901367 40.9086914,207.608398 40.3666992,207.022461 C39.824707,206.436523 39.5390625,205.578125 39.5097656,204.447266 L39.5097656,204.447266 L46.1455078,204.447266 L46.1455078,203.524414 C46.1455078,202.223633 45.7939453,201.17627 45.0908203,200.382324 C44.3876953,199.588379 43.4326172,199.191406 42.2255859,199.191406 C40.9365234,199.191406 39.909668,199.648438 39.1450195,200.5625 C38.3803711,201.476562 37.9980469,202.709961 37.9980469,204.262695 C37.9980469,205.803711 38.409668,207.007812 39.2329102,207.875 C40.0561523,208.742188 41.1796875,209.175781 42.6035156,209.175781 Z M44.5810547,203.260742 L39.5449219,203.260742 C39.6269531,202.370117 39.8979492,201.672852 40.3579102,201.168945 C40.8178711,200.665039 41.4345703,200.413086 42.2080078,200.413086 C42.9697266,200.413086 43.5556641,200.657715 43.9658203,201.146973 C44.3759766,201.63623 44.5810547,202.34082 44.5810547,203.260742 L44.5810547,203.260742 Z M50.9707031,209.175781 C51.6855469,209.175781 52.2817383,209.068848 52.7592773,208.85498 C53.2368164,208.641113 53.7158203,208.232422 54.1962891,207.628906 L54.1962891,207.628906 L54.2666016,207.628906 L54.5566406,209 L55.6376953,209 L55.6376953,202.425781 C55.6376953,201.300781 55.3608398,200.483398 54.8071289,199.973633 C54.253418,199.463867 53.4023438,199.208984 52.2539062,199.208984 C51.6855469,199.208984 51.1186523,199.282227 50.5532227,199.428711 C49.987793,199.575195 49.4677734,199.777344 48.9931641,200.035156 L48.9931641,200.035156 L49.4414062,201.151367 C50.4550781,200.65918 51.3632812,200.413086 52.1660156,200.413086 C52.8808594,200.413086 53.4008789,200.593262 53.7260742,200.953613 C54.0512695,201.313965 54.2138672,201.87207 54.2138672,202.62793 L54.2138672,202.62793 L54.2138672,203.225586 L52.5791016,203.27832 C49.4677734,203.37207 47.9121094,204.391602 47.9121094,206.336914 C47.9121094,207.245117 48.1831055,207.945312 48.7250977,208.4375 C49.2670898,208.929688 50.015625,209.175781 50.9707031,209.175781 Z M51.2607422,207.97168 C50.6865234,207.97168 50.2397461,207.833984 49.9204102,207.558594 C49.6010742,207.283203 49.4414062,206.881836 49.4414062,206.354492 C49.4414062,205.680664 49.6977539,205.184082 50.2104492,204.864746 C50.7231445,204.54541 51.5595703,204.365234 52.7197266,204.324219 L52.7197266,204.324219 L54.1787109,204.262695 L54.1787109,205.132812 C54.1787109,206.029297 53.9194336,206.726562 53.4008789,207.224609 C52.8823242,207.722656 52.1689453,207.97168 51.2607422,207.97168 Z M60.1025391,209 L60.1025391,195.324219 L58.6435547,195.324219 L58.6435547,209 L60.1025391,209 Z M64.6552734,209 L64.6552734,195.324219 L63.1962891,195.324219 L63.1962891,209 L64.6552734,209 Z M67.6611328,213.324219 C68.4580078,213.324219 69.1303711,213.097168 69.6782227,212.643066 C70.2260742,212.188965 70.7050781,211.419922 71.1152344,210.335938 L71.1152344,210.335938 L75.2548828,199.367188 L73.6904297,199.367188 C72.3427734,203.09375 71.5473633,205.318848 71.3041992,206.04248 C71.0610352,206.766113 70.9013672,207.277344 70.8251953,207.576172 L70.8251953,207.576172 L70.7548828,207.576172 C70.6435547,207.019531 70.3564453,206.114258 69.8935547,204.860352 L69.8935547,204.860352 L67.7841797,199.367188 L66.2197266,199.367188 L70.1044922,209.052734 L69.5683594,210.423828 C69.140625,211.548828 68.4257812,212.111328 67.4238281,212.111328 C67.0253906,212.111328 66.6650391,212.076172 66.3427734,212.005859 L66.3427734,212.005859 L66.3427734,213.174805 C66.7763672,213.274414 67.2158203,213.324219 67.6611328,213.324219 Z M85.3447266,209.175781 C86.3232422,209.175781 87.1347656,209.008789 87.7792969,208.674805 L87.7792969,208.674805 L87.7792969,207.382812 C86.9355469,207.728516 86.1123047,207.901367 85.3095703,207.901367 C84.3720703,207.901367 83.6645508,207.584961 83.1870117,206.952148 C82.7094727,206.319336 82.4707031,205.411133 82.4707031,204.227539 C82.4707031,201.731445 83.4492188,200.483398 85.40625,200.483398 C85.6992188,200.483398 86.0361328,200.525879 86.4169922,200.61084 C86.7978516,200.695801 87.1494141,200.802734 87.4716797,200.931641 L87.4716797,200.931641 L87.9199219,199.692383 C87.65625,199.557617 87.2929688,199.44043 86.8300781,199.34082 C86.3671875,199.241211 85.9042969,199.191406 85.4414062,199.191406 C84.0058594,199.191406 82.8999023,199.630859 82.1235352,200.509766 C81.347168,201.388672 80.9589844,202.633789 80.9589844,204.245117 C80.9589844,205.81543 81.3413086,207.029785 82.105957,207.888184 C82.8706055,208.746582 83.9501953,209.175781 85.3447266,209.175781 Z M91.5234375,209 L91.5234375,195.324219 L90.0644531,195.324219 L90.0644531,209 L91.5234375,209 Z M98.0185547,209.175781 C98.6982422,209.175781 99.3032227,209.049805 99.8334961,208.797852 C100.36377,208.545898 100.77832,208.182617 101.077148,207.708008 L101.077148,207.708008 L101.15625,207.708008 L101.367188,209 L102.571289,209 L102.571289,199.367188 L101.112305,199.367188 L101.112305,204.429688 C101.112305,205.677734 100.879395,206.577148 100.413574,207.12793 C99.9477539,207.678711 99.2109375,207.954102 98.203125,207.954102 C97.4414062,207.954102 96.8818359,207.760742 96.5244141,207.374023 C96.1669922,206.987305 95.9882812,206.401367 95.9882812,205.616211 L95.9882812,205.616211 L95.9882812,199.367188 L94.5117188,199.367188 L94.5117188,205.668945 C94.5117188,206.893555 94.8032227,207.78418 95.3862305,208.34082 C95.9692383,208.897461 96.8466797,209.175781 98.0185547,209.175781 Z M107.124023,209 L107.124023,203.946289 C107.124023,202.692383 107.358398,201.792969 107.827148,201.248047 C108.295898,200.703125 109.03418,200.430664 110.041992,200.430664 C110.803711,200.430664 111.363281,200.624023 111.720703,201.010742 C112.078125,201.397461 112.256836,201.983398 112.256836,202.768555 L112.256836,202.768555 L112.256836,209 L113.71582,209 L113.71582,202.71582 C113.71582,201.485352 113.422852,200.590332 112.836914,200.030762 C112.250977,199.471191 111.37793,199.191406 110.217773,199.191406 C109.555664,199.191406 108.955078,199.321777 108.416016,199.58252 C107.876953,199.843262 107.458008,200.210938 107.15918,200.685547 L107.15918,200.685547 L107.088867,200.685547 L106.851562,199.367188 L105.665039,199.367188 L105.665039,209 L107.124023,209 Z M118.154297,209 L118.154297,205.396484 L119.25293,204.447266 L122.654297,209 L124.420898,209 L120.246094,203.47168 L124.148438,199.367188 L122.416992,199.367188 L119.305664,202.663086 C118.790039,203.243164 118.40625,203.711914 118.154297,204.069336 L118.154297,204.069336 L118.083984,204.069336 C118.130859,203.395508 118.154297,202.897461 118.154297,202.575195 L118.154297,202.575195 L118.154297,195.324219 L116.712891,195.324219 L116.712891,209 L118.154297,209 Z M126.073242,213.324219 C126.870117,213.324219 127.54248,213.097168 128.090332,212.643066 C128.638184,212.188965 129.117188,211.419922 129.527344,210.335938 L129.527344,210.335938 L133.666992,199.367188 L132.102539,199.367188 C130.754883,203.09375 129.959473,205.318848 129.716309,206.04248 C129.473145,206.766113 129.313477,207.277344 129.237305,207.576172 L129.237305,207.576172 L129.166992,207.576172 C129.055664,207.019531 128.768555,206.114258 128.305664,204.860352 L128.305664,204.860352 L126.196289,199.367188 L124.631836,199.367188 L128.516602,209.052734 L127.980469,210.423828 C127.552734,211.548828 126.837891,212.111328 125.835938,212.111328 C125.4375,212.111328 125.077148,212.076172 124.754883,212.005859 L124.754883,212.005859 L124.754883,213.174805 C125.188477,213.274414 125.62793,213.324219 126.073242,213.324219 Z M136.057617,209.254883 C136.391602,209.254883 136.655273,209.152344 136.848633,208.947266 C137.041992,208.742188 137.138672,208.449219 137.138672,208.068359 C137.138672,207.675781 137.043457,207.378418 136.853027,207.17627 C136.662598,206.974121 136.397461,206.873047 136.057617,206.873047 C135.723633,206.873047 135.467285,206.974121 135.288574,207.17627 C135.109863,207.378418 135.020508,207.675781 135.020508,208.068359 C135.020508,208.490234 135.118652,208.793457 135.314941,208.978027 C135.51123,209.162598 135.758789,209.254883 136.057617,209.254883 Z M140.71582,209.254883 C141.049805,209.254883 141.313477,209.152344 141.506836,208.947266 C141.700195,208.742188 141.796875,208.449219 141.796875,208.068359 C141.796875,207.675781 141.70166,207.378418 141.51123,207.17627 C141.320801,206.974121 141.055664,206.873047 140.71582,206.873047 C140.381836,206.873047 140.125488,206.974121 139.946777,207.17627 C139.768066,207.378418 139.678711,207.675781 139.678711,208.068359 C139.678711,208.490234 139.776855,208.793457 139.973145,208.978027 C140.169434,209.162598 140.416992,209.254883 140.71582,209.254883 Z M145.382812,209.254883 C145.716797,209.254883 145.980469,209.152344 146.173828,208.947266 C146.367188,208.742188 146.463867,208.449219 146.463867,208.068359 C146.463867,207.675781 146.368652,207.378418 146.178223,207.17627 C145.987793,206.974121 145.722656,206.873047 145.382812,206.873047 C145.048828,206.873047 144.79248,206.974121 144.61377,207.17627 C144.435059,207.378418 144.345703,207.675781 144.345703,208.068359 C144.345703,208.490234 144.443848,208.793457 144.640137,208.978027 C144.836426,209.162598 145.083984,209.254883 145.382812,209.254883 Z" id="Thisisprobablythebestappasitssosimple,theresonly2otherappsandlookreallyclunky" fill="#0D141F" fill-rule="nonzero"></path>
            </g>
        </g>
    </g>
</svg>