<?xml version="1.0" encoding="UTF-8"?>
<svg width="429px" height="250px" viewBox="0 0 429 250" version="1.1" xmlns="http://www.w3.org/2000/svg" xmlns:xlink="http://www.w3.org/1999/xlink">
    <!-- Generator: Sketch 63.1 (92452) - https://sketch.com -->
    <title>review-3</title>
    <desc>Created with Sketch.</desc>
    <g id="Web" stroke="none" stroke-width="1" fill="none" fill-rule="evenodd">
        <g id="web---desktop" transform="translate(-1082.000000, -7181.000000)">
            <g id="review-3" transform="translate(1082.000000, 7181.000000)">
                <rect id="Rectangle-Copy-29" fill="#FFFFFF" x="0" y="0" width="429" height="250" rx="32"></rect>
                <path d="M48.0932175,85.0045676 L51.8151995,92.6516353 C52.0740242,93.183496 52.5744645,93.5520294 53.1533783,93.637183 L61.4763824,94.8635336 C62.9343365,95.0785114 63.5160037,96.8946551 62.4614307,97.9367391 L56.4389377,103.889112 C56.0204126,104.303014 55.8290475,104.899787 55.9281719,105.483996 L57.3496427,113.88907 C57.5988303,115.361109 56.0747933,116.483461 54.7710327,115.788971 L47.3270689,111.820955 C46.8094194,111.545253 46.1905806,111.545253 45.6729311,111.820955 L38.2289673,115.788971 C36.9252067,116.484159 35.4011697,115.361109 35.6503573,113.88907 L37.0718281,105.483996 C37.1709525,104.899787 36.9795874,104.303014 36.5610623,103.889112 L30.5385693,97.9367391 C29.4839963,96.8939572 30.0656635,95.0778135 31.5236176,94.8635336 L39.8466217,93.637183 C40.4255355,93.5520294 40.9259758,93.183496 41.1848005,92.6516353 L44.9067825,85.0045676 C45.5579744,83.6651441 47.4413372,83.6651441 48.0932175,85.0045676 Z" id="Path-Copy-24" fill="#FFD329" fill-rule="nonzero"></path>
                <path d="M88.0932175,85.0045676 L91.8151995,92.6516353 C92.0740242,93.183496 92.5744645,93.5520294 93.1533783,93.637183 L101.476382,94.8635336 C102.934337,95.0785114 103.516004,96.8946551 102.461431,97.9367391 L96.4389377,103.889112 C96.0204126,104.303014 95.8290475,104.899787 95.9281719,105.483996 L97.3496427,113.88907 C97.5988303,115.361109 96.0747933,116.483461 94.7710327,115.788971 L87.3270689,111.820955 C86.8094194,111.545253 86.1905806,111.545253 85.6729311,111.820955 L78.2289673,115.788971 C76.9252067,116.484159 75.4011697,115.361109 75.6503573,113.88907 L77.0718281,105.483996 C77.1709525,104.899787 76.9795874,104.303014 76.5610623,103.889112 L70.5385693,97.9367391 C69.4839963,96.8939572 70.0656635,95.0778135 71.5236176,94.8635336 L79.8466217,93.637183 C80.4255355,93.5520294 80.9259758,93.183496 81.1848005,92.6516353 L84.9067825,85.0045676 C85.5579744,83.6651441 87.4413372,83.6651441 88.0932175,85.0045676 Z" id="Path-Copy-25" fill="#FFD329" fill-rule="nonzero"></path>
                <path d="M128.093218,85.0045676 L131.815199,92.6516353 C132.074024,93.183496 132.574464,93.5520294 133.153378,93.637183 L141.476382,94.8635336 C142.934337,95.0785114 143.516004,96.8946551 142.461431,97.9367391 L136.438938,103.889112 C136.020413,104.303014 135.829048,104.899787 135.928172,105.483996 L137.349643,113.88907 C137.59883,115.361109 136.074793,116.483461 134.771033,115.788971 L127.327069,111.820955 C126.809419,111.545253 126.190581,111.545253 125.672931,111.820955 L118.228967,115.788971 C116.925207,116.484159 115.40117,115.361109 115.650357,113.88907 L117.071828,105.483996 C117.170952,104.899787 116.979587,104.303014 116.561062,103.889112 L110.538569,97.9367391 C109.483996,96.8939572 110.065663,95.0778135 111.523618,94.8635336 L119.846622,93.637183 C120.425536,93.5520294 120.925976,93.183496 121.184801,92.6516353 L124.906782,85.0045676 C125.557974,83.6651441 127.441337,83.6651441 128.093218,85.0045676 Z" id="Path-Copy-26" fill="#FFD329" fill-rule="nonzero"></path>
                <path d="M168.093218,85.0045676 L171.815199,92.6516353 C172.074024,93.183496 172.574464,93.5520294 173.153378,93.637183 L181.476382,94.8635336 C182.934337,95.0785114 183.516004,96.8946551 182.461431,97.9367391 L176.438938,103.889112 C176.020413,104.303014 175.829048,104.899787 175.928172,105.483996 L177.349643,113.88907 C177.59883,115.361109 176.074793,116.483461 174.771033,115.788971 L167.327069,111.820955 C166.809419,111.545253 166.190581,111.545253 165.672931,111.820955 L158.228967,115.788971 C156.925207,116.484159 155.40117,115.361109 155.650357,113.88907 L157.071828,105.483996 C157.170952,104.899787 156.979587,104.303014 156.561062,103.889112 L150.538569,97.9367391 C149.483996,96.8939572 150.065663,95.0778135 151.523618,94.8635336 L159.846622,93.637183 C160.425536,93.5520294 160.925976,93.183496 161.184801,92.6516353 L164.906782,85.0045676 C165.557974,83.6651441 167.441337,83.6651441 168.093218,85.0045676 Z" id="Path-Copy-27" fill="#FFD329" fill-rule="nonzero"></path>
                <path d="M208.093218,85.0045676 L211.815199,92.6516353 C212.074024,93.183496 212.574464,93.5520294 213.153378,93.637183 L221.476382,94.8635336 C222.934337,95.0785114 223.516004,96.8946551 222.461431,97.9367391 L216.438938,103.889112 C216.020413,104.303014 215.829048,104.899787 215.928172,105.483996 L217.349643,113.88907 C217.59883,115.361109 216.074793,116.483461 214.771033,115.788971 L207.327069,111.820955 C206.809419,111.545253 206.190581,111.545253 205.672931,111.820955 L198.228967,115.788971 C196.925207,116.484159 195.40117,115.361109 195.650357,113.88907 L197.071828,105.483996 C197.170952,104.899787 196.979587,104.303014 196.561062,103.889112 L190.538569,97.9367391 C189.483996,96.8939572 190.065663,95.0778135 191.523618,94.8635336 L199.846622,93.637183 C200.425536,93.5520294 200.925976,93.183496 201.184801,92.6516353 L204.906782,85.0045676 C205.557974,83.6651441 207.441337,83.6651441 208.093218,85.0045676 Z" id="Path-Copy-28" fill="#FFD329" fill-rule="nonzero"></path>
                <path d="M42.7382812,58 L42.7382812,55 L35.7890625,55 L35.7890625,40.8671875 L32.15625,40.8671875 L32.15625,58 L42.7382812,58 Z M50.953125,58.234375 C52.9609375,58.234375 54.5273438,57.6328125 55.6523438,56.4296875 C56.7773438,55.2265625 57.3398438,53.5585938 57.3398438,51.4257812 C57.3398438,50.0507812 57.0820312,48.8515625 56.5664062,47.828125 C56.0507812,46.8046875 55.3125,46.0195312 54.3515625,45.4726562 C53.390625,44.9257812 52.28125,44.6523438 51.0234375,44.6523438 C49,44.6523438 47.4296875,45.2460938 46.3125,46.4335938 C45.1953125,47.6210938 44.6367188,49.2851562 44.6367188,51.4257812 C44.6367188,52.8007812 44.8945312,54.0039062 45.4101562,55.0351562 C45.9257812,56.0664062 46.6640625,56.8574219 47.625,57.4082031 C48.5859375,57.9589844 49.6953125,58.234375 50.953125,58.234375 Z M51,55.3632812 C50.0390625,55.3632812 49.3457031,55.03125 48.9199219,54.3671875 C48.4941406,53.703125 48.28125,52.7226562 48.28125,51.4257812 C48.28125,50.1210938 48.4921875,49.1464844 48.9140625,48.5019531 C49.3359375,47.8574219 50.0234375,47.5351562 50.9765625,47.5351562 C51.9375,47.5351562 52.6289062,47.859375 53.0507812,48.5078125 C53.4726562,49.15625 53.6835938,50.1289062 53.6835938,51.4257812 C53.6835938,52.7304688 53.4746094,53.7128906 53.0566406,54.3730469 C52.6386719,55.0332031 51.953125,55.3632812 51,55.3632812 Z M66.5976562,58 L71.5898438,44.8984375 L67.8515625,44.8984375 L65.3320312,52.3632812 C65.0195312,53.4023438 64.84375,54.296875 64.8046875,55.046875 L64.8046875,55.046875 L64.734375,55.046875 C64.6640625,54.203125 64.4882812,53.3085938 64.2070312,52.3632812 L64.2070312,52.3632812 L61.6757812,44.8984375 L57.9375,44.8984375 L62.9296875,58 L66.5976562,58 Z M79.3945312,58.234375 C80.4179688,58.234375 81.2851562,58.1582031 81.9960938,58.0058594 C82.7070312,57.8535156 83.375,57.6210938 84,57.3085938 L84,57.3085938 L84,54.5429688 C83.234375,54.9023438 82.5,55.1640625 81.796875,55.328125 C81.09375,55.4921875 80.3476562,55.5742188 79.5585938,55.5742188 C78.5429688,55.5742188 77.7539062,55.2890625 77.1914062,54.71875 C76.6289062,54.1484375 76.328125,53.3554688 76.2890625,52.3398438 L76.2890625,52.3398438 L84.7382812,52.3398438 L84.7382812,50.6054688 C84.7382812,48.7460938 84.2226562,47.2890625 83.1914062,46.234375 C82.1601562,45.1796875 80.71875,44.6523438 78.8671875,44.6523438 C76.9296875,44.6523438 75.4121094,45.2519531 74.3144531,46.4511719 C73.2167969,47.6503906 72.6679688,49.3476562 72.6679688,51.5429688 C72.6679688,53.6757812 73.2617188,55.3242188 74.4492188,56.4882812 C75.6367188,57.6523438 77.2851562,58.234375 79.3945312,58.234375 Z M81.3867188,49.9609375 L76.3710938,49.9609375 C76.4335938,49.078125 76.6796875,48.3964844 77.109375,47.9160156 C77.5390625,47.4355469 78.1328125,47.1953125 78.890625,47.1953125 C79.6484375,47.1953125 80.25,47.4355469 80.6953125,47.9160156 C81.140625,48.3964844 81.3710938,49.078125 81.3867188,49.9609375 L81.3867188,49.9609375 Z M98.3671875,58.234375 C99.6640625,58.234375 100.757812,58.0351562 101.648438,57.6367188 L101.648438,57.6367188 L101.648438,54.9765625 C100.773438,55.25 100.023438,55.3867188 99.3984375,55.3867188 C98.9296875,55.3867188 98.5527344,55.265625 98.2675781,55.0234375 C97.9824219,54.78125 97.8398438,54.40625 97.8398438,53.8984375 L97.8398438,53.8984375 L97.8398438,47.5820312 L101.507812,47.5820312 L101.507812,44.8984375 L97.8398438,44.8984375 L97.8398438,42.109375 L95.5546875,42.109375 L94.5234375,44.875 L92.5546875,46.0703125 L92.5546875,47.5820312 L94.265625,47.5820312 L94.265625,53.8984375 C94.265625,55.34375 94.5917969,56.4277344 95.2441406,57.1503906 C95.8964844,57.8730469 96.9375,58.234375 98.3671875,58.234375 Z M107.871094,58 L107.871094,51.8359375 C107.871094,50.3125 108.09375,49.2109375 108.539062,48.53125 C108.984375,47.8515625 109.707031,47.5117188 110.707031,47.5117188 C112.113281,47.5117188 112.816406,48.4570312 112.816406,50.3476562 L112.816406,50.3476562 L112.816406,58 L116.390625,58 L116.390625,49.4570312 C116.390625,47.9101562 115.992188,46.7226562 115.195312,45.8945312 C114.398438,45.0664062 113.230469,44.6523438 111.691406,44.6523438 C109.957031,44.6523438 108.691406,45.2929688 107.894531,46.5742188 L107.894531,46.5742188 L107.707031,46.5742188 L107.789062,45.5195312 C107.84375,44.4492188 107.871094,43.7695312 107.871094,43.4804688 L107.871094,43.4804688 L107.871094,39.765625 L104.296875,39.765625 L104.296875,58 L107.871094,58 Z M126,58.234375 C127.023438,58.234375 127.890625,58.1582031 128.601562,58.0058594 C129.3125,57.8535156 129.980469,57.6210938 130.605469,57.3085938 L130.605469,57.3085938 L130.605469,54.5429688 C129.839844,54.9023438 129.105469,55.1640625 128.402344,55.328125 C127.699219,55.4921875 126.953125,55.5742188 126.164062,55.5742188 C125.148438,55.5742188 124.359375,55.2890625 123.796875,54.71875 C123.234375,54.1484375 122.933594,53.3554688 122.894531,52.3398438 L122.894531,52.3398438 L131.34375,52.3398438 L131.34375,50.6054688 C131.34375,48.7460938 130.828125,47.2890625 129.796875,46.234375 C128.765625,45.1796875 127.324219,44.6523438 125.472656,44.6523438 C123.535156,44.6523438 122.017578,45.2519531 120.919922,46.4511719 C119.822266,47.6503906 119.273438,49.3476562 119.273438,51.5429688 C119.273438,53.6757812 119.867188,55.3242188 121.054688,56.4882812 C122.242188,57.6523438 123.890625,58.234375 126,58.234375 Z M127.992188,49.9609375 L122.976562,49.9609375 C123.039062,49.078125 123.285156,48.3964844 123.714844,47.9160156 C124.144531,47.4355469 124.738281,47.1953125 125.496094,47.1953125 C126.253906,47.1953125 126.855469,47.4355469 127.300781,47.9160156 C127.746094,48.3964844 127.976562,49.078125 127.992188,49.9609375 L127.992188,49.9609375 Z M143.671875,58.234375 C144.695312,58.234375 145.525391,58.0878906 146.162109,57.7949219 C146.798828,57.5019531 147.417969,56.9765625 148.019531,56.21875 L148.019531,56.21875 L148.113281,56.21875 L148.804688,58 L151.300781,58 L151.300781,49.2695312 C151.300781,47.7070312 150.832031,46.5429688 149.894531,45.7773438 C148.957031,45.0117188 147.609375,44.6289062 145.851562,44.6289062 C144.015625,44.6289062 142.34375,45.0234375 140.835938,45.8125 L140.835938,45.8125 L142.019531,48.2265625 C143.433594,47.59375 144.664062,47.2773438 145.710938,47.2773438 C147.070312,47.2773438 147.75,47.9414062 147.75,49.2695312 L147.75,49.2695312 L147.75,49.84375 L145.476562,49.9140625 C143.515625,49.984375 142.048828,50.3496094 141.076172,51.0097656 C140.103516,51.6699219 139.617188,52.6953125 139.617188,54.0859375 C139.617188,55.4140625 139.978516,56.4375 140.701172,57.15625 C141.423828,57.875 142.414062,58.234375 143.671875,58.234375 Z M145.019531,55.6210938 C143.863281,55.6210938 143.285156,55.1171875 143.285156,54.109375 C143.285156,53.40625 143.539062,52.8828125 144.046875,52.5390625 C144.554688,52.1953125 145.328125,52.0078125 146.367188,51.9765625 L146.367188,51.9765625 L147.75,51.9296875 L147.75,53.0078125 C147.75,53.796875 147.501953,54.4296875 147.005859,54.90625 C146.509766,55.3828125 145.847656,55.6210938 145.019531,55.6210938 Z M158.554688,63.765625 L158.554688,58.4570312 C158.554688,58.2851562 158.492188,57.6523438 158.367188,56.5585938 L158.367188,56.5585938 L158.554688,56.5585938 C159.429688,57.6757812 160.636719,58.234375 162.175781,58.234375 C163.199219,58.234375 164.089844,57.9648438 164.847656,57.4257812 C165.605469,56.8867188 166.189453,56.1015625 166.599609,55.0703125 C167.009766,54.0390625 167.214844,52.8242188 167.214844,51.4257812 C167.214844,49.3007812 166.777344,47.640625 165.902344,46.4453125 C165.027344,45.25 163.816406,44.6523438 162.269531,44.6523438 C160.628906,44.6523438 159.390625,45.3007812 158.554688,46.5976562 L158.554688,46.5976562 L158.390625,46.5976562 L157.886719,44.8984375 L154.980469,44.8984375 L154.980469,63.765625 L158.554688,63.765625 Z M161.167969,55.3398438 C160.261719,55.3398438 159.599609,55.0351562 159.181641,54.4257812 C158.763672,53.8164062 158.554688,52.8085938 158.554688,51.4023438 L158.554688,51.4023438 L158.554688,51.015625 C158.570312,49.765625 158.78125,48.8691406 159.1875,48.3261719 C159.59375,47.7832031 160.238281,47.5117188 161.121094,47.5117188 C161.964844,47.5117188 162.583984,47.8339844 162.978516,48.4785156 C163.373047,49.1230469 163.570312,50.0898438 163.570312,51.3789062 C163.570312,54.0195312 162.769531,55.3398438 161.167969,55.3398438 Z M173.742188,63.765625 L173.742188,58.4570312 C173.742188,58.2851562 173.679688,57.6523438 173.554688,56.5585938 L173.554688,56.5585938 L173.742188,56.5585938 C174.617188,57.6757812 175.824219,58.234375 177.363281,58.234375 C178.386719,58.234375 179.277344,57.9648438 180.035156,57.4257812 C180.792969,56.8867188 181.376953,56.1015625 181.787109,55.0703125 C182.197266,54.0390625 182.402344,52.8242188 182.402344,51.4257812 C182.402344,49.3007812 181.964844,47.640625 181.089844,46.4453125 C180.214844,45.25 179.003906,44.6523438 177.457031,44.6523438 C175.816406,44.6523438 174.578125,45.3007812 173.742188,46.5976562 L173.742188,46.5976562 L173.578125,46.5976562 L173.074219,44.8984375 L170.167969,44.8984375 L170.167969,63.765625 L173.742188,63.765625 Z M176.355469,55.3398438 C175.449219,55.3398438 174.787109,55.0351562 174.369141,54.4257812 C173.951172,53.8164062 173.742188,52.8085938 173.742188,51.4023438 L173.742188,51.4023438 L173.742188,51.015625 C173.757812,49.765625 173.96875,48.8691406 174.375,48.3261719 C174.78125,47.7832031 175.425781,47.5117188 176.308594,47.5117188 C177.152344,47.5117188 177.771484,47.8339844 178.166016,48.4785156 C178.560547,49.1230469 178.757812,50.0898438 178.757812,51.3789062 C178.757812,54.0195312 177.957031,55.3398438 176.355469,55.3398438 Z M188.355469,52.3164062 L188.953125,40.8671875 L184.898438,40.8671875 L185.496094,52.3164062 L188.355469,52.3164062 Z M186.914062,58.3164062 C187.554688,58.3164062 188.054688,58.1386719 188.414062,57.7832031 C188.773438,57.4277344 188.953125,56.9414062 188.953125,56.3242188 C188.953125,55.6835938 188.775391,55.1914062 188.419922,54.8476562 C188.064453,54.5039062 187.5625,54.3320312 186.914062,54.3320312 C186.242188,54.3320312 185.730469,54.5 185.378906,54.8359375 C185.027344,55.171875 184.851562,55.6679688 184.851562,56.3242188 C184.851562,56.9570312 185.03125,57.4472656 185.390625,57.7949219 C185.75,58.1425781 186.257812,58.3164062 186.914062,58.3164062 Z" id="Lovetheapp!" fill="#0D141F" fill-rule="nonzero"></path>
                <path d="M37.0224609,153.175781 C38.3291016,153.175781 39.4277344,153.008789 40.3183594,152.674805 L40.3183594,152.674805 L40.3183594,151.365234 C39.1699219,151.6875 38.1474609,151.848633 37.2509766,151.848633 C35.7919922,151.848633 34.668457,151.390137 33.8803711,150.473145 C33.0922852,149.556152 32.6982422,148.256836 32.6982422,146.575195 C32.6982422,144.94043 33.1069336,143.652832 33.9243164,142.712402 C34.7416992,141.771973 35.8564453,141.301758 37.2685547,141.301758 C38.2412109,141.301758 39.2138672,141.530273 40.1865234,141.987305 L40.1865234,141.987305 L40.8193359,140.704102 C39.8115234,140.211914 38.6337891,139.96582 37.2861328,139.96582 C36.0205078,139.96582 34.9204102,140.235352 33.9858398,140.774414 C33.0512695,141.313477 32.3364258,142.081055 31.8413086,143.077148 C31.3461914,144.073242 31.0986328,145.233398 31.0986328,146.557617 C31.0986328,148.672852 31.612793,150.304688 32.6411133,151.453125 C33.6694336,152.601562 35.1298828,153.175781 37.0224609,153.175781 Z M46.7519531,153.175781 C48.1464844,153.175781 49.2392578,152.734863 50.0302734,151.853027 C50.8212891,150.971191 51.2167969,149.745117 51.2167969,148.174805 C51.2167969,146.645508 50.8198242,145.432617 50.0258789,144.536133 C49.2319336,143.639648 48.1611328,143.191406 46.8134766,143.191406 C45.4189453,143.191406 44.3291016,143.629395 43.5439453,144.505371 C42.7587891,145.381348 42.3662109,146.604492 42.3662109,148.174805 C42.3662109,149.188477 42.5478516,150.073242 42.9111328,150.829102 C43.2744141,151.584961 43.7900391,152.165039 44.4580078,152.569336 C45.1259766,152.973633 45.890625,153.175781 46.7519531,153.175781 Z M46.7871094,151.954102 C45.8320312,151.954102 45.1083984,151.631836 44.6162109,150.987305 C44.1240234,150.342773 43.8779297,149.405273 43.8779297,148.174805 C43.8779297,146.932617 44.1210938,145.998047 44.6074219,145.371094 C45.09375,144.744141 45.8144531,144.430664 46.7695312,144.430664 C47.7363281,144.430664 48.4672852,144.748535 48.9624023,145.384277 C49.4575195,146.02002 49.7050781,146.950195 49.7050781,148.174805 C49.7050781,149.411133 49.4575195,150.350098 48.9624023,150.991699 C48.4672852,151.633301 47.7421875,151.954102 46.7871094,151.954102 Z M57.1757812,153.175781 C57.8554688,153.175781 58.4604492,153.049805 58.9907227,152.797852 C59.5209961,152.545898 59.9355469,152.182617 60.234375,151.708008 L60.234375,151.708008 L60.3134766,151.708008 L60.5244141,153 L61.7285156,153 L61.7285156,143.367188 L60.2695312,143.367188 L60.2695312,148.429688 C60.2695312,149.677734 60.0366211,150.577148 59.5708008,151.12793 C59.1049805,151.678711 58.3681641,151.954102 57.3603516,151.954102 C56.5986328,151.954102 56.0390625,151.760742 55.6816406,151.374023 C55.3242188,150.987305 55.1455078,150.401367 55.1455078,149.616211 L55.1455078,149.616211 L55.1455078,143.367188 L53.6689453,143.367188 L53.6689453,149.668945 C53.6689453,150.893555 53.9604492,151.78418 54.543457,152.34082 C55.1264648,152.897461 56.0039062,153.175781 57.1757812,153.175781 Z M66.28125,153 L66.28125,139.324219 L64.8222656,139.324219 L64.8222656,153 L66.28125,153 Z M72.8291016,153.175781 C74.1708984,153.175781 75.1787109,152.686523 75.8525391,151.708008 L75.8525391,151.708008 L75.9316406,151.708008 L76.125,153 L77.3115234,153 L77.3115234,139.324219 L75.8525391,139.324219 L75.8525391,143.244141 L75.8876953,143.920898 L75.9492188,144.615234 L75.8349609,144.615234 C75.1376953,143.666016 74.1357422,143.191406 72.8291016,143.191406 C71.5751953,143.191406 70.5966797,143.630859 69.8935547,144.509766 C69.1904297,145.388672 68.8388672,146.62207 68.8388672,148.209961 C68.8388672,149.797852 69.1889648,151.022461 69.8891602,151.883789 C70.5893555,152.745117 71.5693359,153.175781 72.8291016,153.175781 Z M73.0136719,151.954102 C72.140625,151.954102 71.4785156,151.640625 71.0273438,151.013672 C70.5761719,150.386719 70.3505859,149.458008 70.3505859,148.227539 C70.3505859,147.014648 70.5776367,146.075684 71.0317383,145.410645 C71.4858398,144.745605 72.140625,144.413086 72.9960938,144.413086 C73.9921875,144.413086 74.7172852,144.70459 75.1713867,145.287598 C75.6254883,145.870605 75.8525391,146.844727 75.8525391,148.209961 L75.8525391,148.209961 L75.8525391,148.517578 C75.8525391,149.724609 75.628418,150.599121 75.1801758,151.141113 C74.7319336,151.683105 74.0097656,151.954102 73.0136719,151.954102 Z M84.9931641,157.324219 C85.7900391,157.324219 86.4624023,157.097168 87.0102539,156.643066 C87.5581055,156.188965 88.0371094,155.419922 88.4472656,154.335938 L88.4472656,154.335938 L92.5869141,143.367188 L91.0224609,143.367188 C89.6748047,147.09375 88.8793945,149.318848 88.6362305,150.04248 C88.3930664,150.766113 88.2333984,151.277344 88.1572266,151.576172 L88.1572266,151.576172 L88.0869141,151.576172 C87.9755859,151.019531 87.6884766,150.114258 87.2255859,148.860352 L87.2255859,148.860352 L85.1162109,143.367188 L83.5517578,143.367188 L87.4365234,153.052734 L86.9003906,154.423828 C86.4726562,155.548828 85.7578125,156.111328 84.7558594,156.111328 C84.3574219,156.111328 83.9970703,156.076172 83.6748047,156.005859 L83.6748047,156.005859 L83.6748047,157.174805 C84.1083984,157.274414 84.5478516,157.324219 84.9931641,157.324219 Z M98.0009766,153.175781 C99.3955078,153.175781 100.488281,152.734863 101.279297,151.853027 C102.070312,150.971191 102.46582,149.745117 102.46582,148.174805 C102.46582,146.645508 102.068848,145.432617 101.274902,144.536133 C100.480957,143.639648 99.4101562,143.191406 98.0625,143.191406 C96.6679688,143.191406 95.578125,143.629395 94.7929688,144.505371 C94.0078125,145.381348 93.6152344,146.604492 93.6152344,148.174805 C93.6152344,149.188477 93.796875,150.073242 94.1601562,150.829102 C94.5234375,151.584961 95.0390625,152.165039 95.7070312,152.569336 C96.375,152.973633 97.1396484,153.175781 98.0009766,153.175781 Z M98.0361328,151.954102 C97.0810547,151.954102 96.3574219,151.631836 95.8652344,150.987305 C95.3730469,150.342773 95.1269531,149.405273 95.1269531,148.174805 C95.1269531,146.932617 95.3701172,145.998047 95.8564453,145.371094 C96.3427734,144.744141 97.0634766,144.430664 98.0185547,144.430664 C98.9853516,144.430664 99.7163086,144.748535 100.211426,145.384277 C100.706543,146.02002 100.954102,146.950195 100.954102,148.174805 C100.954102,149.411133 100.706543,150.350098 100.211426,150.991699 C99.7163086,151.633301 98.9912109,151.954102 98.0361328,151.954102 Z M108.424805,153.175781 C109.104492,153.175781 109.709473,153.049805 110.239746,152.797852 C110.77002,152.545898 111.18457,152.182617 111.483398,151.708008 L111.483398,151.708008 L111.5625,151.708008 L111.773438,153 L112.977539,153 L112.977539,143.367188 L111.518555,143.367188 L111.518555,148.429688 C111.518555,149.677734 111.285645,150.577148 110.819824,151.12793 C110.354004,151.678711 109.617188,151.954102 108.609375,151.954102 C107.847656,151.954102 107.288086,151.760742 106.930664,151.374023 C106.573242,150.987305 106.394531,150.401367 106.394531,149.616211 L106.394531,149.616211 L106.394531,143.367188 L104.917969,143.367188 L104.917969,149.668945 C104.917969,150.893555 105.209473,151.78418 105.79248,152.34082 C106.375488,152.897461 107.25293,153.175781 108.424805,153.175781 Z M122.206055,153 L122.206055,147.946289 C122.206055,146.698242 122.418457,145.800293 122.843262,145.252441 C123.268066,144.70459 123.9375,144.430664 124.851562,144.430664 C125.548828,144.430664 126.061523,144.622559 126.389648,145.006348 C126.717773,145.390137 126.881836,145.96582 126.881836,146.733398 L126.881836,146.733398 L126.881836,153 L128.34082,153 L128.34082,147.621094 C128.34082,146.537109 128.557617,145.734375 128.991211,145.212891 C129.424805,144.691406 130.095703,144.430664 131.003906,144.430664 C131.695312,144.430664 132.205078,144.622559 132.533203,145.006348 C132.861328,145.390137 133.025391,145.96582 133.025391,146.733398 L133.025391,146.733398 L133.025391,153 L134.484375,153 L134.484375,146.71582 C134.484375,145.485352 134.213379,144.590332 133.671387,144.030762 C133.129395,143.471191 132.313477,143.191406 131.223633,143.191406 C130.526367,143.191406 129.905273,143.337891 129.360352,143.630859 C128.81543,143.923828 128.399414,144.322266 128.112305,144.826172 L128.112305,144.826172 L128.041992,144.826172 C127.579102,143.736328 126.594727,143.191406 125.088867,143.191406 C124.467773,143.191406 123.906738,143.323242 123.405762,143.586914 C122.904785,143.850586 122.516602,144.216797 122.241211,144.685547 L122.241211,144.685547 L122.170898,144.685547 L121.933594,143.367188 L120.74707,143.367188 L120.74707,153 L122.206055,153 Z M139.828125,153.175781 C140.542969,153.175781 141.13916,153.068848 141.616699,152.85498 C142.094238,152.641113 142.573242,152.232422 143.053711,151.628906 L143.053711,151.628906 L143.124023,151.628906 L143.414062,153 L144.495117,153 L144.495117,146.425781 C144.495117,145.300781 144.218262,144.483398 143.664551,143.973633 C143.11084,143.463867 142.259766,143.208984 141.111328,143.208984 C140.542969,143.208984 139.976074,143.282227 139.410645,143.428711 C138.845215,143.575195 138.325195,143.777344 137.850586,144.035156 L137.850586,144.035156 L138.298828,145.151367 C139.3125,144.65918 140.220703,144.413086 141.023438,144.413086 C141.738281,144.413086 142.258301,144.593262 142.583496,144.953613 C142.908691,145.313965 143.071289,145.87207 143.071289,146.62793 L143.071289,146.62793 L143.071289,147.225586 L141.436523,147.27832 C138.325195,147.37207 136.769531,148.391602 136.769531,150.336914 C136.769531,151.245117 137.040527,151.945312 137.58252,152.4375 C138.124512,152.929688 138.873047,153.175781 139.828125,153.175781 Z M140.118164,151.97168 C139.543945,151.97168 139.097168,151.833984 138.777832,151.558594 C138.458496,151.283203 138.298828,150.881836 138.298828,150.354492 C138.298828,149.680664 138.555176,149.184082 139.067871,148.864746 C139.580566,148.54541 140.416992,148.365234 141.577148,148.324219 L141.577148,148.324219 L143.036133,148.262695 L143.036133,149.132812 C143.036133,150.029297 142.776855,150.726562 142.258301,151.224609 C141.739746,151.722656 141.026367,151.97168 140.118164,151.97168 Z M147.413086,157.324219 C148.209961,157.324219 148.882324,157.097168 149.430176,156.643066 C149.978027,156.188965 150.457031,155.419922 150.867188,154.335938 L150.867188,154.335938 L155.006836,143.367188 L153.442383,143.367188 C152.094727,147.09375 151.299316,149.318848 151.056152,150.04248 C150.812988,150.766113 150.65332,151.277344 150.577148,151.576172 L150.577148,151.576172 L150.506836,151.576172 C150.395508,151.019531 150.108398,150.114258 149.645508,148.860352 L149.645508,148.860352 L147.536133,143.367188 L145.97168,143.367188 L149.856445,153.052734 L149.320312,154.423828 C148.892578,155.548828 148.177734,156.111328 147.175781,156.111328 C146.777344,156.111328 146.416992,156.076172 146.094727,156.005859 L146.094727,156.005859 L146.094727,157.174805 C146.52832,157.274414 146.967773,157.324219 147.413086,157.324219 Z M161.053711,153.175781 C162.307617,153.175781 163.287598,152.737793 163.993652,151.861816 C164.699707,150.98584 165.052734,149.756836 165.052734,148.174805 C165.052734,146.592773 164.702637,145.369629 164.002441,144.505371 C163.302246,143.641113 162.319336,143.208984 161.053711,143.208984 C159.717773,143.208984 158.709961,143.689453 158.030273,144.650391 L158.030273,144.650391 L157.959961,144.650391 C158.006836,144.058594 158.030273,143.390625 158.030273,142.646484 L158.030273,142.646484 L158.030273,139.324219 L156.571289,139.324219 L156.571289,153 L157.617188,153 L157.924805,151.760742 L158.030273,151.760742 C158.381836,152.241211 158.816895,152.597168 159.335449,152.828613 C159.854004,153.060059 160.426758,153.175781 161.053711,153.175781 Z M160.87793,151.954102 C159.881836,151.954102 159.158203,151.662598 158.707031,151.07959 C158.255859,150.496582 158.030273,149.52832 158.030273,148.174805 C158.030273,146.821289 158.25,145.858887 158.689453,145.287598 C159.128906,144.716309 159.84668,144.430664 160.842773,144.430664 C161.762695,144.430664 162.442383,144.738281 162.881836,145.353516 C163.321289,145.96875 163.541016,146.90332 163.541016,148.157227 C163.541016,149.381836 163.321289,150.320801 162.881836,150.974121 C162.442383,151.627441 161.774414,151.954102 160.87793,151.954102 Z M171.670898,153.175781 C172.321289,153.175781 172.876465,153.127441 173.336426,153.030762 C173.796387,152.934082 174.28418,152.774414 174.799805,152.551758 L174.799805,152.551758 L174.799805,151.250977 C173.786133,151.68457 172.760742,151.901367 171.723633,151.901367 C170.739258,151.901367 169.976074,151.608398 169.434082,151.022461 C168.89209,150.436523 168.606445,149.578125 168.577148,148.447266 L168.577148,148.447266 L175.212891,148.447266 L175.212891,147.524414 C175.212891,146.223633 174.861328,145.17627 174.158203,144.382324 C173.455078,143.588379 172.5,143.191406 171.292969,143.191406 C170.003906,143.191406 168.977051,143.648438 168.212402,144.5625 C167.447754,145.476562 167.06543,146.709961 167.06543,148.262695 C167.06543,149.803711 167.477051,151.007812 168.300293,151.875 C169.123535,152.742188 170.24707,153.175781 171.670898,153.175781 Z M173.648438,147.260742 L168.612305,147.260742 C168.694336,146.370117 168.965332,145.672852 169.425293,145.168945 C169.885254,144.665039 170.501953,144.413086 171.275391,144.413086 C172.037109,144.413086 172.623047,144.657715 173.033203,145.146973 C173.443359,145.63623 173.648438,146.34082 173.648438,147.260742 L173.648438,147.260742 Z M184.713867,153.175781 C185.428711,153.175781 186.024902,153.068848 186.502441,152.85498 C186.97998,152.641113 187.458984,152.232422 187.939453,151.628906 L187.939453,151.628906 L188.009766,151.628906 L188.299805,153 L189.380859,153 L189.380859,146.425781 C189.380859,145.300781 189.104004,144.483398 188.550293,143.973633 C187.996582,143.463867 187.145508,143.208984 185.99707,143.208984 C185.428711,143.208984 184.861816,143.282227 184.296387,143.428711 C183.730957,143.575195 183.210938,143.777344 182.736328,144.035156 L182.736328,144.035156 L183.18457,145.151367 C184.198242,144.65918 185.106445,144.413086 185.90918,144.413086 C186.624023,144.413086 187.144043,144.593262 187.469238,144.953613 C187.794434,145.313965 187.957031,145.87207 187.957031,146.62793 L187.957031,146.62793 L187.957031,147.225586 L186.322266,147.27832 C183.210938,147.37207 181.655273,148.391602 181.655273,150.336914 C181.655273,151.245117 181.92627,151.945312 182.468262,152.4375 C183.010254,152.929688 183.758789,153.175781 184.713867,153.175781 Z M185.003906,151.97168 C184.429688,151.97168 183.98291,151.833984 183.663574,151.558594 C183.344238,151.283203 183.18457,150.881836 183.18457,150.354492 C183.18457,149.680664 183.440918,149.184082 183.953613,148.864746 C184.466309,148.54541 185.302734,148.365234 186.462891,148.324219 L186.462891,148.324219 L187.921875,148.262695 L187.921875,149.132812 C187.921875,150.029297 187.662598,150.726562 187.144043,151.224609 C186.625488,151.722656 185.912109,151.97168 185.003906,151.97168 Z M195.84082,153.175781 C197.182617,153.175781 198.19043,152.686523 198.864258,151.708008 L198.864258,151.708008 L198.943359,151.708008 L199.136719,153 L200.323242,153 L200.323242,139.324219 L198.864258,139.324219 L198.864258,143.244141 L198.899414,143.920898 L198.960938,144.615234 L198.84668,144.615234 C198.149414,143.666016 197.147461,143.191406 195.84082,143.191406 C194.586914,143.191406 193.608398,143.630859 192.905273,144.509766 C192.202148,145.388672 191.850586,146.62207 191.850586,148.209961 C191.850586,149.797852 192.200684,151.022461 192.900879,151.883789 C193.601074,152.745117 194.581055,153.175781 195.84082,153.175781 Z M196.025391,151.954102 C195.152344,151.954102 194.490234,151.640625 194.039062,151.013672 C193.587891,150.386719 193.362305,149.458008 193.362305,148.227539 C193.362305,147.014648 193.589355,146.075684 194.043457,145.410645 C194.497559,144.745605 195.152344,144.413086 196.007812,144.413086 C197.003906,144.413086 197.729004,144.70459 198.183105,145.287598 C198.637207,145.870605 198.864258,146.844727 198.864258,148.209961 L198.864258,148.209961 L198.864258,148.517578 C198.864258,149.724609 198.640137,150.599121 198.191895,151.141113 C197.743652,151.683105 197.021484,151.954102 196.025391,151.954102 Z M206.871094,153.175781 C208.212891,153.175781 209.220703,152.686523 209.894531,151.708008 L209.894531,151.708008 L209.973633,151.708008 L210.166992,153 L211.353516,153 L211.353516,139.324219 L209.894531,139.324219 L209.894531,143.244141 L209.929688,143.920898 L209.991211,144.615234 L209.876953,144.615234 C209.179688,143.666016 208.177734,143.191406 206.871094,143.191406 C205.617188,143.191406 204.638672,143.630859 203.935547,144.509766 C203.232422,145.388672 202.880859,146.62207 202.880859,148.209961 C202.880859,149.797852 203.230957,151.022461 203.931152,151.883789 C204.631348,152.745117 205.611328,153.175781 206.871094,153.175781 Z M207.055664,151.954102 C206.182617,151.954102 205.520508,151.640625 205.069336,151.013672 C204.618164,150.386719 204.392578,149.458008 204.392578,148.227539 C204.392578,147.014648 204.619629,146.075684 205.07373,145.410645 C205.527832,144.745605 206.182617,144.413086 207.038086,144.413086 C208.03418,144.413086 208.759277,144.70459 209.213379,145.287598 C209.66748,145.870605 209.894531,146.844727 209.894531,148.209961 L209.894531,148.209961 L209.894531,148.517578 C209.894531,149.724609 209.67041,150.599121 209.222168,151.141113 C208.773926,151.683105 208.051758,151.954102 207.055664,151.954102 Z M222.972656,153.175781 C223.951172,153.175781 224.762695,153.008789 225.407227,152.674805 L225.407227,152.674805 L225.407227,151.382812 C224.563477,151.728516 223.740234,151.901367 222.9375,151.901367 C222,151.901367 221.29248,151.584961 220.814941,150.952148 C220.337402,150.319336 220.098633,149.411133 220.098633,148.227539 C220.098633,145.731445 221.077148,144.483398 223.03418,144.483398 C223.327148,144.483398 223.664062,144.525879 224.044922,144.61084 C224.425781,144.695801 224.777344,144.802734 225.099609,144.931641 L225.099609,144.931641 L225.547852,143.692383 C225.28418,143.557617 224.920898,143.44043 224.458008,143.34082 C223.995117,143.241211 223.532227,143.191406 223.069336,143.191406 C221.633789,143.191406 220.527832,143.630859 219.751465,144.509766 C218.975098,145.388672 218.586914,146.633789 218.586914,148.245117 C218.586914,149.81543 218.969238,151.029785 219.733887,151.888184 C220.498535,152.746582 221.578125,153.175781 222.972656,153.175781 Z M229.151367,153 L229.151367,147.963867 C229.151367,146.709961 229.384277,145.807617 229.850098,145.256836 C230.315918,144.706055 231.055664,144.430664 232.069336,144.430664 C232.831055,144.430664 233.390625,144.624023 233.748047,145.010742 C234.105469,145.397461 234.28418,145.983398 234.28418,146.768555 L234.28418,146.768555 L234.28418,153 L235.743164,153 L235.743164,146.71582 C235.743164,145.49707 235.44873,144.60791 234.859863,144.04834 C234.270996,143.48877 233.387695,143.208984 232.209961,143.208984 C231.530273,143.208984 230.925293,143.342285 230.39502,143.608887 C229.864746,143.875488 229.456055,144.240234 229.168945,144.703125 L229.168945,144.703125 L229.081055,144.703125 C229.12793,144.375 229.151367,143.961914 229.151367,143.463867 L229.151367,143.463867 L229.151367,139.324219 L227.692383,139.324219 L227.692383,153 L229.151367,153 Z M239.478516,141.732422 C239.712891,141.732422 239.915039,141.651855 240.084961,141.490723 C240.254883,141.32959 240.339844,141.084961 240.339844,140.756836 C240.339844,140.428711 240.254883,140.185547 240.084961,140.027344 C239.915039,139.869141 239.712891,139.790039 239.478516,139.790039 C239.232422,139.790039 239.027344,139.867676 238.863281,140.022949 C238.699219,140.178223 238.617188,140.422852 238.617188,140.756836 C238.617188,141.084961 238.699219,141.32959 238.863281,141.490723 C239.027344,141.651855 239.232422,141.732422 239.478516,141.732422 Z M240.199219,153 L240.199219,143.367188 L238.740234,143.367188 L238.740234,153 L240.199219,153 Z M244.751953,153 L244.751953,139.324219 L243.292969,139.324219 L243.292969,153 L244.751953,153 Z M251.299805,153.175781 C252.641602,153.175781 253.649414,152.686523 254.323242,151.708008 L254.323242,151.708008 L254.402344,151.708008 L254.595703,153 L255.782227,153 L255.782227,139.324219 L254.323242,139.324219 L254.323242,143.244141 L254.358398,143.920898 L254.419922,144.615234 L254.305664,144.615234 C253.608398,143.666016 252.606445,143.191406 251.299805,143.191406 C250.045898,143.191406 249.067383,143.630859 248.364258,144.509766 C247.661133,145.388672 247.30957,146.62207 247.30957,148.209961 C247.30957,149.797852 247.659668,151.022461 248.359863,151.883789 C249.060059,152.745117 250.040039,153.175781 251.299805,153.175781 Z M251.484375,151.954102 C250.611328,151.954102 249.949219,151.640625 249.498047,151.013672 C249.046875,150.386719 248.821289,149.458008 248.821289,148.227539 C248.821289,147.014648 249.04834,146.075684 249.502441,145.410645 C249.956543,144.745605 250.611328,144.413086 251.466797,144.413086 C252.462891,144.413086 253.187988,144.70459 253.64209,145.287598 C254.096191,145.870605 254.323242,146.844727 254.323242,148.209961 L254.323242,148.209961 L254.323242,148.517578 C254.323242,149.724609 254.099121,150.599121 253.650879,151.141113 C253.202637,151.683105 252.480469,151.954102 251.484375,151.954102 Z M265.441406,153 L265.441406,144.500977 L267.893555,144.500977 L267.893555,143.367188 L265.441406,143.367188 L265.441406,142.743164 C265.441406,141.93457 265.573242,141.347168 265.836914,140.980957 C266.100586,140.614746 266.507812,140.431641 267.058594,140.431641 C267.457031,140.431641 267.9375,140.522461 268.5,140.704102 L268.5,140.704102 L268.87793,139.535156 C268.192383,139.330078 267.594727,139.227539 267.084961,139.227539 C265.016602,139.227539 263.982422,140.411133 263.982422,142.77832 L263.982422,142.77832 L263.982422,143.314453 L262.259766,143.841797 L262.259766,144.500977 L263.982422,144.500977 L263.982422,153 L265.441406,153 Z M271.989258,153.175781 C272.704102,153.175781 273.300293,153.068848 273.777832,152.85498 C274.255371,152.641113 274.734375,152.232422 275.214844,151.628906 L275.214844,151.628906 L275.285156,151.628906 L275.575195,153 L276.65625,153 L276.65625,146.425781 C276.65625,145.300781 276.379395,144.483398 275.825684,143.973633 C275.271973,143.463867 274.420898,143.208984 273.272461,143.208984 C272.704102,143.208984 272.137207,143.282227 271.571777,143.428711 C271.006348,143.575195 270.486328,143.777344 270.011719,144.035156 L270.011719,144.035156 L270.459961,145.151367 C271.473633,144.65918 272.381836,144.413086 273.18457,144.413086 C273.899414,144.413086 274.419434,144.593262 274.744629,144.953613 C275.069824,145.313965 275.232422,145.87207 275.232422,146.62793 L275.232422,146.62793 L275.232422,147.225586 L273.597656,147.27832 C270.486328,147.37207 268.930664,148.391602 268.930664,150.336914 C268.930664,151.245117 269.20166,151.945312 269.743652,152.4375 C270.285645,152.929688 271.03418,153.175781 271.989258,153.175781 Z M272.279297,151.97168 C271.705078,151.97168 271.258301,151.833984 270.938965,151.558594 C270.619629,151.283203 270.459961,150.881836 270.459961,150.354492 C270.459961,149.680664 270.716309,149.184082 271.229004,148.864746 C271.741699,148.54541 272.578125,148.365234 273.738281,148.324219 L273.738281,148.324219 L275.197266,148.262695 L275.197266,149.132812 C275.197266,150.029297 274.937988,150.726562 274.419434,151.224609 C273.900879,151.722656 273.1875,151.97168 272.279297,151.97168 Z M281.121094,153 L281.121094,147.832031 C281.121094,146.888672 281.397949,146.100586 281.95166,145.467773 C282.505371,144.834961 283.171875,144.518555 283.951172,144.518555 C284.255859,144.518555 284.607422,144.5625 285.005859,144.650391 L285.005859,144.650391 L285.208008,143.296875 C284.868164,143.226562 284.484375,143.191406 284.056641,143.191406 C283.453125,143.191406 282.899414,143.361328 282.395508,143.701172 C281.891602,144.041016 281.460938,144.524414 281.103516,145.151367 L281.103516,145.151367 L281.033203,145.151367 L280.866211,143.367188 L279.662109,143.367188 L279.662109,153 L281.121094,153 Z M290.71875,153.175781 C291.369141,153.175781 291.924316,153.127441 292.384277,153.030762 C292.844238,152.934082 293.332031,152.774414 293.847656,152.551758 L293.847656,152.551758 L293.847656,151.250977 C292.833984,151.68457 291.808594,151.901367 290.771484,151.901367 C289.787109,151.901367 289.023926,151.608398 288.481934,151.022461 C287.939941,150.436523 287.654297,149.578125 287.625,148.447266 L287.625,148.447266 L294.260742,148.447266 L294.260742,147.524414 C294.260742,146.223633 293.90918,145.17627 293.206055,144.382324 C292.50293,143.588379 291.547852,143.191406 290.34082,143.191406 C289.051758,143.191406 288.024902,143.648438 287.260254,144.5625 C286.495605,145.476562 286.113281,146.709961 286.113281,148.262695 C286.113281,149.803711 286.524902,151.007812 287.348145,151.875 C288.171387,152.742188 289.294922,153.175781 290.71875,153.175781 Z M292.696289,147.260742 L287.660156,147.260742 C287.742188,146.370117 288.013184,145.672852 288.473145,145.168945 C288.933105,144.665039 289.549805,144.413086 290.323242,144.413086 C291.084961,144.413086 291.670898,144.657715 292.081055,145.146973 C292.491211,145.63623 292.696289,146.34082 292.696289,147.260742 L292.696289,147.260742 Z M299.147461,153.175781 C300.354492,153.175781 301.291992,152.932617 301.959961,152.446289 C302.62793,151.959961 302.961914,151.268555 302.961914,150.37207 C302.961914,149.733398 302.76123,149.203125 302.359863,148.78125 C301.958496,148.359375 301.186523,147.94043 300.043945,147.524414 C299.211914,147.213867 298.649414,146.976562 298.356445,146.8125 C298.063477,146.648438 297.851074,146.475586 297.719238,146.293945 C297.587402,146.112305 297.521484,145.892578 297.521484,145.634766 C297.521484,145.253906 297.697266,144.955078 298.048828,144.738281 C298.400391,144.521484 298.921875,144.413086 299.613281,144.413086 C300.398438,144.413086 301.274414,144.612305 302.241211,145.010742 L302.241211,145.010742 L302.759766,143.824219 C301.769531,143.402344 300.755859,143.191406 299.71875,143.191406 C298.605469,143.191406 297.729492,143.418457 297.09082,143.872559 C296.452148,144.32666 296.132812,144.946289 296.132812,145.731445 C296.132812,146.170898 296.225098,146.548828 296.409668,146.865234 C296.594238,147.181641 296.875488,147.464355 297.253418,147.713379 C297.631348,147.962402 298.268555,148.253906 299.165039,148.587891 C300.108398,148.951172 300.742676,149.266113 301.067871,149.532715 C301.393066,149.799316 301.555664,150.120117 301.555664,150.495117 C301.555664,150.993164 301.350586,151.36377 300.94043,151.606934 C300.530273,151.850098 299.944336,151.97168 299.182617,151.97168 C298.69043,151.97168 298.179199,151.904297 297.648926,151.769531 C297.118652,151.634766 296.62207,151.450195 296.15918,151.21582 L296.15918,151.21582 L296.15918,152.569336 C296.874023,152.973633 297.870117,153.175781 299.147461,153.175781 Z M311.900391,153 L311.900391,144.500977 L314.352539,144.500977 L314.352539,143.367188 L311.900391,143.367188 L311.900391,142.743164 C311.900391,141.93457 312.032227,141.347168 312.295898,140.980957 C312.55957,140.614746 312.966797,140.431641 313.517578,140.431641 C313.916016,140.431641 314.396484,140.522461 314.958984,140.704102 L314.958984,140.704102 L315.336914,139.535156 C314.651367,139.330078 314.053711,139.227539 313.543945,139.227539 C311.475586,139.227539 310.441406,140.411133 310.441406,142.77832 L310.441406,142.77832 L310.441406,143.314453 L308.71875,143.841797 L308.71875,144.500977 L310.441406,144.500977 L310.441406,153 L311.900391,153 Z M319.959961,153.175781 C321.354492,153.175781 322.447266,152.734863 323.238281,151.853027 C324.029297,150.971191 324.424805,149.745117 324.424805,148.174805 C324.424805,146.645508 324.027832,145.432617 323.233887,144.536133 C322.439941,143.639648 321.369141,143.191406 320.021484,143.191406 C318.626953,143.191406 317.537109,143.629395 316.751953,144.505371 C315.966797,145.381348 315.574219,146.604492 315.574219,148.174805 C315.574219,149.188477 315.755859,150.073242 316.119141,150.829102 C316.482422,151.584961 316.998047,152.165039 317.666016,152.569336 C318.333984,152.973633 319.098633,153.175781 319.959961,153.175781 Z M319.995117,151.954102 C319.040039,151.954102 318.316406,151.631836 317.824219,150.987305 C317.332031,150.342773 317.085938,149.405273 317.085938,148.174805 C317.085938,146.932617 317.329102,145.998047 317.81543,145.371094 C318.301758,144.744141 319.022461,144.430664 319.977539,144.430664 C320.944336,144.430664 321.675293,144.748535 322.17041,145.384277 C322.665527,146.02002 322.913086,146.950195 322.913086,148.174805 C322.913086,149.411133 322.665527,150.350098 322.17041,150.991699 C321.675293,151.633301 320.950195,151.954102 319.995117,151.954102 Z M328.441406,153 L328.441406,147.832031 C328.441406,146.888672 328.718262,146.100586 329.271973,145.467773 C329.825684,144.834961 330.492188,144.518555 331.271484,144.518555 C331.576172,144.518555 331.927734,144.5625 332.326172,144.650391 L332.326172,144.650391 L332.52832,143.296875 C332.188477,143.226562 331.804688,143.191406 331.376953,143.191406 C330.773438,143.191406 330.219727,143.361328 329.71582,143.701172 C329.211914,144.041016 328.78125,144.524414 328.423828,145.151367 L328.423828,145.151367 L328.353516,145.151367 L328.186523,143.367188 L326.982422,143.367188 L326.982422,153 L328.441406,153 Z M341.90625,153.175781 C342.152344,153.175781 342.429199,153.150879 342.736816,153.101074 C343.044434,153.05127 343.277344,152.988281 343.435547,152.912109 L343.435547,152.912109 L343.435547,151.795898 C343.294922,151.836914 343.104492,151.876465 342.864258,151.914551 C342.624023,151.952637 342.375,151.97168 342.117188,151.97168 C341.636719,151.97168 341.258789,151.816406 340.983398,151.505859 C340.708008,151.195312 340.570312,150.75 340.570312,150.169922 L340.570312,150.169922 L340.570312,144.500977 L343.365234,144.500977 L343.365234,143.367188 L340.570312,143.367188 L340.570312,141.134766 L339.726562,141.134766 L339.111328,143.191406 L337.731445,143.797852 L337.731445,144.500977 L339.111328,144.500977 L339.111328,150.231445 C339.111328,152.194336 340.042969,153.175781 341.90625,153.175781 Z M346.819336,153 L346.819336,147.963867 C346.819336,146.709961 347.052246,145.807617 347.518066,145.256836 C347.983887,144.706055 348.723633,144.430664 349.737305,144.430664 C350.499023,144.430664 351.058594,144.624023 351.416016,145.010742 C351.773438,145.397461 351.952148,145.983398 351.952148,146.768555 L351.952148,146.768555 L351.952148,153 L353.411133,153 L353.411133,146.71582 C353.411133,145.49707 353.116699,144.60791 352.527832,144.04834 C351.938965,143.48877 351.055664,143.208984 349.87793,143.208984 C349.198242,143.208984 348.593262,143.342285 348.062988,143.608887 C347.532715,143.875488 347.124023,144.240234 346.836914,144.703125 L346.836914,144.703125 L346.749023,144.703125 C346.795898,144.375 346.819336,143.961914 346.819336,143.463867 L346.819336,143.463867 L346.819336,139.324219 L345.360352,139.324219 L345.360352,153 L346.819336,153 Z M360.477539,153.175781 C361.12793,153.175781 361.683105,153.127441 362.143066,153.030762 C362.603027,152.934082 363.09082,152.774414 363.606445,152.551758 L363.606445,152.551758 L363.606445,151.250977 C362.592773,151.68457 361.567383,151.901367 360.530273,151.901367 C359.545898,151.901367 358.782715,151.608398 358.240723,151.022461 C357.69873,150.436523 357.413086,149.578125 357.383789,148.447266 L357.383789,148.447266 L364.019531,148.447266 L364.019531,147.524414 C364.019531,146.223633 363.667969,145.17627 362.964844,144.382324 C362.261719,143.588379 361.306641,143.191406 360.099609,143.191406 C358.810547,143.191406 357.783691,143.648438 357.019043,144.5625 C356.254395,145.476562 355.87207,146.709961 355.87207,148.262695 C355.87207,149.803711 356.283691,151.007812 357.106934,151.875 C357.930176,152.742188 359.053711,153.175781 360.477539,153.175781 Z M362.455078,147.260742 L357.418945,147.260742 C357.500977,146.370117 357.771973,145.672852 358.231934,145.168945 C358.691895,144.665039 359.308594,144.413086 360.082031,144.413086 C360.84375,144.413086 361.429688,144.657715 361.839844,145.146973 C362.25,145.63623 362.455078,146.34082 362.455078,147.260742 L362.455078,147.260742 Z M377.34375,153 L377.34375,151.866211 L372.026367,151.866211 L377.211914,144.500977 L377.211914,143.367188 L370.681641,143.367188 L370.681641,144.500977 L375.612305,144.500977 L370.356445,152.006836 L370.356445,153 L377.34375,153 Z M380.34082,141.732422 C380.575195,141.732422 380.777344,141.651855 380.947266,141.490723 C381.117188,141.32959 381.202148,141.084961 381.202148,140.756836 C381.202148,140.428711 381.117188,140.185547 380.947266,140.027344 C380.777344,139.869141 380.575195,139.790039 380.34082,139.790039 C380.094727,139.790039 379.889648,139.867676 379.725586,140.022949 C379.561523,140.178223 379.479492,140.422852 379.479492,140.756836 C379.479492,141.084961 379.561523,141.32959 379.725586,141.490723 C379.889648,141.651855 380.094727,141.732422 380.34082,141.732422 Z M381.061523,153 L381.061523,143.367188 L379.602539,143.367188 L379.602539,153 L381.061523,153 Z M385.614258,157.324219 L385.614258,153.360352 C385.614258,152.856445 385.579102,152.323242 385.508789,151.760742 L385.508789,151.760742 L385.614258,151.760742 C385.96582,152.241211 386.400879,152.597168 386.919434,152.828613 C387.437988,153.060059 388.010742,153.175781 388.637695,153.175781 C389.891602,153.175781 390.871582,152.737793 391.577637,151.861816 C392.283691,150.98584 392.636719,149.756836 392.636719,148.174805 C392.636719,146.598633 392.289551,145.374023 391.595215,144.500977 C390.900879,143.62793 389.915039,143.191406 388.637695,143.191406 C387.993164,143.191406 387.421875,143.308594 386.923828,143.542969 C386.425781,143.777344 385.989258,144.158203 385.614258,144.685547 L385.614258,144.685547 L385.543945,144.685547 L385.341797,143.367188 L384.155273,143.367188 L384.155273,157.324219 L385.614258,157.324219 Z M388.461914,151.954102 C387.46582,151.954102 386.742188,151.662598 386.291016,151.07959 C385.839844,150.496582 385.614258,149.52832 385.614258,148.174805 L385.614258,148.174805 L385.614258,147.849609 C385.625977,146.660156 385.851562,145.792969 386.291016,145.248047 C386.730469,144.703125 387.442383,144.430664 388.426758,144.430664 C389.282227,144.430664 389.945801,144.751465 390.41748,145.393066 C390.88916,146.034668 391.125,146.956055 391.125,148.157227 C391.125,149.34082 390.88916,150.269531 390.41748,150.943359 C389.945801,151.617188 389.293945,151.954102 388.461914,151.954102 Z M35.3964844,181.175781 C36.375,181.175781 37.1865234,181.008789 37.8310547,180.674805 L37.8310547,180.674805 L37.8310547,179.382812 C36.9873047,179.728516 36.1640625,179.901367 35.3613281,179.901367 C34.4238281,179.901367 33.7163086,179.584961 33.2387695,178.952148 C32.7612305,178.319336 32.5224609,177.411133 32.5224609,176.227539 C32.5224609,173.731445 33.5009766,172.483398 35.4580078,172.483398 C35.7509766,172.483398 36.0878906,172.525879 36.46875,172.61084 C36.8496094,172.695801 37.2011719,172.802734 37.5234375,172.931641 L37.5234375,172.931641 L37.9716797,171.692383 C37.7080078,171.557617 37.3447266,171.44043 36.8818359,171.34082 C36.4189453,171.241211 35.9560547,171.191406 35.4931641,171.191406 C34.0576172,171.191406 32.9516602,171.630859 32.175293,172.509766 C31.3989258,173.388672 31.0107422,174.633789 31.0107422,176.245117 C31.0107422,177.81543 31.3930664,179.029785 32.1577148,179.888184 C32.9223633,180.746582 34.0019531,181.175781 35.3964844,181.175781 Z M42.4541016,181.175781 C43.1689453,181.175781 43.7651367,181.068848 44.2426758,180.85498 C44.7202148,180.641113 45.1992188,180.232422 45.6796875,179.628906 L45.6796875,179.628906 L45.75,179.628906 L46.0400391,181 L47.1210938,181 L47.1210938,174.425781 C47.1210938,173.300781 46.8442383,172.483398 46.2905273,171.973633 C45.7368164,171.463867 44.8857422,171.208984 43.7373047,171.208984 C43.1689453,171.208984 42.6020508,171.282227 42.0366211,171.428711 C41.4711914,171.575195 40.9511719,171.777344 40.4765625,172.035156 L40.4765625,172.035156 L40.9248047,173.151367 C41.9384766,172.65918 42.8466797,172.413086 43.6494141,172.413086 C44.3642578,172.413086 44.8842773,172.593262 45.2094727,172.953613 C45.534668,173.313965 45.6972656,173.87207 45.6972656,174.62793 L45.6972656,174.62793 L45.6972656,175.225586 L44.0625,175.27832 C40.9511719,175.37207 39.3955078,176.391602 39.3955078,178.336914 C39.3955078,179.245117 39.6665039,179.945312 40.2084961,180.4375 C40.7504883,180.929688 41.4990234,181.175781 42.4541016,181.175781 Z M42.7441406,179.97168 C42.1699219,179.97168 41.7231445,179.833984 41.4038086,179.558594 C41.0844727,179.283203 40.9248047,178.881836 40.9248047,178.354492 C40.9248047,177.680664 41.1811523,177.184082 41.6938477,176.864746 C42.206543,176.54541 43.0429688,176.365234 44.203125,176.324219 L44.203125,176.324219 L45.6621094,176.262695 L45.6621094,177.132812 C45.6621094,178.029297 45.402832,178.726562 44.8842773,179.224609 C44.3657227,179.722656 43.6523438,179.97168 42.7441406,179.97168 Z M51.5859375,181 L51.5859375,175.832031 C51.5859375,174.888672 51.862793,174.100586 52.4165039,173.467773 C52.9702148,172.834961 53.6367188,172.518555 54.4160156,172.518555 C54.7207031,172.518555 55.0722656,172.5625 55.4707031,172.650391 L55.4707031,172.650391 L55.6728516,171.296875 C55.3330078,171.226562 54.9492188,171.191406 54.5214844,171.191406 C53.9179688,171.191406 53.3642578,171.361328 52.8603516,171.701172 C52.3564453,172.041016 51.9257812,172.524414 51.5683594,173.151367 L51.5683594,173.151367 L51.4980469,173.151367 L51.3310547,171.367188 L50.1269531,171.367188 L50.1269531,181 L51.5859375,181 Z M60.5683594,181.175781 C61.9101562,181.175781 62.9179688,180.686523 63.5917969,179.708008 L63.5917969,179.708008 L63.6708984,179.708008 L63.8642578,181 L65.0507812,181 L65.0507812,167.324219 L63.5917969,167.324219 L63.5917969,171.244141 L63.6269531,171.920898 L63.6884766,172.615234 L63.5742188,172.615234 C62.8769531,171.666016 61.875,171.191406 60.5683594,171.191406 C59.3144531,171.191406 58.3359375,171.630859 57.6328125,172.509766 C56.9296875,173.388672 56.578125,174.62207 56.578125,176.209961 C56.578125,177.797852 56.9282227,179.022461 57.628418,179.883789 C58.3286133,180.745117 59.3085938,181.175781 60.5683594,181.175781 Z M60.7529297,179.954102 C59.8798828,179.954102 59.2177734,179.640625 58.7666016,179.013672 C58.3154297,178.386719 58.0898438,177.458008 58.0898438,176.227539 C58.0898438,175.014648 58.3168945,174.075684 58.7709961,173.410645 C59.2250977,172.745605 59.8798828,172.413086 60.7353516,172.413086 C61.7314453,172.413086 62.456543,172.70459 62.9106445,173.287598 C63.3647461,173.870605 63.5917969,174.844727 63.5917969,176.209961 L63.5917969,176.209961 L63.5917969,176.517578 C63.5917969,177.724609 63.3676758,178.599121 62.9194336,179.141113 C62.4711914,179.683105 61.7490234,179.954102 60.7529297,179.954102 Z M70.5439453,181.175781 C71.7509766,181.175781 72.6884766,180.932617 73.3564453,180.446289 C74.0244141,179.959961 74.3583984,179.268555 74.3583984,178.37207 C74.3583984,177.733398 74.1577148,177.203125 73.7563477,176.78125 C73.3549805,176.359375 72.5830078,175.94043 71.4404297,175.524414 C70.6083984,175.213867 70.0458984,174.976562 69.7529297,174.8125 C69.4599609,174.648438 69.2475586,174.475586 69.1157227,174.293945 C68.9838867,174.112305 68.9179688,173.892578 68.9179688,173.634766 C68.9179688,173.253906 69.09375,172.955078 69.4453125,172.738281 C69.796875,172.521484 70.3183594,172.413086 71.0097656,172.413086 C71.7949219,172.413086 72.6708984,172.612305 73.6376953,173.010742 L73.6376953,173.010742 L74.15625,171.824219 C73.1660156,171.402344 72.1523438,171.191406 71.1152344,171.191406 C70.0019531,171.191406 69.1259766,171.418457 68.4873047,171.872559 C67.8486328,172.32666 67.5292969,172.946289 67.5292969,173.731445 C67.5292969,174.170898 67.621582,174.548828 67.8061523,174.865234 C67.9907227,175.181641 68.2719727,175.464355 68.6499023,175.713379 C69.027832,175.962402 69.6650391,176.253906 70.5615234,176.587891 C71.5048828,176.951172 72.1391602,177.266113 72.4643555,177.532715 C72.7895508,177.799316 72.9521484,178.120117 72.9521484,178.495117 C72.9521484,178.993164 72.7470703,179.36377 72.3369141,179.606934 C71.9267578,179.850098 71.3408203,179.97168 70.5791016,179.97168 C70.0869141,179.97168 69.5756836,179.904297 69.0454102,179.769531 C68.5151367,179.634766 68.0185547,179.450195 67.5556641,179.21582 L67.5556641,179.21582 L67.5556641,180.569336 C68.2705078,180.973633 69.2666016,181.175781 70.5439453,181.175781 Z M78.8583984,177.458008 L78.8583984,177.167969 C78.8583984,176.611328 78.9536133,176.166016 79.144043,175.832031 C79.3344727,175.498047 79.7255859,175.079102 80.3173828,174.575195 C81.0556641,173.930664 81.5361328,173.463379 81.7587891,173.17334 C81.9814453,172.883301 82.1499023,172.575684 82.2641602,172.250488 C82.378418,171.925293 82.4355469,171.548828 82.4355469,171.121094 C82.4355469,170.119141 82.125,169.342773 81.5039062,168.791992 C80.8828125,168.241211 80.0126953,167.96582 78.8935547,167.96582 C77.6865234,167.96582 76.5292969,168.255859 75.421875,168.835938 L75.421875,168.835938 L75.9404297,170.022461 C76.5087891,169.735352 77.0126953,169.537598 77.4521484,169.429199 C77.8916016,169.320801 78.3427734,169.266602 78.8056641,169.266602 C79.5263672,169.266602 80.0786133,169.429199 80.4624023,169.754395 C80.8461914,170.07959 81.0380859,170.541016 81.0380859,171.138672 C81.0380859,171.619141 80.934082,172.029297 80.7260742,172.369141 C80.5180664,172.708984 80.015625,173.21582 79.21875,173.889648 C78.6445312,174.381836 78.2519531,174.849121 78.0410156,175.291504 C77.8300781,175.733887 77.7246094,176.297852 77.7246094,176.983398 L77.7246094,176.983398 L77.7246094,177.458008 L78.8583984,177.458008 Z M78.3486328,181.254883 C78.6826172,181.254883 78.9433594,181.150879 79.1308594,180.942871 C79.3183594,180.734863 79.4121094,180.443359 79.4121094,180.068359 C79.4121094,179.681641 79.3198242,179.385742 79.1352539,179.180664 C78.9506836,178.975586 78.6884766,178.873047 78.3486328,178.873047 C77.6455078,178.873047 77.2939453,179.271484 77.2939453,180.068359 C77.2939453,180.490234 77.3935547,180.793457 77.5927734,180.978027 C77.7919922,181.162598 78.0439453,181.254883 78.3486328,181.254883 Z" id="Couldyoumaybeaddchildfaresforthezipcards?" fill="#0D141F" fill-rule="nonzero"></path>
            </g>
        </g>
    </g>
</svg>