<?xml version="1.0" encoding="UTF-8"?>
<svg width="622px" height="690px" viewBox="0 0 622 690" version="1.1" xmlns="http://www.w3.org/2000/svg" xmlns:xlink="http://www.w3.org/1999/xlink">
    <!-- Generator: Sketch 63.1 (92452) - https://sketch.com -->
    <title>routes</title>
    <desc>Created with Sketch.</desc>
    <defs>
        <rect id="path-1" x="0" y="0" width="532.5" height="600" rx="48"></rect>
        <filter x="-12.7%" y="-11.2%" width="125.4%" height="122.5%" filterUnits="objectBoundingBox" id="filter-2">
            <feOffset dx="0" dy="0" in="SourceAlpha" result="shadowOffsetOuter1"></feOffset>
            <feGaussianBlur stdDeviation="22.5" in="shadowOffsetOuter1" result="shadowBlurOuter1"></feGaussianBlur>
            <feColorMatrix values="0 0 0 0 0   0 0 0 0 0   0 0 0 0 0  0 0 0 0.1 0" type="matrix" in="shadowBlurOuter1"></feColorMatrix>
        </filter>
    </defs>
    <g id="Web" stroke="none" stroke-width="1" fill="none" fill-rule="evenodd">
        <g id="web---desktop" transform="translate(-88.000000, -1195.000000)">
            <g id="routes" transform="translate(133.000000, 1240.000000)">
                <g id="Rectangle-Copy-6">
                    <use fill="black" fill-opacity="1" filter="url(#filter-2)" xlink:href="#path-1"></use>
                    <use fill="#FFFFFF" fill-rule="evenodd" xlink:href="#path-1"></use>
                </g>
                <g id="Group-2" transform="translate(396.000000, 340.500000)"></g>
                <text id="31-min" font-family="OpenSans-Bold, Open Sans" font-size="27" font-weight="bold" fill="#0C2BFF">
                    <tspan x="417.666016" y="303.5">31 min</tspan>
                </text>
                <rect id="Rectangle" fill="#0C2BFF" x="382.5" y="334.5" width="90" height="45" rx="7.5"></rect>
                <text id="£2.80" font-family="OpenSans-Bold, Open Sans" font-size="24" font-weight="bold" fill="#FFFFFF">
                    <tspan x="396" y="366.5">£2.80</tspan>
                </text>
                <g id="Group-3" transform="translate(382.500000, 459.000000)">
                    <text id="45-min" font-family="OpenSans-Bold, Open Sans" font-size="27" font-weight="bold" fill="#0C2BFF">
                        <tspan x="35.1660156" y="29">45 min</tspan>
                    </text>
                    <rect id="Rectangle-Copy-2" fill="#0C2BFF" x="0" y="60" width="90" height="45" rx="7.5"></rect>
                    <text id="£1.40" font-family="OpenSans-Bold, Open Sans" font-size="24" font-weight="bold" fill="#FFFFFF">
                        <tspan x="13.5" y="92">£1.40</tspan>
                    </text>
                </g>
                <text id="12:03-–-12:34" font-family="OpenSans-Regular, Open Sans" font-size="27" font-weight="normal" fill="#0D141F">
                    <tspan x="24" y="368">12:03 – 12:34 </tspan>
                </text>
                <text id="12:03-–-12:48" font-family="OpenSans-Regular, Open Sans" font-size="27" font-weight="normal" fill="#0D141F">
                    <tspan x="24" y="552.5">12:03 – 12:48</tspan>
                </text>
                <path d="M95.5475615,291.919269 L87.5807314,283.964294 C87.2873376,283.654722 86.9209698,283.5 86.4809005,283.5 C86.0408312,283.5 85.6744634,283.654893 85.3810696,283.964294 L84.4523957,284.880898 C84.1509127,285.182339 84.0001712,285.548749 84.0001712,285.980515 C84.0001712,286.404107 84.1508699,286.774883 84.4523957,287.092501 L90.3910206,293.019142 L84.4521389,298.957981 C84.1507415,299.259421 84,299.625832 84,300.057641 C84,300.481189 84.1506987,300.852094 84.4521389,301.169584 L85.3808984,302.08606 C85.6823386,302.3875 86.0490916,302.538199 86.4807293,302.538199 C86.9125383,302.538199 87.2792056,302.3875 87.5805602,302.08606 L95.5475615,294.131086 C95.8491301,293.813381 96,293.442691 96,293.019099 C96,292.587333 95.8491301,292.220709 95.5475615,291.919269 Z" id="Path-Copy-7" fill="#DDE0E8" fill-rule="nonzero"></path>
                <path d="M508.047561,356.419269 L500.080731,348.464294 C499.787338,348.154722 499.42097,348 498.980901,348 C498.540831,348 498.174463,348.154893 497.88107,348.464294 L496.952396,349.380898 C496.650913,349.682339 496.500171,350.048749 496.500171,350.480515 C496.500171,350.904107 496.65087,351.274883 496.952396,351.592501 L502.891021,357.519142 L496.952139,363.457981 C496.650742,363.759421 496.5,364.125832 496.5,364.557641 C496.5,364.981189 496.650699,365.352094 496.952139,365.669584 L497.880898,366.58606 C498.182339,366.8875 498.549092,367.038199 498.980729,367.038199 C499.412538,367.038199 499.779206,366.8875 500.08056,366.58606 L508.047561,358.631086 C508.34913,358.313381 508.5,357.942691 508.5,357.519099 C508.5,357.087333 508.34913,356.720709 508.047561,356.419269 Z" id="Path-Copy-8" fill="#0C2BFF" fill-rule="nonzero"></path>
                <path d="M508.047561,540.919269 L500.080731,532.964294 C499.787338,532.654722 499.42097,532.5 498.980901,532.5 C498.540831,532.5 498.174463,532.654893 497.88107,532.964294 L496.952396,533.880898 C496.650913,534.182339 496.500171,534.548749 496.500171,534.980515 C496.500171,535.404107 496.65087,535.774883 496.952396,536.092501 L502.891021,542.019142 L496.952139,547.957981 C496.650742,548.259421 496.5,548.625832 496.5,549.057641 C496.5,549.481189 496.650699,549.852094 496.952139,550.169584 L497.880898,551.08606 C498.182339,551.3875 498.549092,551.538199 498.980729,551.538199 C499.412538,551.538199 499.779206,551.3875 500.08056,551.08606 L508.047561,543.131086 C508.34913,542.813381 508.5,542.442691 508.5,542.019099 C508.5,541.587333 508.34913,541.220709 508.047561,540.919269 Z" id="Path-Copy-11" fill="#0C2BFF" fill-rule="nonzero"></path>
                <circle id="Oval" stroke="#FFFFFF" stroke-width="3" fill="#0098D8" fill-rule="nonzero" cx="48" cy="292.5" r="25.5"></circle>
                <circle id="Oval-Copy-2" stroke="#FFFFFF" stroke-width="3" fill="#DC241F" fill-rule="nonzero" cx="132" cy="292.5" r="25.5"></circle>
                <g id="Group-2-Copy-12" transform="translate(115.500000, 279.000000)">
                    <circle id="Oval" stroke="#FFFFFF" stroke-width="4.73846154" cx="16.5" cy="13.5" r="11.1307692"></circle>
                    <rect id="Rectangle" fill="#FFFFFF" x="0" y="10.5" width="33" height="6"></rect>
                </g>
                <g id="Group-2-Copy-12" transform="translate(31.500000, 279.000000)">
                    <circle id="Oval" stroke="#FFFFFF" stroke-width="4.73846154" cx="16.5" cy="13.5" r="11.1307692"></circle>
                    <rect id="Rectangle" fill="#FFFFFF" x="0" y="10.5" width="33" height="6"></rect>
                </g>
                <rect id="Rectangle" fill="#F4F6FD" x="24" y="415.5" width="484.5" height="1.5"></rect>
                <path d="M95.5475615,476.419269 L87.5807314,468.464294 C87.2873376,468.154722 86.9209698,468 86.4809005,468 C86.0408312,468 85.6744634,468.154893 85.3810696,468.464294 L84.4523957,469.380898 C84.1509127,469.682339 84.0001712,470.048749 84.0001712,470.480515 C84.0001712,470.904107 84.1508699,471.274883 84.4523957,471.592501 L90.3910206,477.519142 L84.4521389,483.457981 C84.1507415,483.759421 84,484.125832 84,484.557641 C84,484.981189 84.1506987,485.352094 84.4521389,485.669584 L85.3808984,486.58606 C85.6823386,486.8875 86.0490916,487.038199 86.4807293,487.038199 C86.9125383,487.038199 87.2792056,486.8875 87.5805602,486.58606 L95.5475615,478.631086 C95.8491301,478.313381 96,477.942691 96,477.519099 C96,477.087333 95.8491301,476.720709 95.5475615,476.419269 Z" id="Path-Copy-7" fill="#DDE0E8" fill-rule="nonzero"></path>
                <circle id="Oval" stroke="#FFFFFF" stroke-width="3" fill="#EF7B10" fill-rule="nonzero" cx="48" cy="477" r="25.5"></circle>
                <circle id="Oval-Copy-2" stroke="#FFFFFF" stroke-width="3" fill="#DC241F" fill-rule="nonzero" cx="132" cy="477" r="25.5"></circle>
                <g id="Group-2-Copy-12" transform="translate(115.500000, 463.500000)">
                    <circle id="Oval" stroke="#FFFFFF" stroke-width="4.73846154" cx="16.5" cy="13.5" r="11.1307692"></circle>
                    <rect id="Rectangle" fill="#FFFFFF" x="0" y="10.5" width="33" height="6"></rect>
                </g>
                <g id="Group-2-Copy-12" transform="translate(31.500000, 463.500000)">
                    <circle id="Oval" stroke="#FFFFFF" stroke-width="4.73846154" cx="16.5" cy="13.5" r="11.1307692"></circle>
                    <rect id="Rectangle" fill="#FFFFFF" x="0" y="10.5" width="33" height="6"></rect>
                </g>
                <path d="M48,0 L484.5,0 C511.009668,2.23568035e-15 532.5,21.490332 532.5,48 L532.5,139.5 L532.5,139.5 L0,139.5 L0,48 C-3.24649801e-15,21.490332 21.490332,4.86974701e-15 48,0 Z" id="Rectangle-Copy-9" fill="#0C2BFF"></path>
                <text id="Your-Route" font-family="OpenSans-Bold, Open Sans" font-size="27" font-weight="bold" fill="#FFFFFF">
                    <tspan x="190.5" y="81.5">Your Route</tspan>
                </text>
                <path d="M489.277489,57 L482.083138,64.1944356 L487.478923,64.1944356 L487.478923,76.7845714 C487.478923,78.7719906 485.869208,80.3817892 483.881705,80.3817892 C481.894286,80.3817892 480.284487,78.7720749 480.284487,76.7845714 L480.284487,64.1944356 C480.284487,60.228534 477.056037,57 473.090136,57 C469.124234,57 465.895785,60.228534 465.895785,64.1944356 L465.895785,76.7845714 L460.5,76.7845714 L467.694351,83.9789227 L474.888787,76.7845714 L469.493002,76.7845714 L469.493002,64.1944356 C469.493002,62.2070164 471.102717,60.5972178 473.09022,60.5972178 C475.077724,60.5972178 476.687354,62.2069321 476.687354,64.1944356 L476.687354,76.7845714 C476.687354,80.7504731 479.915803,83.9789227 483.881705,83.9789227 C487.847607,83.9789227 491.076056,80.7504731 491.076056,76.7845714 L491.076056,64.1944356 L496.471841,64.1944356 L489.277489,57 Z" id="route-switch" fill="#FFFFFF" fill-rule="nonzero"></path>
                <g id="arrow" transform="translate(36.000000, 57.000000)" fill="#FFFFFF" fill-rule="nonzero">
                    <path d="M24.2419816,0.380692283 C23.7515402,-0.126897428 22.935281,-0.126897428 22.4276913,0.380692283 C21.9372499,0.871133693 21.9372499,1.68739282 22.4276913,2.17669101 L31.6271832,11.3761829 L1.2701175,11.3761829 C0.562464274,11.3773261 0,11.9397904 0,12.6474436 C0,13.3550969 0.562464274,13.9358527 1.2701175,13.9358527 L31.6271832,13.9358527 L22.4276913,23.1181963 C21.9372499,23.625786 21.9372499,24.4431883 22.4276913,24.9324865 C22.935281,25.4400762 23.7526834,25.4400762 24.2419816,24.9324865 L35.6193077,13.5551604 C36.1268974,13.064719 36.1268974,12.2484598 35.6193077,11.7591616 L24.2419816,0.380692283 Z" id="Path" transform="translate(18.000000, 12.656589) scale(-1, 1) translate(-18.000000, -12.656589) "></path>
                </g>
                <polygon id="Background" fill="#F8F9FD" points="0 139.5 532.5 139.5 532.5 244.5 0 244.5"></polygon>
                <text id="Walthamstow-Central" font-family="OpenSans-Bold, Open Sans" font-size="21" font-weight="bold" fill="#0D141F">
                    <tspan x="88.5" y="185.5">Walthamstow </tspan>
                    <tspan x="88.5" y="213.5">Central</tspan>
                </text>
                <text id="Notting-Hill-Gate" font-family="OpenSans-Bold, Open Sans" font-size="21" font-weight="bold" fill="#0D141F">
                    <tspan x="318" y="185.5">Notting Hill Gate</tspan>
                </text>
                <text id="To" font-family="OpenSans-Regular, Open Sans" font-size="21" font-weight="normal" fill="#8A8A8A">
                    <tspan x="281.099121" y="185.5">To</tspan>
                </text>
                <text id="From" font-family="OpenSans-Regular, Open Sans" font-size="21" font-weight="normal" fill="#8A8A8A">
                    <tspan x="24" y="185.5">From</tspan>
                </text>
            </g>
        </g>
    </g>
</svg>