<?xml version="1.0" encoding="UTF-8"?>
<svg width="622px" height="888px" viewBox="0 0 622 888" version="1.1" xmlns="http://www.w3.org/2000/svg" xmlns:xlink="http://www.w3.org/1999/xlink">
    <!-- Generator: Sketch 63.1 (92452) - https://sketch.com -->
    <title>Group 4</title>
    <desc>Created with Sketch.</desc>
    <defs>
        <rect id="path-1" x="0" y="0" width="532.5" height="798" rx="48"></rect>
        <filter x="-12.7%" y="-8.5%" width="125.4%" height="116.9%" filterUnits="objectBoundingBox" id="filter-2">
            <feOffset dx="0" dy="0" in="SourceAlpha" result="shadowOffsetOuter1"></feOffset>
            <feGaussianBlur stdDeviation="22.5" in="shadowOffsetOuter1" result="shadowBlurOuter1"></feGaussianBlur>
            <feColorMatrix values="0 0 0 0 0   0 0 0 0 0   0 0 0 0 0  0 0 0 0.1 0" type="matrix" in="shadowBlurOuter1"></feColorMatrix>
        </filter>
    </defs>
    <g id="Web" stroke="none" stroke-width="1" fill="none" fill-rule="evenodd">
        <g id="web---desktop" transform="translate(-902.000000, -1988.000000)">
            <g id="Group-4" transform="translate(947.000000, 2033.000000)">
                <g id="Rectangle-Copy-4">
                    <use fill="black" fill-opacity="1" filter="url(#filter-2)" xlink:href="#path-1"></use>
                    <use fill="#FFFFFF" fill-rule="evenodd" xlink:href="#path-1"></use>
                </g>
                <rect id="Rectangle" fill="#0098D8" x="45" y="394.5" width="6" height="150"></rect>
                <rect id="Rectangle-Copy" fill="#E41F1F" x="45" y="564" width="6" height="150"></rect>
                <path d="M53.5475615,467.419269 L45.5807314,459.464294 C45.2873376,459.154722 44.9209698,459 44.4809005,459 C44.0408312,459 43.6744634,459.154893 43.3810696,459.464294 L42.4523957,460.380898 C42.1509127,460.682339 42.0001712,461.048749 42.0001712,461.480515 C42.0001712,461.904107 42.1508699,462.274883 42.4523957,462.592501 L48.3910206,468.519142 L42.4521389,474.457981 C42.1507415,474.759421 42,475.125832 42,475.557641 C42,475.981189 42.1506987,476.352094 42.4521389,476.669584 L43.3808984,477.58606 C43.6823386,477.8875 44.0490916,478.038199 44.4807293,478.038199 C44.9125383,478.038199 45.2792056,477.8875 45.5805602,477.58606 L53.5475615,469.631086 C53.8491301,469.313381 54,468.942691 54,468.519099 C54,468.087333 53.8491301,467.720709 53.5475615,467.419269 Z" id="Path-Copy-6" fill="#0098D8" fill-rule="nonzero" transform="translate(48.000000, 468.519099) rotate(90.000000) translate(-48.000000, -468.519099) "></path>
                <path d="M53.5475615,635.419269 L45.5807314,627.464294 C45.2873376,627.154722 44.9209698,627 44.4809005,627 C44.0408312,627 43.6744634,627.154893 43.3810696,627.464294 L42.4523957,628.380898 C42.1509127,628.682339 42.0001712,629.048749 42.0001712,629.480515 C42.0001712,629.904107 42.1508699,630.274883 42.4523957,630.592501 L48.3910206,636.519142 L42.4521389,642.457981 C42.1507415,642.759421 42,643.125832 42,643.557641 C42,643.981189 42.1506987,644.352094 42.4521389,644.669584 L43.3808984,645.58606 C43.6823386,645.8875 44.0490916,646.038199 44.4807293,646.038199 C44.9125383,646.038199 45.2792056,645.8875 45.5805602,645.58606 L53.5475615,637.631086 C53.8491301,637.313381 54,636.942691 54,636.519099 C54,636.087333 53.8491301,635.720709 53.5475615,635.419269 Z" id="Path-Copy-7" fill="#E41F1F" fill-rule="nonzero" transform="translate(48.000000, 636.519099) rotate(90.000000) translate(-48.000000, -636.519099) "></path>
                <text id="Walthamstow-Central" font-family="OpenSans-Bold, Open Sans" font-size="27" font-weight="bold" fill="#0D141F">
                    <tspan x="81" y="401">Walthamstow Central</tspan>
                </text>
                <text id="Oxford-Circus" font-family="OpenSans-Bold, Open Sans" font-size="27" font-weight="bold" fill="#0D141F">
                    <tspan x="81" y="564.5">Oxford Circus</tspan>
                </text>
                <text id="Notting-Hill-Gate" font-family="OpenSans-Bold, Open Sans" font-size="27" font-weight="bold" fill="#0D141F">
                    <tspan x="81" y="743">Notting Hill Gate</tspan>
                </text>
                <text id="Now" font-family="OpenSans-Bold, Open Sans" font-size="27" font-weight="bold" fill="#0C2BFF">
                    <tspan x="446.72168" y="401">Now</tspan>
                </text>
                <text id="12:34" font-family="OpenSans-Bold, Open Sans" font-size="27" font-weight="bold" fill="#0C2BFF">
                    <tspan x="438.654297" y="743">12:34</tspan>
                </text>
                <g id="Group-2-Copy" transform="translate(81.000000, 421.500000)">
                    <circle id="Oval" stroke="#E41F1F" stroke-width="5.5" fill="#FFFFFF" cx="16.5" cy="14.6666667" r="11.9166667"></circle>
                    <rect id="Rectangle" fill="#353C92" x="0" y="11" width="33" height="7.33333333"></rect>
                </g>
                <text id="Victoria-(Southbound" font-family="OpenSans-Regular, Open Sans" font-size="24" font-weight="normal" fill="#0D141F">
                    <tspan x="126" y="446">Victoria (Southbound)</tspan>
                </text>
                <text id="9-stops,-19-mins" font-family="OpenSans-Regular, Open Sans" font-size="24" font-weight="normal" fill="#8A8A8A">
                    <tspan x="81" y="482">9 stops, 19 mins</tspan>
                </text>
                <text id="5-stop,-8-mins" font-family="OpenSans-Regular, Open Sans" font-size="24" font-weight="normal" fill="#8A8A8A">
                    <tspan x="81" y="648.5">5 stop, 8 mins</tspan>
                </text>
                <text id="Wood-Green" font-family="OpenSans-Regular, Open Sans" font-size="24" font-weight="normal" fill="#0D141F">
                    <tspan x="126" y="611">Wood Green</tspan>
                </text>
                <circle id="Oval" stroke="#FFFFFF" stroke-width="3" fill="#0098D8" fill-rule="nonzero" cx="48" cy="385.5" r="10.5"></circle>
                <circle id="Oval-Copy" stroke="#FFFFFF" stroke-width="3" fill="#E41F1F" cx="48" cy="553.5" r="10.5"></circle>
                <circle id="Oval-Copy-3" stroke="#FFFFFF" stroke-width="3" fill="#F2F2F2" cx="48" cy="738" r="25.5"></circle>
                <text id="🎉" font-family="AppleColorEmoji, Apple Color Emoji" font-size="21" font-weight="normal" fill="#8A8A8A">
                    <tspan x="39.5" y="744.5">🎉</tspan>
                </text>
                <rect id="Rectangle" fill="#F8F9FD" x="0" y="139.5" width="532.5" height="171"></rect>
                <text id="31" font-family="OpenSans-Bold, Open Sans" font-size="48" font-weight="bold" fill="#0D141F">
                    <tspan x="48.3515625" y="226.5">31</tspan>
                </text>
                <text id="min" font-family="OpenSans-Regular, Open Sans" font-size="24" font-weight="normal" fill="#0D141F">
                    <tspan x="54.1875" y="266">min</tspan>
                </text>
                <text id="changes" font-family="OpenSans-Regular, Open Sans" font-size="24" font-weight="normal" fill="#0D141F">
                    <tspan x="220.851562" y="266">changes</tspan>
                </text>
                <text id="1" font-family="OpenSans-Bold, Open Sans" font-size="48" font-weight="bold" fill="#0D141F">
                    <tspan x="252.550781" y="226.5">1</tspan>
                </text>
                <text id="stops" font-family="OpenSans-Regular, Open Sans" font-size="24" font-weight="normal" fill="#0D141F">
                    <tspan x="422.712891" y="266">stops</tspan>
                </text>
                <text id="14" font-family="OpenSans-Bold, Open Sans" font-size="48" font-weight="bold" fill="#0D141F">
                    <tspan x="426.351562" y="226.5">14</tspan>
                </text>
                <rect id="Rectangle" fill="#0C2BFF" x="223.5" y="291" width="90" height="45" rx="7.5"></rect>
                <text id="£2.80" font-family="OpenSans-Bold, Open Sans" font-size="24" font-weight="bold" fill="#FFFFFF">
                    <tspan x="237" y="323">£2.80</tspan>
                </text>
                <g id="Group-2-Copy-2" transform="translate(81.000000, 586.500000)">
                    <circle id="Oval" stroke="#E41F1F" stroke-width="5.5" fill="#FFFFFF" cx="16.5" cy="14.6666667" r="11.9166667"></circle>
                    <rect id="Rectangle" fill="#353C92" x="0" y="11" width="33" height="7.33333333"></rect>
                </g>
                <path d="M48,0 L484.5,0 C511.009668,2.23568035e-15 532.5,21.490332 532.5,48 L532.5,139.5 L532.5,139.5 L0,139.5 L0,48 C-3.24649801e-15,21.490332 21.490332,4.86974701e-15 48,0 Z" id="Rectangle-Copy-9" fill="#0C2BFF"></path>
                <text id="Your-Route" font-family="OpenSans-Bold, Open Sans" font-size="27" font-weight="bold" fill="#FFFFFF">
                    <tspan x="190.5" y="81.5">Your Route</tspan>
                </text>
                <path d="M489.277489,57 L482.083138,64.1944356 L487.478923,64.1944356 L487.478923,76.7845714 C487.478923,78.7719906 485.869208,80.3817892 483.881705,80.3817892 C481.894286,80.3817892 480.284487,78.7720749 480.284487,76.7845714 L480.284487,64.1944356 C480.284487,60.228534 477.056037,57 473.090136,57 C469.124234,57 465.895785,60.228534 465.895785,64.1944356 L465.895785,76.7845714 L460.5,76.7845714 L467.694351,83.9789227 L474.888787,76.7845714 L469.493002,76.7845714 L469.493002,64.1944356 C469.493002,62.2070164 471.102717,60.5972178 473.09022,60.5972178 C475.077724,60.5972178 476.687354,62.2069321 476.687354,64.1944356 L476.687354,76.7845714 C476.687354,80.7504731 479.915803,83.9789227 483.881705,83.9789227 C487.847607,83.9789227 491.076056,80.7504731 491.076056,76.7845714 L491.076056,64.1944356 L496.471841,64.1944356 L489.277489,57 Z" id="route-switch" fill="#FFFFFF" fill-rule="nonzero"></path>
                <g id="arrow" transform="translate(36.000000, 57.000000)" fill="#FFFFFF" fill-rule="nonzero">
                    <path d="M24.2419816,0.380692283 C23.7515402,-0.126897428 22.935281,-0.126897428 22.4276913,0.380692283 C21.9372499,0.871133693 21.9372499,1.68739282 22.4276913,2.17669101 L31.6271832,11.3761829 L1.2701175,11.3761829 C0.562464274,11.3773261 0,11.9397904 0,12.6474436 C0,13.3550969 0.562464274,13.9358527 1.2701175,13.9358527 L31.6271832,13.9358527 L22.4276913,23.1181963 C21.9372499,23.625786 21.9372499,24.4431883 22.4276913,24.9324865 C22.935281,25.4400762 23.7526834,25.4400762 24.2419816,24.9324865 L35.6193077,13.5551604 C36.1268974,13.064719 36.1268974,12.2484598 35.6193077,11.7591616 L24.2419816,0.380692283 Z" id="Path" transform="translate(18.000000, 12.656589) scale(-1, 1) translate(-18.000000, -12.656589) "></path>
                </g>
            </g>
        </g>
    </g>
</svg>