<?xml version="1.0" encoding="UTF-8"?>
<svg width="537px" height="604px" viewBox="0 0 537 604" version="1.1" xmlns="http://www.w3.org/2000/svg" xmlns:xlink="http://www.w3.org/1999/xlink">
    <!-- Generator: Sketch 63.1 (92452) - https://sketch.com -->
    <title>routes</title>
    <desc>Created with Sketch.</desc>
    <g id="Web" stroke="none" stroke-width="1" fill="none" fill-rule="evenodd">
        <g id="web---desktop" transform="translate(-131.000000, -1238.000000)">
            <g id="routes" transform="translate(133.000000, 1240.000000)">
                <rect id="Rectangle-Copy-6" stroke="#F8F9FD" stroke-width="2" fill="#FFFFFF" x="-1" y="-1" width="534.5" height="602" rx="48"></rect>
                <g id="Group-2" transform="translate(396.000000, 340.500000)"></g>
                <rect id="Rectangle" fill="#0C2BFF" x="382.5" y="334.5" width="90" height="45" rx="7.5"></rect>
                <g id="Group-3" transform="translate(382.500000, 459.000000)" fill="#0C2BFF">
                    <rect id="Rectangle-Copy-2" x="0" y="60" width="90" height="45" rx="7.5"></rect>
                </g>
                <path d="M95.5475615,291.919269 L87.5807314,283.964294 C87.2873376,283.654722 86.9209698,283.5 86.4809005,283.5 C86.0408312,283.5 85.6744634,283.654893 85.3810696,283.964294 L84.4523957,284.880898 C84.1509127,285.182339 84.0001712,285.548749 84.0001712,285.980515 C84.0001712,286.404107 84.1508699,286.774883 84.4523957,287.092501 L90.3910206,293.019142 L84.4521389,298.957981 C84.1507415,299.259421 84,299.625832 84,300.057641 C84,300.481189 84.1506987,300.852094 84.4521389,301.169584 L85.3808984,302.08606 C85.6823386,302.3875 86.0490916,302.538199 86.4807293,302.538199 C86.9125383,302.538199 87.2792056,302.3875 87.5805602,302.08606 L95.5475615,294.131086 C95.8491301,293.813381 96,293.442691 96,293.019099 C96,292.587333 95.8491301,292.220709 95.5475615,291.919269 Z" id="Path-Copy-7" fill="#DDE0E8" fill-rule="nonzero"></path>
                <path d="M508.047561,356.419269 L500.080731,348.464294 C499.787338,348.154722 499.42097,348 498.980901,348 C498.540831,348 498.174463,348.154893 497.88107,348.464294 L496.952396,349.380898 C496.650913,349.682339 496.500171,350.048749 496.500171,350.480515 C496.500171,350.904107 496.65087,351.274883 496.952396,351.592501 L502.891021,357.519142 L496.952139,363.457981 C496.650742,363.759421 496.5,364.125832 496.5,364.557641 C496.5,364.981189 496.650699,365.352094 496.952139,365.669584 L497.880898,366.58606 C498.182339,366.8875 498.549092,367.038199 498.980729,367.038199 C499.412538,367.038199 499.779206,366.8875 500.08056,366.58606 L508.047561,358.631086 C508.34913,358.313381 508.5,357.942691 508.5,357.519099 C508.5,357.087333 508.34913,356.720709 508.047561,356.419269 Z" id="Path-Copy-8" fill="#0C2BFF" fill-rule="nonzero"></path>
                <path d="M508.047561,540.919269 L500.080731,532.964294 C499.787338,532.654722 499.42097,532.5 498.980901,532.5 C498.540831,532.5 498.174463,532.654893 497.88107,532.964294 L496.952396,533.880898 C496.650913,534.182339 496.500171,534.548749 496.500171,534.980515 C496.500171,535.404107 496.65087,535.774883 496.952396,536.092501 L502.891021,542.019142 L496.952139,547.957981 C496.650742,548.259421 496.5,548.625832 496.5,549.057641 C496.5,549.481189 496.650699,549.852094 496.952139,550.169584 L497.880898,551.08606 C498.182339,551.3875 498.549092,551.538199 498.980729,551.538199 C499.412538,551.538199 499.779206,551.3875 500.08056,551.08606 L508.047561,543.131086 C508.34913,542.813381 508.5,542.442691 508.5,542.019099 C508.5,541.587333 508.34913,541.220709 508.047561,540.919269 Z" id="Path-Copy-11" fill="#0C2BFF" fill-rule="nonzero"></path>
                <circle id="Oval" stroke="#FFFFFF" stroke-width="3" fill="#0098D8" fill-rule="nonzero" cx="48" cy="292.5" r="25.5"></circle>
                <circle id="Oval-Copy-2" stroke="#FFFFFF" stroke-width="3" fill="#DC241F" fill-rule="nonzero" cx="132" cy="292.5" r="25.5"></circle>
                <g id="Group-2-Copy-12" transform="translate(115.500000, 279.000000)">
                    <circle id="Oval" stroke="#FFFFFF" stroke-width="4.73846154" cx="16.5" cy="13.5" r="11.1307692"></circle>
                    <rect id="Rectangle" fill="#FFFFFF" x="0" y="10.5" width="33" height="6"></rect>
                </g>
                <g id="Group-2-Copy-12" transform="translate(31.500000, 279.000000)">
                    <circle id="Oval" stroke="#FFFFFF" stroke-width="4.73846154" cx="16.5" cy="13.5" r="11.1307692"></circle>
                    <rect id="Rectangle" fill="#FFFFFF" x="0" y="10.5" width="33" height="6"></rect>
                </g>
                <rect id="Rectangle" fill="#F4F6FD" x="24" y="415.5" width="484.5" height="1.5"></rect>
                <path d="M95.5475615,476.419269 L87.5807314,468.464294 C87.2873376,468.154722 86.9209698,468 86.4809005,468 C86.0408312,468 85.6744634,468.154893 85.3810696,468.464294 L84.4523957,469.380898 C84.1509127,469.682339 84.0001712,470.048749 84.0001712,470.480515 C84.0001712,470.904107 84.1508699,471.274883 84.4523957,471.592501 L90.3910206,477.519142 L84.4521389,483.457981 C84.1507415,483.759421 84,484.125832 84,484.557641 C84,484.981189 84.1506987,485.352094 84.4521389,485.669584 L85.3808984,486.58606 C85.6823386,486.8875 86.0490916,487.038199 86.4807293,487.038199 C86.9125383,487.038199 87.2792056,486.8875 87.5805602,486.58606 L95.5475615,478.631086 C95.8491301,478.313381 96,477.942691 96,477.519099 C96,477.087333 95.8491301,476.720709 95.5475615,476.419269 Z" id="Path-Copy-7" fill="#DDE0E8" fill-rule="nonzero"></path>
                <circle id="Oval" stroke="#FFFFFF" stroke-width="3" fill="#EF7B10" fill-rule="nonzero" cx="48" cy="477" r="25.5"></circle>
                <circle id="Oval-Copy-2" stroke="#FFFFFF" stroke-width="3" fill="#DC241F" fill-rule="nonzero" cx="132" cy="477" r="25.5"></circle>
                <g id="Group-2-Copy-12" transform="translate(115.500000, 463.500000)">
                    <circle id="Oval" stroke="#FFFFFF" stroke-width="4.73846154" cx="16.5" cy="13.5" r="11.1307692"></circle>
                    <rect id="Rectangle" fill="#FFFFFF" x="0" y="10.5" width="33" height="6"></rect>
                </g>
                <g id="Group-2-Copy-12" transform="translate(31.500000, 463.500000)">
                    <circle id="Oval" stroke="#FFFFFF" stroke-width="4.73846154" cx="16.5" cy="13.5" r="11.1307692"></circle>
                    <rect id="Rectangle" fill="#FFFFFF" x="0" y="10.5" width="33" height="6"></rect>
                </g>
                <path d="M48,0 L484.5,0 C511.009668,2.23568035e-15 532.5,21.490332 532.5,48 L532.5,139.5 L532.5,139.5 L0,139.5 L0,48 C-3.24649801e-15,21.490332 21.490332,4.86974701e-15 48,0 Z" id="Rectangle-Copy-9" fill="#0C2BFF"></path>
                <path d="M489.277489,57 L482.083138,64.1944356 L487.478923,64.1944356 L487.478923,76.7845714 C487.478923,78.7719906 485.869208,80.3817892 483.881705,80.3817892 C481.894286,80.3817892 480.284487,78.7720749 480.284487,76.7845714 L480.284487,64.1944356 C480.284487,60.228534 477.056037,57 473.090136,57 C469.124234,57 465.895785,60.228534 465.895785,64.1944356 L465.895785,76.7845714 L460.5,76.7845714 L467.694351,83.9789227 L474.888787,76.7845714 L469.493002,76.7845714 L469.493002,64.1944356 C469.493002,62.2070164 471.102717,60.5972178 473.09022,60.5972178 C475.077724,60.5972178 476.687354,62.2069321 476.687354,64.1944356 L476.687354,76.7845714 C476.687354,80.7504731 479.915803,83.9789227 483.881705,83.9789227 C487.847607,83.9789227 491.076056,80.7504731 491.076056,76.7845714 L491.076056,64.1944356 L496.471841,64.1944356 L489.277489,57 Z" id="route-switch" fill="#FFFFFF" fill-rule="nonzero"></path>
                <g id="arrow" transform="translate(36.000000, 57.000000)" fill="#FFFFFF" fill-rule="nonzero">
                    <path d="M24.2419816,0.380692283 C23.7515402,-0.126897428 22.935281,-0.126897428 22.4276913,0.380692283 C21.9372499,0.871133693 21.9372499,1.68739282 22.4276913,2.17669101 L31.6271832,11.3761829 L1.2701175,11.3761829 C0.562464274,11.3773261 0,11.9397904 0,12.6474436 C0,13.3550969 0.562464274,13.9358527 1.2701175,13.9358527 L31.6271832,13.9358527 L22.4276913,23.1181963 C21.9372499,23.625786 21.9372499,24.4431883 22.4276913,24.9324865 C22.935281,25.4400762 23.7526834,25.4400762 24.2419816,24.9324865 L35.6193077,13.5551604 C36.1268974,13.064719 36.1268974,12.2484598 35.6193077,11.7591616 L24.2419816,0.380692283 Z" id="Path" transform="translate(18.000000, 12.656589) scale(-1, 1) translate(-18.000000, -12.656589) "></path>
                </g>
                <polygon id="Background" fill="#F8F9FD" points="0 139.5 532.5 139.5 532.5 244.5 0 244.5"></polygon>
                <path d="M430.335449,488 L430.335449,484.005371 L432.655762,484.005371 L432.655762,480.841309 L430.335449,480.841309 L430.335449,468.725586 L426.578125,468.725586 L418.127441,481.170898 L418.127441,484.005371 L426.354004,484.005371 L426.354004,488 L430.335449,488 Z M426.354004,480.841309 L421.713379,480.841309 L425.246582,475.501953 C425.703613,474.816406 426.094727,474.113281 426.419922,473.392578 L426.419922,473.392578 L426.525391,473.392578 C426.499023,473.55957 426.463867,474.161621 426.419922,475.19873 C426.375977,476.23584 426.354004,477.026855 426.354004,477.571777 L426.354004,480.841309 Z M439.590332,488.263672 C442.060059,488.263672 443.958496,487.683594 445.285645,486.523438 C446.612793,485.363281 447.276367,483.706543 447.276367,481.553223 C447.276367,479.733887 446.724854,478.30127 445.621826,477.255371 C444.518799,476.209473 443.035645,475.686523 441.172363,475.686523 C440.381348,475.686523 439.717773,475.748047 439.181641,475.871094 L439.181641,475.871094 L438.720215,475.963379 L439.076172,472.179688 L445.958008,472.179688 L445.958008,468.725586 L435.503418,468.725586 L434.77832,478.547363 L436.399902,479.41748 C436.751465,479.312012 437.208496,479.213135 437.770996,479.12085 C438.333496,479.028564 438.847656,478.982422 439.313477,478.982422 C441.888672,478.982422 443.17627,479.953613 443.17627,481.895996 C443.17627,483.935059 441.932617,484.95459 439.445312,484.95459 C438.619141,484.95459 437.744629,484.838135 436.821777,484.605225 C435.898926,484.372314 435.090332,484.071289 434.395996,483.702148 L434.395996,483.702148 L434.395996,487.222168 C435.714355,487.916504 437.445801,488.263672 439.590332,488.263672 Z M461.633301,488 L461.633301,481.06543 C461.633301,479.333984 461.866211,478.090332 462.332031,477.334473 C462.797852,476.578613 463.544922,476.200684 464.573242,476.200684 C465.337891,476.200684 465.898193,476.466553 466.25415,476.998291 C466.610107,477.530029 466.788086,478.327637 466.788086,479.391113 L466.788086,479.391113 L466.788086,488 L470.809082,488 L470.809082,480.604004 C470.809082,479.074707 471.052979,477.958496 471.540771,477.255371 C472.028564,476.552246 472.764648,476.200684 473.749023,476.200684 C474.513672,476.200684 475.073975,476.466553 475.429932,476.998291 C475.785889,477.530029 475.963867,478.327637 475.963867,479.391113 L475.963867,479.391113 L475.963867,488 L479.998047,488 L479.998047,478.38916 C479.998047,476.499512 479.56958,475.126221 478.712646,474.269287 C477.855713,473.412354 476.592285,472.983887 474.922363,472.983887 C473.955566,472.983887 473.087646,473.172852 472.318604,473.550781 C471.549561,473.928711 470.967285,474.460449 470.571777,475.145996 L470.571777,475.145996 L470.21582,475.145996 C469.433594,473.70459 467.939453,472.983887 465.733398,472.983887 C464.766602,472.983887 463.909668,473.175049 463.162598,473.557373 C462.415527,473.939697 461.844238,474.469238 461.44873,475.145996 L461.44873,475.145996 L461.224609,475.145996 L460.684082,473.260742 L457.612305,473.260742 L457.612305,488 L461.633301,488 Z M486.141602,471.428223 C486.871094,471.428223 487.418213,471.254639 487.782959,470.907471 C488.147705,470.560303 488.330078,470.074707 488.330078,469.450684 C488.330078,468.141113 487.600586,467.486328 486.141602,467.486328 C484.682617,467.486328 483.953125,468.141113 483.953125,469.450684 C483.953125,470.769043 484.682617,471.428223 486.141602,471.428223 Z M488.145508,488 L488.145508,473.260742 L484.124512,473.260742 L484.124512,488 L488.145508,488 Z M496.385254,488 L496.385254,481.06543 C496.385254,479.325195 496.635742,478.079346 497.136719,477.327881 C497.637695,476.576416 498.450684,476.200684 499.575684,476.200684 C500.401855,476.200684 501.003906,476.466553 501.381836,476.998291 C501.759766,477.530029 501.94873,478.327637 501.94873,479.391113 L501.94873,479.391113 L501.94873,488 L505.969727,488 L505.969727,478.38916 C505.969727,476.640137 505.525879,475.302002 504.638184,474.374756 C503.750488,473.44751 502.449707,472.983887 500.73584,472.983887 C499.733887,472.983887 498.8396,473.16626 498.052979,473.531006 C497.266357,473.895752 496.648926,474.434082 496.200684,475.145996 L496.200684,475.145996 L495.976562,475.145996 L495.436035,473.260742 L492.364258,473.260742 L492.364258,488 L496.385254,488 Z" id="45min" fill="#0C2BFF" fill-rule="nonzero"></path>
                <path d="M409.242188,551 L409.242188,547.953125 L400.828125,547.953125 C402.007812,547.34375 402.597656,546.375 402.597656,545.046875 L402.597656,545.046875 L402.597656,543.371094 L406.992188,543.371094 L406.992188,540.804688 L402.597656,540.804688 L402.597656,538.542969 C402.597656,537.894531 402.761719,537.396484 403.089844,537.048828 C403.417969,536.701172 403.886719,536.527344 404.496094,536.527344 C405.394531,536.527344 406.457031,536.777344 407.683594,537.277344 L407.683594,537.277344 L408.773438,534.582031 C407.25,533.941406 405.726562,533.621094 404.203125,533.621094 C402.570312,533.621094 401.306641,534.044922 400.412109,534.892578 C399.517578,535.740234 399.070312,536.949219 399.070312,538.519531 L399.070312,538.519531 L399.070312,540.804688 L396.984375,540.804688 L396.984375,543.371094 L399.070312,543.371094 L399.070312,545.070312 C399.070312,545.851562 398.919922,546.464844 398.619141,546.910156 C398.318359,547.355469 397.765625,547.75 396.960938,548.09375 L396.960938,548.09375 L396.960938,551 L409.242188,551 Z M419.613281,551 L419.613281,533.867188 L416.636719,533.867188 L411.117188,538.261719 L412.863281,540.441406 L414.832031,538.859375 C415.066406,538.671875 415.484375,538.277344 416.085938,537.675781 L416.085938,537.675781 L416.027344,539.457031 L415.992188,541.085938 L415.992188,551 L419.613281,551 Z M426.832031,551.316406 C427.472656,551.316406 427.972656,551.138672 428.332031,550.783203 C428.691406,550.427734 428.871094,549.941406 428.871094,549.324219 C428.871094,548.683594 428.693359,548.191406 428.337891,547.847656 C427.982422,547.503906 427.480469,547.332031 426.832031,547.332031 C426.160156,547.332031 425.648438,547.5 425.296875,547.835938 C424.945312,548.171875 424.769531,548.667969 424.769531,549.324219 C424.769531,549.957031 424.949219,550.447266 425.308594,550.794922 C425.667969,551.142578 426.175781,551.316406 426.832031,551.316406 Z M441.503906,551 L441.503906,547.449219 L443.566406,547.449219 L443.566406,544.636719 L441.503906,544.636719 L441.503906,533.867188 L438.164062,533.867188 L430.652344,544.929688 L430.652344,547.449219 L437.964844,547.449219 L437.964844,551 L441.503906,551 Z M437.964844,544.636719 L433.839844,544.636719 L436.980469,539.890625 C437.386719,539.28125 437.734375,538.65625 438.023438,538.015625 L438.023438,538.015625 L438.117188,538.015625 C438.09375,538.164062 438.0625,538.699219 438.023438,539.621094 C437.984375,540.542969 437.964844,541.246094 437.964844,541.730469 L437.964844,541.730469 L437.964844,544.636719 Z M450.785156,551.234375 C452.824219,551.234375 454.333984,550.515625 455.314453,549.078125 C456.294922,547.640625 456.785156,545.425781 456.785156,542.433594 C456.785156,539.542969 456.279297,537.347656 455.267578,535.847656 C454.255859,534.347656 452.761719,533.597656 450.785156,533.597656 C448.753906,533.597656 447.25,534.314453 446.273438,535.748047 C445.296875,537.181641 444.808594,539.410156 444.808594,542.433594 C444.808594,545.332031 445.310547,547.523438 446.314453,549.007812 C447.318359,550.492188 448.808594,551.234375 450.785156,551.234375 Z M450.785156,548.316406 C449.925781,548.316406 449.314453,547.861328 448.951172,546.951172 C448.587891,546.041016 448.40625,544.535156 448.40625,542.433594 C448.40625,540.332031 448.589844,538.822266 448.957031,537.904297 C449.324219,536.986328 449.933594,536.527344 450.785156,536.527344 C451.621094,536.527344 452.228516,536.986328 452.607422,537.904297 C452.986328,538.822266 453.175781,540.332031 453.175781,542.433594 C453.175781,544.511719 452.988281,546.011719 452.613281,546.933594 C452.238281,547.855469 451.628906,548.316406 450.785156,548.316406 Z" id="£1.40" fill="#FFFFFF" fill-rule="nonzero"></path>
                <path d="M424.257812,303.763672 C426.753906,303.763672 428.674316,303.247314 430.019043,302.2146 C431.36377,301.181885 432.036133,299.738281 432.036133,297.883789 C432.036133,296.609375 431.63623,295.596436 430.836426,294.844971 C430.036621,294.093506 428.858887,293.621094 427.303223,293.427734 L427.303223,293.427734 L427.303223,293.348633 C428.621582,293.032227 429.645508,292.452148 430.375,291.608398 C431.104492,290.764648 431.469238,289.740723 431.469238,288.536621 C431.469238,287.095215 430.891357,285.970215 429.735596,285.161621 C428.579834,284.353027 427.004395,283.94873 425.009277,283.94873 C422.574707,283.94873 420.478516,284.581543 418.720703,285.847168 L418.720703,285.847168 L420.605957,288.655273 C421.405762,288.136719 422.133057,287.771973 422.787842,287.561035 C423.442627,287.350098 424.086426,287.244629 424.719238,287.244629 C426.547363,287.244629 427.461426,287.974121 427.461426,289.433105 C427.461426,290.382324 427.116455,291.05249 426.426514,291.443604 C425.736572,291.834717 424.644531,292.030273 423.150391,292.030273 L423.150391,292.030273 L421.660645,292.030273 L421.660645,295.154785 L423.124023,295.154785 C424.741211,295.154785 425.918945,295.34375 426.657227,295.72168 C427.395508,296.099609 427.764648,296.741211 427.764648,297.646484 C427.764648,298.657227 427.443848,299.391113 426.802246,299.848145 C426.160645,300.305176 425.16748,300.533691 423.822754,300.533691 C422.943848,300.533691 422.056152,300.415039 421.159668,300.177734 C420.263184,299.94043 419.441406,299.632812 418.694336,299.254883 L418.694336,299.254883 L418.694336,302.722168 C420.311523,303.416504 422.166016,303.763672 424.257812,303.763672 Z M444.230957,303.5 L444.230957,284.225586 L440.882324,284.225586 L434.672852,289.169434 L436.637207,291.621582 L438.852051,289.841797 C439.115723,289.630859 439.585938,289.187012 440.262695,288.510254 L440.262695,288.510254 L440.196777,290.51416 L440.157227,292.34668 L440.157227,303.5 L444.230957,303.5 Z M461.633301,303.5 L461.633301,296.56543 C461.633301,294.833984 461.866211,293.590332 462.332031,292.834473 C462.797852,292.078613 463.544922,291.700684 464.573242,291.700684 C465.337891,291.700684 465.898193,291.966553 466.25415,292.498291 C466.610107,293.030029 466.788086,293.827637 466.788086,294.891113 L466.788086,294.891113 L466.788086,303.5 L470.809082,303.5 L470.809082,296.104004 C470.809082,294.574707 471.052979,293.458496 471.540771,292.755371 C472.028564,292.052246 472.764648,291.700684 473.749023,291.700684 C474.513672,291.700684 475.073975,291.966553 475.429932,292.498291 C475.785889,293.030029 475.963867,293.827637 475.963867,294.891113 L475.963867,294.891113 L475.963867,303.5 L479.998047,303.5 L479.998047,293.88916 C479.998047,291.999512 479.56958,290.626221 478.712646,289.769287 C477.855713,288.912354 476.592285,288.483887 474.922363,288.483887 C473.955566,288.483887 473.087646,288.672852 472.318604,289.050781 C471.549561,289.428711 470.967285,289.960449 470.571777,290.645996 L470.571777,290.645996 L470.21582,290.645996 C469.433594,289.20459 467.939453,288.483887 465.733398,288.483887 C464.766602,288.483887 463.909668,288.675049 463.162598,289.057373 C462.415527,289.439697 461.844238,289.969238 461.44873,290.645996 L461.44873,290.645996 L461.224609,290.645996 L460.684082,288.760742 L457.612305,288.760742 L457.612305,303.5 L461.633301,303.5 Z M486.141602,286.928223 C486.871094,286.928223 487.418213,286.754639 487.782959,286.407471 C488.147705,286.060303 488.330078,285.574707 488.330078,284.950684 C488.330078,283.641113 487.600586,282.986328 486.141602,282.986328 C484.682617,282.986328 483.953125,283.641113 483.953125,284.950684 C483.953125,286.269043 484.682617,286.928223 486.141602,286.928223 Z M488.145508,303.5 L488.145508,288.760742 L484.124512,288.760742 L484.124512,303.5 L488.145508,303.5 Z M496.385254,303.5 L496.385254,296.56543 C496.385254,294.825195 496.635742,293.579346 497.136719,292.827881 C497.637695,292.076416 498.450684,291.700684 499.575684,291.700684 C500.401855,291.700684 501.003906,291.966553 501.381836,292.498291 C501.759766,293.030029 501.94873,293.827637 501.94873,294.891113 L501.94873,294.891113 L501.94873,303.5 L505.969727,303.5 L505.969727,293.88916 C505.969727,292.140137 505.525879,290.802002 504.638184,289.874756 C503.750488,288.94751 502.449707,288.483887 500.73584,288.483887 C499.733887,288.483887 498.8396,288.66626 498.052979,289.031006 C497.266357,289.395752 496.648926,289.934082 496.200684,290.645996 L496.200684,290.645996 L495.976562,290.645996 L495.436035,288.760742 L492.364258,288.760742 L492.364258,303.5 L496.385254,303.5 Z" id="31min" fill="#0C2BFF" fill-rule="nonzero"></path>
                <path d="M409.242188,366.5 L409.242188,363.453125 L400.828125,363.453125 C402.007812,362.84375 402.597656,361.875 402.597656,360.546875 L402.597656,360.546875 L402.597656,358.871094 L406.992188,358.871094 L406.992188,356.304688 L402.597656,356.304688 L402.597656,354.042969 C402.597656,353.394531 402.761719,352.896484 403.089844,352.548828 C403.417969,352.201172 403.886719,352.027344 404.496094,352.027344 C405.394531,352.027344 406.457031,352.277344 407.683594,352.777344 L407.683594,352.777344 L408.773438,350.082031 C407.25,349.441406 405.726562,349.121094 404.203125,349.121094 C402.570312,349.121094 401.306641,349.544922 400.412109,350.392578 C399.517578,351.240234 399.070312,352.449219 399.070312,354.019531 L399.070312,354.019531 L399.070312,356.304688 L396.984375,356.304688 L396.984375,358.871094 L399.070312,358.871094 L399.070312,360.570312 C399.070312,361.351562 398.919922,361.964844 398.619141,362.410156 C398.318359,362.855469 397.765625,363.25 396.960938,363.59375 L396.960938,363.59375 L396.960938,366.5 L409.242188,366.5 Z M422.636719,366.5 L422.636719,363.453125 L415.171875,363.453125 L415.171875,363.289062 L417.375,361.214844 C418.84375,359.871094 419.869141,358.835938 420.451172,358.109375 C421.033203,357.382812 421.462891,356.673828 421.740234,355.982422 C422.017578,355.291016 422.15625,354.550781 422.15625,353.761719 C422.15625,352.855469 421.929688,352.050781 421.476562,351.347656 C421.023438,350.644531 420.386719,350.097656 419.566406,349.707031 C418.746094,349.316406 417.800781,349.121094 416.730469,349.121094 C415.917969,349.121094 415.183594,349.201172 414.527344,349.361328 C413.871094,349.521484 413.265625,349.75 412.710938,350.046875 C412.15625,350.34375 411.457031,350.851562 410.613281,351.570312 L410.613281,351.570312 L412.582031,353.902344 C413.261719,353.339844 413.914062,352.90625 414.539062,352.601562 C415.164062,352.296875 415.808594,352.144531 416.472656,352.144531 C417.105469,352.144531 417.611328,352.3125 417.990234,352.648438 C418.369141,352.984375 418.558594,353.496094 418.558594,354.183594 C418.558594,354.644531 418.472656,355.089844 418.300781,355.519531 C418.128906,355.949219 417.847656,356.416016 417.457031,356.919922 C417.066406,357.423828 416.234375,358.328125 414.960938,359.632812 L414.960938,359.632812 L410.660156,363.980469 L410.660156,366.5 L422.636719,366.5 Z M426.832031,366.816406 C427.472656,366.816406 427.972656,366.638672 428.332031,366.283203 C428.691406,365.927734 428.871094,365.441406 428.871094,364.824219 C428.871094,364.183594 428.693359,363.691406 428.337891,363.347656 C427.982422,363.003906 427.480469,362.832031 426.832031,362.832031 C426.160156,362.832031 425.648438,363 425.296875,363.335938 C424.945312,363.671875 424.769531,364.167969 424.769531,364.824219 C424.769531,365.457031 424.949219,365.947266 425.308594,366.294922 C425.667969,366.642578 426.175781,366.816406 426.832031,366.816406 Z M437.109375,366.734375 C438.90625,366.734375 440.355469,366.306641 441.457031,365.451172 C442.558594,364.595703 443.109375,363.464844 443.109375,362.058594 C443.109375,361.167969 442.830078,360.349609 442.271484,359.603516 C441.712891,358.857422 440.792969,358.140625 439.511719,357.453125 C440.589844,356.914062 441.371094,356.302734 441.855469,355.619141 C442.339844,354.935547 442.582031,354.15625 442.582031,353.28125 C442.582031,352.015625 442.080078,351.009766 441.076172,350.263672 C440.072266,349.517578 438.75,349.144531 437.109375,349.144531 C435.476562,349.144531 434.152344,349.523438 433.136719,350.28125 C432.121094,351.039062 431.613281,352.03125 431.613281,353.257812 C431.613281,354.09375 431.828125,354.863281 432.257812,355.566406 C432.6875,356.269531 433.390625,356.929688 434.367188,357.546875 C433.21875,358.125 432.384766,358.792969 431.865234,359.550781 C431.345703,360.308594 431.085938,361.175781 431.085938,362.152344 C431.085938,363.613281 431.621094,364.742188 432.691406,365.539062 C433.761719,366.335938 435.234375,366.734375 437.109375,366.734375 Z M437.109375,355.941406 C436.320312,355.550781 435.775391,355.169922 435.474609,354.798828 C435.173828,354.427734 435.023438,354.007812 435.023438,353.539062 C435.023438,353.007812 435.212891,352.583984 435.591797,352.267578 C435.970703,351.951172 436.46875,351.792969 437.085938,351.792969 C437.695312,351.792969 438.195312,351.949219 438.585938,352.261719 C438.976562,352.574219 439.171875,353 439.171875,353.539062 C439.171875,354.03125 439.019531,354.464844 438.714844,354.839844 C438.410156,355.214844 437.875,355.582031 437.109375,355.941406 Z M437.0625,364.074219 C436.25,364.074219 435.609375,363.886719 435.140625,363.511719 C434.671875,363.136719 434.4375,362.613281 434.4375,361.941406 C434.4375,360.769531 435.269531,359.800781 436.933594,359.035156 C437.925781,359.550781 438.642578,360.037109 439.083984,360.494141 C439.525391,360.951172 439.746094,361.441406 439.746094,361.964844 C439.746094,362.597656 439.523438,363.107422 439.078125,363.494141 C438.632812,363.880859 437.960938,364.074219 437.0625,364.074219 Z M450.785156,366.734375 C452.824219,366.734375 454.333984,366.015625 455.314453,364.578125 C456.294922,363.140625 456.785156,360.925781 456.785156,357.933594 C456.785156,355.042969 456.279297,352.847656 455.267578,351.347656 C454.255859,349.847656 452.761719,349.097656 450.785156,349.097656 C448.753906,349.097656 447.25,349.814453 446.273438,351.248047 C445.296875,352.681641 444.808594,354.910156 444.808594,357.933594 C444.808594,360.832031 445.310547,363.023438 446.314453,364.507812 C447.318359,365.992188 448.808594,366.734375 450.785156,366.734375 Z M450.785156,363.816406 C449.925781,363.816406 449.314453,363.361328 448.951172,362.451172 C448.587891,361.541016 448.40625,360.035156 448.40625,357.933594 C448.40625,355.832031 448.589844,354.322266 448.957031,353.404297 C449.324219,352.486328 449.933594,352.027344 450.785156,352.027344 C451.621094,352.027344 452.228516,352.486328 452.607422,353.404297 C452.986328,354.322266 453.175781,355.832031 453.175781,357.933594 C453.175781,360.011719 452.988281,361.511719 452.613281,362.433594 C452.238281,363.355469 451.628906,363.816406 450.785156,363.816406 Z" id="£2.80" fill="#FFFFFF" fill-rule="nonzero"></path>
                <path d="M33.4262695,368 L33.4262695,348.725586 L31.5805664,348.725586 L26.4785156,352.66748 L27.6386719,354.17041 C29.5019531,352.658691 30.5478516,351.801758 30.7763672,351.599609 C31.0048828,351.397461 31.2114258,351.204102 31.3959961,351.019531 C31.3256836,352.039062 31.2905273,353.120117 31.2905273,354.262695 L31.2905273,354.262695 L31.2905273,368 L33.4262695,368 Z M53.4257812,368 L53.4257812,365.969727 L43.5117188,365.969727 L43.5117188,365.864258 L47.7304688,361.737793 C49.6113281,359.909668 50.8945312,358.397949 51.5800781,357.202637 C52.265625,356.007324 52.6083984,354.798828 52.6083984,353.577148 C52.6083984,352.012695 52.0942383,350.766846 51.065918,349.8396 C50.0375977,348.912354 48.6181641,348.44873 46.8076172,348.44873 C44.7158203,348.44873 42.7822266,349.187012 41.0068359,350.663574 L41.0068359,350.663574 L42.1669922,352.15332 C43.0458984,351.458984 43.8435059,350.97998 44.5598145,350.716309 C45.276123,350.452637 46.0341797,350.320801 46.8339844,350.320801 C47.9414062,350.320801 48.8071289,350.621826 49.4311523,351.223877 C50.0551758,351.825928 50.3671875,352.641113 50.3671875,353.669434 C50.3671875,354.398926 50.2441406,355.080078 49.9980469,355.712891 C49.7519531,356.345703 49.3828125,356.996094 48.890625,357.664062 C48.3984375,358.332031 47.3789062,359.448242 45.8320312,361.012695 L45.8320312,361.012695 L40.7563477,366.114746 L40.7563477,368 L53.4257812,368 Z M58.4355469,356.741211 C58.9365234,356.741211 59.3320312,356.587402 59.6220703,356.279785 C59.9121094,355.972168 60.0571289,355.532715 60.0571289,354.961426 C60.0571289,353.774902 59.5166016,353.181641 58.4355469,353.181641 C57.3984375,353.181641 56.8798828,353.774902 56.8798828,354.961426 C56.8798828,355.594238 57.0270996,356.049072 57.3215332,356.325928 C57.6159668,356.602783 57.9873047,356.741211 58.4355469,356.741211 Z M58.4355469,368.382324 C58.9365234,368.382324 59.3320312,368.228516 59.6220703,367.920898 C59.9121094,367.613281 60.0571289,367.173828 60.0571289,366.602539 C60.0571289,366.013672 59.9143066,365.567627 59.6286621,365.264404 C59.3430176,364.961182 58.9453125,364.80957 58.4355469,364.80957 C57.9345703,364.80957 57.5500488,364.961182 57.2819824,365.264404 C57.013916,365.567627 56.8798828,366.013672 56.8798828,366.602539 C56.8798828,367.235352 57.0270996,367.690186 57.3215332,367.967041 C57.6159668,368.243896 57.9873047,368.382324 58.4355469,368.382324 Z M69.7602539,368.263672 C71.9223633,368.263672 73.5285645,367.441895 74.5788574,365.79834 C75.6291504,364.154785 76.1542969,361.66748 76.1542969,358.336426 C76.1542969,355.119629 75.6115723,352.663086 74.526123,350.966797 C73.4406738,349.270508 71.8520508,348.422363 69.7602539,348.422363 C67.6157227,348.422363 66.0205078,349.235352 64.9746094,350.861328 C63.9287109,352.487305 63.4057617,354.979004 63.4057617,358.336426 C63.4057617,361.588379 63.9462891,364.055908 65.0273438,365.739014 C66.1083984,367.422119 67.6860352,368.263672 69.7602539,368.263672 Z M69.7602539,366.378418 C68.3188477,366.378418 67.2685547,365.739014 66.609375,364.460205 C65.9501953,363.181396 65.6206055,361.140137 65.6206055,358.336426 C65.6206055,355.532715 65.9501953,353.49585 66.609375,352.22583 C67.2685547,350.955811 68.3188477,350.320801 69.7602539,350.320801 C71.2192383,350.320801 72.276123,350.9646 72.9309082,352.252197 C73.5856934,353.539795 73.9130859,355.567871 73.9130859,358.336426 C73.9130859,361.10498 73.5856934,363.137451 72.9309082,364.433838 C72.276123,365.730225 71.2192383,366.378418 69.7602539,366.378418 Z M84.0117188,368.263672 C86.3583984,368.263672 88.1689453,367.769287 89.4433594,366.780518 C90.7177734,365.791748 91.3549805,364.378906 91.3549805,362.541992 C91.3549805,361.258789 90.9814453,360.22168 90.234375,359.430664 C89.4873047,358.639648 88.340332,358.147461 86.793457,357.954102 L86.793457,357.954102 L86.793457,357.848633 C88.059082,357.584961 89.0368652,357.062012 89.7268066,356.279785 C90.416748,355.497559 90.7617188,354.491211 90.7617188,353.260742 C90.7617188,351.766602 90.2431641,350.591064 89.2060547,349.734131 C88.1689453,348.877197 86.7143555,348.44873 84.8422852,348.44873 C83.699707,348.44873 82.6120605,348.626709 81.5793457,348.982666 C80.5466309,349.338623 79.6347656,349.828613 78.84375,350.452637 L78.84375,350.452637 L79.9511719,351.929199 C80.9091797,351.313965 81.7617188,350.89209 82.5087891,350.663574 C83.2558594,350.435059 84.0512695,350.320801 84.8950195,350.320801 C86.0024414,350.320801 86.8791504,350.588867 87.5251465,351.125 C88.1711426,351.661133 88.4941406,352.399414 88.4941406,353.339844 C88.4941406,354.517578 88.0546875,355.438232 87.1757812,356.101807 C86.296875,356.765381 85.105957,357.097168 83.6030273,357.097168 L83.6030273,357.097168 L81.6782227,357.097168 L81.6782227,358.982422 L83.5766602,358.982422 C87.2504883,358.982422 89.0874023,360.151367 89.0874023,362.489258 C89.0874023,365.099609 87.421875,366.404785 84.0908203,366.404785 C83.2470703,366.404785 82.3527832,366.297119 81.407959,366.081787 C80.4631348,365.866455 79.5732422,365.552246 78.7382812,365.13916 L78.7382812,365.13916 L78.7382812,367.222168 C79.5380859,367.608887 80.3620605,367.87915 81.2102051,368.032959 C82.0583496,368.186768 82.9921875,368.263672 84.0117188,368.263672 Z M112.369629,361.76416 L112.369629,359.760254 L101.031738,359.760254 L101.031738,361.76416 L112.369629,361.76416 Z M129.890625,368 L129.890625,348.725586 L128.044922,348.725586 L122.942871,352.66748 L124.103027,354.17041 C125.966309,352.658691 127.012207,351.801758 127.240723,351.599609 C127.469238,351.397461 127.675781,351.204102 127.860352,351.019531 C127.790039,352.039062 127.754883,353.120117 127.754883,354.262695 L127.754883,354.262695 L127.754883,368 L129.890625,368 Z M149.890137,368 L149.890137,365.969727 L139.976074,365.969727 L139.976074,365.864258 L144.194824,361.737793 C146.075684,359.909668 147.358887,358.397949 148.044434,357.202637 C148.72998,356.007324 149.072754,354.798828 149.072754,353.577148 C149.072754,352.012695 148.558594,350.766846 147.530273,349.8396 C146.501953,348.912354 145.08252,348.44873 143.271973,348.44873 C141.180176,348.44873 139.246582,349.187012 137.471191,350.663574 L137.471191,350.663574 L138.631348,352.15332 C139.510254,351.458984 140.307861,350.97998 141.02417,350.716309 C141.740479,350.452637 142.498535,350.320801 143.29834,350.320801 C144.405762,350.320801 145.271484,350.621826 145.895508,351.223877 C146.519531,351.825928 146.831543,352.641113 146.831543,353.669434 C146.831543,354.398926 146.708496,355.080078 146.462402,355.712891 C146.216309,356.345703 145.847168,356.996094 145.35498,357.664062 C144.862793,358.332031 143.843262,359.448242 142.296387,361.012695 L142.296387,361.012695 L137.220703,366.114746 L137.220703,368 L149.890137,368 Z M154.899902,356.741211 C155.400879,356.741211 155.796387,356.587402 156.086426,356.279785 C156.376465,355.972168 156.521484,355.532715 156.521484,354.961426 C156.521484,353.774902 155.980957,353.181641 154.899902,353.181641 C153.862793,353.181641 153.344238,353.774902 153.344238,354.961426 C153.344238,355.594238 153.491455,356.049072 153.785889,356.325928 C154.080322,356.602783 154.45166,356.741211 154.899902,356.741211 Z M154.899902,368.382324 C155.400879,368.382324 155.796387,368.228516 156.086426,367.920898 C156.376465,367.613281 156.521484,367.173828 156.521484,366.602539 C156.521484,366.013672 156.378662,365.567627 156.093018,365.264404 C155.807373,364.961182 155.409668,364.80957 154.899902,364.80957 C154.398926,364.80957 154.014404,364.961182 153.746338,365.264404 C153.478271,365.567627 153.344238,366.013672 153.344238,366.602539 C153.344238,367.235352 153.491455,367.690186 153.785889,367.967041 C154.080322,368.243896 154.45166,368.382324 154.899902,368.382324 Z M165.038086,368.263672 C167.384766,368.263672 169.195312,367.769287 170.469727,366.780518 C171.744141,365.791748 172.381348,364.378906 172.381348,362.541992 C172.381348,361.258789 172.007812,360.22168 171.260742,359.430664 C170.513672,358.639648 169.366699,358.147461 167.819824,357.954102 L167.819824,357.954102 L167.819824,357.848633 C169.085449,357.584961 170.063232,357.062012 170.753174,356.279785 C171.443115,355.497559 171.788086,354.491211 171.788086,353.260742 C171.788086,351.766602 171.269531,350.591064 170.232422,349.734131 C169.195312,348.877197 167.740723,348.44873 165.868652,348.44873 C164.726074,348.44873 163.638428,348.626709 162.605713,348.982666 C161.572998,349.338623 160.661133,349.828613 159.870117,350.452637 L159.870117,350.452637 L160.977539,351.929199 C161.935547,351.313965 162.788086,350.89209 163.535156,350.663574 C164.282227,350.435059 165.077637,350.320801 165.921387,350.320801 C167.028809,350.320801 167.905518,350.588867 168.551514,351.125 C169.19751,351.661133 169.520508,352.399414 169.520508,353.339844 C169.520508,354.517578 169.081055,355.438232 168.202148,356.101807 C167.323242,356.765381 166.132324,357.097168 164.629395,357.097168 L164.629395,357.097168 L162.70459,357.097168 L162.70459,358.982422 L164.603027,358.982422 C168.276855,358.982422 170.11377,360.151367 170.11377,362.489258 C170.11377,365.099609 168.448242,366.404785 165.117188,366.404785 C164.273438,366.404785 163.37915,366.297119 162.434326,366.081787 C161.489502,365.866455 160.599609,365.552246 159.764648,365.13916 L159.764648,365.13916 L159.764648,367.222168 C160.564453,367.608887 161.388428,367.87915 162.236572,368.032959 C163.084717,368.186768 164.018555,368.263672 165.038086,368.263672 Z M186,368 L186,363.570312 L188.86084,363.570312 L188.86084,361.57959 L186,361.57959 L186,348.620117 L183.679688,348.620117 L174.530273,361.658691 L174.530273,363.570312 L183.903809,363.570312 L183.903809,368 L186,368 Z M183.903809,361.57959 L176.71875,361.57959 L182.743652,353.010254 C183.112793,352.456543 183.508301,351.757812 183.930176,350.914062 L183.930176,350.914062 L184.035645,350.914062 C183.947754,352.496094 183.903809,353.915527 183.903809,355.172363 L183.903809,355.172363 L183.903809,361.57959 Z" id="12:03–12:34" fill="#0D141F" fill-rule="nonzero"></path>
                <path d="M33.4262695,552.5 L33.4262695,533.225586 L31.5805664,533.225586 L26.4785156,537.16748 L27.6386719,538.67041 C29.5019531,537.158691 30.5478516,536.301758 30.7763672,536.099609 C31.0048828,535.897461 31.2114258,535.704102 31.3959961,535.519531 C31.3256836,536.539062 31.2905273,537.620117 31.2905273,538.762695 L31.2905273,538.762695 L31.2905273,552.5 L33.4262695,552.5 Z M53.4257812,552.5 L53.4257812,550.469727 L43.5117188,550.469727 L43.5117188,550.364258 L47.7304688,546.237793 C49.6113281,544.409668 50.8945312,542.897949 51.5800781,541.702637 C52.265625,540.507324 52.6083984,539.298828 52.6083984,538.077148 C52.6083984,536.512695 52.0942383,535.266846 51.065918,534.3396 C50.0375977,533.412354 48.6181641,532.94873 46.8076172,532.94873 C44.7158203,532.94873 42.7822266,533.687012 41.0068359,535.163574 L41.0068359,535.163574 L42.1669922,536.65332 C43.0458984,535.958984 43.8435059,535.47998 44.5598145,535.216309 C45.276123,534.952637 46.0341797,534.820801 46.8339844,534.820801 C47.9414062,534.820801 48.8071289,535.121826 49.4311523,535.723877 C50.0551758,536.325928 50.3671875,537.141113 50.3671875,538.169434 C50.3671875,538.898926 50.2441406,539.580078 49.9980469,540.212891 C49.7519531,540.845703 49.3828125,541.496094 48.890625,542.164062 C48.3984375,542.832031 47.3789062,543.948242 45.8320312,545.512695 L45.8320312,545.512695 L40.7563477,550.614746 L40.7563477,552.5 L53.4257812,552.5 Z M58.4355469,541.241211 C58.9365234,541.241211 59.3320312,541.087402 59.6220703,540.779785 C59.9121094,540.472168 60.0571289,540.032715 60.0571289,539.461426 C60.0571289,538.274902 59.5166016,537.681641 58.4355469,537.681641 C57.3984375,537.681641 56.8798828,538.274902 56.8798828,539.461426 C56.8798828,540.094238 57.0270996,540.549072 57.3215332,540.825928 C57.6159668,541.102783 57.9873047,541.241211 58.4355469,541.241211 Z M58.4355469,552.882324 C58.9365234,552.882324 59.3320312,552.728516 59.6220703,552.420898 C59.9121094,552.113281 60.0571289,551.673828 60.0571289,551.102539 C60.0571289,550.513672 59.9143066,550.067627 59.6286621,549.764404 C59.3430176,549.461182 58.9453125,549.30957 58.4355469,549.30957 C57.9345703,549.30957 57.5500488,549.461182 57.2819824,549.764404 C57.013916,550.067627 56.8798828,550.513672 56.8798828,551.102539 C56.8798828,551.735352 57.0270996,552.190186 57.3215332,552.467041 C57.6159668,552.743896 57.9873047,552.882324 58.4355469,552.882324 Z M69.7602539,552.763672 C71.9223633,552.763672 73.5285645,551.941895 74.5788574,550.29834 C75.6291504,548.654785 76.1542969,546.16748 76.1542969,542.836426 C76.1542969,539.619629 75.6115723,537.163086 74.526123,535.466797 C73.4406738,533.770508 71.8520508,532.922363 69.7602539,532.922363 C67.6157227,532.922363 66.0205078,533.735352 64.9746094,535.361328 C63.9287109,536.987305 63.4057617,539.479004 63.4057617,542.836426 C63.4057617,546.088379 63.9462891,548.555908 65.0273438,550.239014 C66.1083984,551.922119 67.6860352,552.763672 69.7602539,552.763672 Z M69.7602539,550.878418 C68.3188477,550.878418 67.2685547,550.239014 66.609375,548.960205 C65.9501953,547.681396 65.6206055,545.640137 65.6206055,542.836426 C65.6206055,540.032715 65.9501953,537.99585 66.609375,536.72583 C67.2685547,535.455811 68.3188477,534.820801 69.7602539,534.820801 C71.2192383,534.820801 72.276123,535.4646 72.9309082,536.752197 C73.5856934,538.039795 73.9130859,540.067871 73.9130859,542.836426 C73.9130859,545.60498 73.5856934,547.637451 72.9309082,548.933838 C72.276123,550.230225 71.2192383,550.878418 69.7602539,550.878418 Z M84.0117188,552.763672 C86.3583984,552.763672 88.1689453,552.269287 89.4433594,551.280518 C90.7177734,550.291748 91.3549805,548.878906 91.3549805,547.041992 C91.3549805,545.758789 90.9814453,544.72168 90.234375,543.930664 C89.4873047,543.139648 88.340332,542.647461 86.793457,542.454102 L86.793457,542.454102 L86.793457,542.348633 C88.059082,542.084961 89.0368652,541.562012 89.7268066,540.779785 C90.416748,539.997559 90.7617188,538.991211 90.7617188,537.760742 C90.7617188,536.266602 90.2431641,535.091064 89.2060547,534.234131 C88.1689453,533.377197 86.7143555,532.94873 84.8422852,532.94873 C83.699707,532.94873 82.6120605,533.126709 81.5793457,533.482666 C80.5466309,533.838623 79.6347656,534.328613 78.84375,534.952637 L78.84375,534.952637 L79.9511719,536.429199 C80.9091797,535.813965 81.7617188,535.39209 82.5087891,535.163574 C83.2558594,534.935059 84.0512695,534.820801 84.8950195,534.820801 C86.0024414,534.820801 86.8791504,535.088867 87.5251465,535.625 C88.1711426,536.161133 88.4941406,536.899414 88.4941406,537.839844 C88.4941406,539.017578 88.0546875,539.938232 87.1757812,540.601807 C86.296875,541.265381 85.105957,541.597168 83.6030273,541.597168 L83.6030273,541.597168 L81.6782227,541.597168 L81.6782227,543.482422 L83.5766602,543.482422 C87.2504883,543.482422 89.0874023,544.651367 89.0874023,546.989258 C89.0874023,549.599609 87.421875,550.904785 84.0908203,550.904785 C83.2470703,550.904785 82.3527832,550.797119 81.407959,550.581787 C80.4631348,550.366455 79.5732422,550.052246 78.7382812,549.63916 L78.7382812,549.63916 L78.7382812,551.722168 C79.5380859,552.108887 80.3620605,552.37915 81.2102051,552.532959 C82.0583496,552.686768 82.9921875,552.763672 84.0117188,552.763672 Z M112.369629,546.26416 L112.369629,544.260254 L101.031738,544.260254 L101.031738,546.26416 L112.369629,546.26416 Z M129.890625,552.5 L129.890625,533.225586 L128.044922,533.225586 L122.942871,537.16748 L124.103027,538.67041 C125.966309,537.158691 127.012207,536.301758 127.240723,536.099609 C127.469238,535.897461 127.675781,535.704102 127.860352,535.519531 C127.790039,536.539062 127.754883,537.620117 127.754883,538.762695 L127.754883,538.762695 L127.754883,552.5 L129.890625,552.5 Z M149.890137,552.5 L149.890137,550.469727 L139.976074,550.469727 L139.976074,550.364258 L144.194824,546.237793 C146.075684,544.409668 147.358887,542.897949 148.044434,541.702637 C148.72998,540.507324 149.072754,539.298828 149.072754,538.077148 C149.072754,536.512695 148.558594,535.266846 147.530273,534.3396 C146.501953,533.412354 145.08252,532.94873 143.271973,532.94873 C141.180176,532.94873 139.246582,533.687012 137.471191,535.163574 L137.471191,535.163574 L138.631348,536.65332 C139.510254,535.958984 140.307861,535.47998 141.02417,535.216309 C141.740479,534.952637 142.498535,534.820801 143.29834,534.820801 C144.405762,534.820801 145.271484,535.121826 145.895508,535.723877 C146.519531,536.325928 146.831543,537.141113 146.831543,538.169434 C146.831543,538.898926 146.708496,539.580078 146.462402,540.212891 C146.216309,540.845703 145.847168,541.496094 145.35498,542.164062 C144.862793,542.832031 143.843262,543.948242 142.296387,545.512695 L142.296387,545.512695 L137.220703,550.614746 L137.220703,552.5 L149.890137,552.5 Z M154.899902,541.241211 C155.400879,541.241211 155.796387,541.087402 156.086426,540.779785 C156.376465,540.472168 156.521484,540.032715 156.521484,539.461426 C156.521484,538.274902 155.980957,537.681641 154.899902,537.681641 C153.862793,537.681641 153.344238,538.274902 153.344238,539.461426 C153.344238,540.094238 153.491455,540.549072 153.785889,540.825928 C154.080322,541.102783 154.45166,541.241211 154.899902,541.241211 Z M154.899902,552.882324 C155.400879,552.882324 155.796387,552.728516 156.086426,552.420898 C156.376465,552.113281 156.521484,551.673828 156.521484,551.102539 C156.521484,550.513672 156.378662,550.067627 156.093018,549.764404 C155.807373,549.461182 155.409668,549.30957 154.899902,549.30957 C154.398926,549.30957 154.014404,549.461182 153.746338,549.764404 C153.478271,550.067627 153.344238,550.513672 153.344238,551.102539 C153.344238,551.735352 153.491455,552.190186 153.785889,552.467041 C154.080322,552.743896 154.45166,552.882324 154.899902,552.882324 Z M170.562012,552.5 L170.562012,548.070312 L173.422852,548.070312 L173.422852,546.07959 L170.562012,546.07959 L170.562012,533.120117 L168.241699,533.120117 L159.092285,546.158691 L159.092285,548.070312 L168.46582,548.070312 L168.46582,552.5 L170.562012,552.5 Z M168.46582,546.07959 L161.280762,546.07959 L167.305664,537.510254 C167.674805,536.956543 168.070312,536.257812 168.492188,535.414062 L168.492188,535.414062 L168.597656,535.414062 C168.509766,536.996094 168.46582,538.415527 168.46582,539.672363 L168.46582,539.672363 L168.46582,546.07959 Z M181.741699,552.763672 C183.684082,552.763672 185.213379,552.286865 186.32959,551.333252 C187.445801,550.379639 188.003906,549.103027 188.003906,547.503418 C188.003906,546.422363 187.674316,545.470947 187.015137,544.64917 C186.355957,543.827393 185.244141,543.042969 183.679688,542.295898 C184.97168,541.654297 185.912109,540.942383 186.500977,540.160156 C187.089844,539.37793 187.384277,538.512207 187.384277,537.562988 C187.384277,536.121582 186.870117,534.992188 185.841797,534.174805 C184.813477,533.357422 183.42041,532.94873 181.662598,532.94873 C179.931152,532.94873 178.549072,533.364014 177.516357,534.19458 C176.483643,535.025146 175.967285,536.13916 175.967285,537.536621 C175.967285,538.520996 176.230957,539.410889 176.758301,540.206299 C177.285645,541.001709 178.155762,541.742188 179.368652,542.427734 C176.679199,543.658203 175.334473,545.376465 175.334473,547.58252 C175.334473,549.234863 175.888184,550.511475 176.995605,551.412354 C178.103027,552.313232 179.685059,552.763672 181.741699,552.763672 Z M181.768066,541.452148 C180.370605,540.87207 179.412598,540.291992 178.894043,539.711914 C178.375488,539.131836 178.116211,538.4375 178.116211,537.628906 C178.116211,536.75 178.428223,536.046875 179.052246,535.519531 C179.67627,534.992188 180.537598,534.728516 181.63623,534.728516 C182.752441,534.728516 183.62915,534.98999 184.266357,535.512939 C184.903564,536.035889 185.222168,536.741211 185.222168,537.628906 C185.222168,538.4375 184.960693,539.14502 184.437744,539.751465 C183.914795,540.35791 183.024902,540.924805 181.768066,541.452148 Z M181.688965,550.983887 C180.361816,550.983887 179.331299,550.689453 178.597412,550.100586 C177.863525,549.511719 177.496582,548.689941 177.496582,547.635254 C177.496582,546.686035 177.791016,545.87085 178.379883,545.189697 C178.96875,544.508545 179.917969,543.886719 181.227539,543.324219 C182.932617,543.948242 184.12793,544.592041 184.813477,545.255615 C185.499023,545.919189 185.841797,546.677246 185.841797,547.529785 C185.841797,548.602051 185.477051,549.445801 184.747559,550.061035 C184.018066,550.67627 182.998535,550.983887 181.688965,550.983887 Z" id="12:03–12:48" fill="#0D141F" fill-rule="nonzero"></path>
                <path d="M200.95459,81.5 L200.95459,73.9985352 L207.348633,62.2255859 L202.945312,62.2255859 L198.924316,70.1621094 L194.929688,62.2255859 L190.5,62.2255859 L196.894043,74.1303711 L196.894043,81.5 L200.95459,81.5 Z M215.66748,81.7636719 C217.92627,81.7636719 219.688477,81.0869141 220.954102,79.7333984 C222.219727,78.3798828 222.852539,76.503418 222.852539,74.1040039 C222.852539,72.5571289 222.5625,71.2080078 221.982422,70.0566406 C221.402344,68.9052734 220.571777,68.0219727 219.490723,67.4067383 C218.409668,66.7915039 217.161621,66.4838867 215.746582,66.4838867 C213.470215,66.4838867 211.703613,67.1518555 210.446777,68.487793 C209.189941,69.8237305 208.561523,71.6958008 208.561523,74.1040039 C208.561523,75.6508789 208.851562,77.0043945 209.431641,78.1645508 C210.011719,79.324707 210.842285,80.2145996 211.92334,80.8342285 C213.004395,81.4538574 214.252441,81.7636719 215.66748,81.7636719 Z M215.720215,78.5336914 C214.63916,78.5336914 213.859131,78.1601562 213.380127,77.4130859 C212.901123,76.6660156 212.661621,75.5629883 212.661621,74.1040039 C212.661621,72.6362305 212.898926,71.5397949 213.373535,70.8146973 C213.848145,70.0895996 214.621582,69.7270508 215.693848,69.7270508 C216.774902,69.7270508 217.552734,70.0917969 218.027344,70.8212891 C218.501953,71.5507812 218.739258,72.6450195 218.739258,74.1040039 C218.739258,75.5717773 218.50415,76.677002 218.033936,77.4196777 C217.563721,78.1623535 216.79248,78.5336914 215.720215,78.5336914 Z M231.32959,81.7636719 C232.340332,81.7636719 233.241211,81.5769043 234.032227,81.2033691 C234.823242,80.829834 235.434082,80.300293 235.864746,79.6147461 L235.864746,79.6147461 L236.075684,79.6147461 L236.616211,81.5 L239.701172,81.5 L239.701172,66.7607422 L235.680176,66.7607422 L235.680176,73.6953125 C235.680176,75.4355469 235.429688,76.6813965 234.928711,77.4328613 C234.427734,78.1843262 233.614746,78.5600586 232.489746,78.5600586 C231.663574,78.5600586 231.061523,78.2941895 230.683594,77.7624512 C230.305664,77.2307129 230.116699,76.4331055 230.116699,75.3696289 L230.116699,75.3696289 L230.116699,66.7607422 L226.095703,66.7607422 L226.095703,76.371582 C226.095703,78.1118164 226.535156,79.4455566 227.414062,80.3728027 C228.292969,81.3000488 229.598145,81.7636719 231.32959,81.7636719 Z M247.940918,81.5 L247.940918,73.9985352 C247.940918,72.8120117 248.299072,71.8891602 249.015381,71.2299805 C249.731689,70.5708008 250.731445,70.2412109 252.014648,70.2412109 C252.480469,70.2412109 252.875977,70.2851562 253.201172,70.3730469 L253.201172,70.3730469 L253.504395,66.6025391 C253.144043,66.5234375 252.691406,66.4838867 252.146484,66.4838867 C251.232422,66.4838867 250.386475,66.7365723 249.608643,67.2419434 C248.830811,67.7473145 248.213379,68.4130859 247.756348,69.2392578 L247.756348,69.2392578 L247.558594,69.2392578 L246.965332,66.7607422 L243.919922,66.7607422 L243.919922,81.5 L247.940918,81.5 Z M267.597656,81.5 L267.597656,74.1040039 L269.772949,74.1040039 L274.374023,81.5 L278.90918,81.5 C278.030273,80.234375 276.140625,77.4350586 273.240234,73.1020508 C274.382812,72.6010742 275.266113,71.9089355 275.890137,71.0256348 C276.51416,70.142334 276.826172,69.1337891 276.826172,68 C276.826172,66.0576172 276.197754,64.6096191 274.940918,63.6560059 C273.684082,62.7023926 271.746094,62.2255859 269.126953,62.2255859 L269.126953,62.2255859 L263.510742,62.2255859 L263.510742,81.5 L267.597656,81.5 Z M268.916016,70.7817383 L267.597656,70.7817383 L267.597656,65.5742188 L268.836914,65.5742188 C270.155273,65.5742188 271.128662,65.7675781 271.75708,66.1542969 C272.385498,66.5410156 272.699707,67.1914062 272.699707,68.1054688 C272.699707,69.0283203 272.39209,69.7050781 271.776855,70.1357422 C271.161621,70.5664062 270.208008,70.7817383 268.916016,70.7817383 L268.916016,70.7817383 Z M287.228027,81.7636719 C289.486816,81.7636719 291.249023,81.0869141 292.514648,79.7333984 C293.780273,78.3798828 294.413086,76.503418 294.413086,74.1040039 C294.413086,72.5571289 294.123047,71.2080078 293.542969,70.0566406 C292.962891,68.9052734 292.132324,68.0219727 291.05127,67.4067383 C289.970215,66.7915039 288.722168,66.4838867 287.307129,66.4838867 C285.030762,66.4838867 283.26416,67.1518555 282.007324,68.487793 C280.750488,69.8237305 280.12207,71.6958008 280.12207,74.1040039 C280.12207,75.6508789 280.412109,77.0043945 280.992188,78.1645508 C281.572266,79.324707 282.402832,80.2145996 283.483887,80.8342285 C284.564941,81.4538574 285.812988,81.7636719 287.228027,81.7636719 Z M287.280762,78.5336914 C286.199707,78.5336914 285.419678,78.1601562 284.940674,77.4130859 C284.46167,76.6660156 284.222168,75.5629883 284.222168,74.1040039 C284.222168,72.6362305 284.459473,71.5397949 284.934082,70.8146973 C285.408691,70.0895996 286.182129,69.7270508 287.254395,69.7270508 C288.335449,69.7270508 289.113281,70.0917969 289.587891,70.8212891 C290.0625,71.5507812 290.299805,72.6450195 290.299805,74.1040039 C290.299805,75.5717773 290.064697,76.677002 289.594482,77.4196777 C289.124268,78.1623535 288.353027,78.5336914 287.280762,78.5336914 Z M302.890137,81.7636719 C303.900879,81.7636719 304.801758,81.5769043 305.592773,81.2033691 C306.383789,80.829834 306.994629,80.300293 307.425293,79.6147461 L307.425293,79.6147461 L307.63623,79.6147461 L308.176758,81.5 L311.261719,81.5 L311.261719,66.7607422 L307.240723,66.7607422 L307.240723,73.6953125 C307.240723,75.4355469 306.990234,76.6813965 306.489258,77.4328613 C305.988281,78.1843262 305.175293,78.5600586 304.050293,78.5600586 C303.224121,78.5600586 302.62207,78.2941895 302.244141,77.7624512 C301.866211,77.2307129 301.677246,76.4331055 301.677246,75.3696289 L301.677246,75.3696289 L301.677246,66.7607422 L297.65625,66.7607422 L297.65625,76.371582 C297.65625,78.1118164 298.095703,79.4455566 298.974609,80.3728027 C299.853516,81.3000488 301.158691,81.7636719 302.890137,81.7636719 Z M320.529785,81.7636719 C321.98877,81.7636719 323.219238,81.5395508 324.221191,81.0913086 L324.221191,81.0913086 L324.221191,78.0986328 C323.236816,78.40625 322.393066,78.5600586 321.689941,78.5600586 C321.162598,78.5600586 320.738525,78.4238281 320.417725,78.1513672 C320.096924,77.8789062 319.936523,77.4570312 319.936523,76.8857422 L319.936523,76.8857422 L319.936523,69.7797852 L324.062988,69.7797852 L324.062988,66.7607422 L319.936523,66.7607422 L319.936523,63.6230469 L317.365723,63.6230469 L316.205566,66.734375 L313.990723,68.0791016 L313.990723,69.7797852 L315.915527,69.7797852 L315.915527,76.8857422 C315.915527,78.5117188 316.282471,79.7312012 317.016357,80.5441895 C317.750244,81.3571777 318.921387,81.7636719 320.529785,81.7636719 Z M333.871582,81.7636719 C335.022949,81.7636719 335.998535,81.6779785 336.79834,81.5065918 C337.598145,81.3352051 338.349609,81.0737305 339.052734,80.722168 L339.052734,80.722168 L339.052734,77.6108398 C338.191406,78.0151367 337.365234,78.3095703 336.574219,78.4941406 C335.783203,78.6787109 334.943848,78.7709961 334.056152,78.7709961 C332.913574,78.7709961 332.025879,78.4501953 331.393066,77.8085938 C330.760254,77.1669922 330.421875,76.2749023 330.37793,75.1323242 L330.37793,75.1323242 L339.883301,75.1323242 L339.883301,73.1811523 C339.883301,71.0893555 339.303223,69.4501953 338.143066,68.2636719 C336.98291,67.0771484 335.361328,66.4838867 333.27832,66.4838867 C331.098633,66.4838867 329.391357,67.1584473 328.156494,68.5075684 C326.921631,69.8566895 326.304199,71.7661133 326.304199,74.2358398 C326.304199,76.6352539 326.972168,78.4897461 328.308105,79.7993164 C329.644043,81.1088867 331.498535,81.7636719 333.871582,81.7636719 Z M336.112793,72.4560547 L330.470215,72.4560547 C330.540527,71.4628906 330.817383,70.6960449 331.300781,70.1555176 C331.78418,69.6149902 332.452148,69.3447266 333.304688,69.3447266 C334.157227,69.3447266 334.833984,69.6149902 335.334961,70.1555176 C335.835938,70.6960449 336.095215,71.4628906 336.112793,72.4560547 L336.112793,72.4560547 Z" id="YourRoute" fill="#FFFFFF" fill-rule="nonzero"></path>
                <path d="M95.934082,185.5 L97.9541016,177.645508 C98.0429688,177.296875 98.1694336,176.714111 98.3334961,175.897217 C98.4975586,175.080322 98.6000977,174.487305 98.6411133,174.118164 C98.668457,174.418945 98.7727051,175.008545 98.9538574,175.886963 C99.1350098,176.765381 99.2631836,177.344727 99.3383789,177.625 L99.3383789,177.625 L101.368652,185.5 L104.988281,185.5 L108.802734,170.508789 L105.675293,170.508789 L103.768066,178.691406 C103.64502,179.183594 103.508301,179.827881 103.35791,180.624268 C103.20752,181.420654 103.098145,182.085449 103.029785,182.618652 C102.95459,182.064941 102.845215,181.401855 102.70166,180.629395 C102.558105,179.856934 102.438477,179.282715 102.342773,178.906738 L102.342773,178.906738 L100.158691,170.508789 L97.1542969,170.508789 L94.9702148,178.906738 C94.840332,179.35791 94.7019043,179.991943 94.5549316,180.808838 C94.407959,181.625732 94.3139648,182.229004 94.2729492,182.618652 C94.1225586,181.51123 93.8798828,180.202148 93.5449219,178.691406 L93.5449219,178.691406 L91.6274414,170.508789 L88.5,170.508789 L92.324707,185.5 L95.934082,185.5 Z M113.232422,185.705078 C114.12793,185.705078 114.854248,185.576904 115.411377,185.320557 C115.968506,185.064209 116.510254,184.604492 117.036621,183.941406 L117.036621,183.941406 L117.118652,183.941406 L117.723633,185.5 L119.907715,185.5 L119.907715,177.86084 C119.907715,176.493652 119.497559,175.475098 118.677246,174.805176 C117.856934,174.135254 116.677734,173.800293 115.139648,173.800293 C113.533203,173.800293 112.070312,174.145508 110.750977,174.835938 L110.750977,174.835938 L111.786621,176.948242 C113.023926,176.394531 114.100586,176.117676 115.016602,176.117676 C116.206055,176.117676 116.800781,176.69873 116.800781,177.86084 L116.800781,177.86084 L116.800781,178.363281 L114.811523,178.424805 C113.095703,178.486328 111.812256,178.805908 110.961182,179.383545 C110.110107,179.961182 109.68457,180.858398 109.68457,182.075195 C109.68457,183.237305 110.000732,184.132812 110.633057,184.761719 C111.265381,185.390625 112.131836,185.705078 113.232422,185.705078 Z M114.411621,183.418457 C113.399902,183.418457 112.894043,182.977539 112.894043,182.095703 C112.894043,181.480469 113.116211,181.022461 113.560547,180.72168 C114.004883,180.420898 114.681641,180.256836 115.59082,180.229492 L115.59082,180.229492 L116.800781,180.188477 L116.800781,181.131836 C116.800781,181.822266 116.58374,182.375977 116.149658,182.792969 C115.715576,183.209961 115.13623,183.418457 114.411621,183.418457 Z M126.254883,185.5 L126.254883,169.544922 L123.127441,169.544922 L123.127441,185.5 L126.254883,185.5 Z M133.463379,185.705078 C134.598145,185.705078 135.555176,185.530762 136.334473,185.182129 L136.334473,185.182129 L136.334473,182.854492 C135.568848,183.09375 134.912598,183.213379 134.365723,183.213379 C133.955566,183.213379 133.625732,183.107422 133.376221,182.895508 C133.126709,182.683594 133.001953,182.355469 133.001953,181.911133 L133.001953,181.911133 L133.001953,176.384277 L136.211426,176.384277 L136.211426,174.036133 L133.001953,174.036133 L133.001953,171.595703 L131.002441,171.595703 L130.100098,174.015625 L128.377441,175.061523 L128.377441,176.384277 L129.874512,176.384277 L129.874512,181.911133 C129.874512,183.175781 130.159912,184.124268 130.730713,184.756592 C131.301514,185.388916 132.212402,185.705078 133.463379,185.705078 Z M141.779297,185.5 L141.779297,180.106445 C141.779297,178.773438 141.974121,177.80957 142.36377,177.214844 C142.753418,176.620117 143.385742,176.322754 144.260742,176.322754 C145.491211,176.322754 146.106445,177.149902 146.106445,178.804199 L146.106445,178.804199 L146.106445,185.5 L149.233887,185.5 L149.233887,178.024902 C149.233887,176.671387 148.885254,175.632324 148.187988,174.907715 C147.490723,174.183105 146.46875,173.820801 145.12207,173.820801 C143.604492,173.820801 142.49707,174.381348 141.799805,175.502441 L141.799805,175.502441 L141.635742,175.502441 L141.70752,174.57959 C141.755371,173.643066 141.779297,173.04834 141.779297,172.79541 L141.779297,172.79541 L141.779297,169.544922 L138.651855,169.544922 L138.651855,185.5 L141.779297,185.5 Z M155.242676,185.705078 C156.138184,185.705078 156.864502,185.576904 157.421631,185.320557 C157.97876,185.064209 158.520508,184.604492 159.046875,183.941406 L159.046875,183.941406 L159.128906,183.941406 L159.733887,185.5 L161.917969,185.5 L161.917969,177.86084 C161.917969,176.493652 161.507812,175.475098 160.6875,174.805176 C159.867188,174.135254 158.687988,173.800293 157.149902,173.800293 C155.543457,173.800293 154.080566,174.145508 152.76123,174.835938 L152.76123,174.835938 L153.796875,176.948242 C155.03418,176.394531 156.11084,176.117676 157.026855,176.117676 C158.216309,176.117676 158.811035,176.69873 158.811035,177.86084 L158.811035,177.86084 L158.811035,178.363281 L156.821777,178.424805 C155.105957,178.486328 153.82251,178.805908 152.971436,179.383545 C152.120361,179.961182 151.694824,180.858398 151.694824,182.075195 C151.694824,183.237305 152.010986,184.132812 152.643311,184.761719 C153.275635,185.390625 154.14209,185.705078 155.242676,185.705078 Z M156.421875,183.418457 C155.410156,183.418457 154.904297,182.977539 154.904297,182.095703 C154.904297,181.480469 155.126465,181.022461 155.570801,180.72168 C156.015137,180.420898 156.691895,180.256836 157.601074,180.229492 L157.601074,180.229492 L158.811035,180.188477 L158.811035,181.131836 C158.811035,181.822266 158.593994,182.375977 158.159912,182.792969 C157.72583,183.209961 157.146484,183.418457 156.421875,183.418457 Z M168.265137,185.5 L168.265137,180.106445 C168.265137,178.759766 168.446289,177.79248 168.808594,177.20459 C169.170898,176.616699 169.751953,176.322754 170.551758,176.322754 C171.146484,176.322754 171.582275,176.529541 171.859131,176.943115 C172.135986,177.356689 172.274414,177.977051 172.274414,178.804199 L172.274414,178.804199 L172.274414,185.5 L175.401855,185.5 L175.401855,179.747559 C175.401855,178.558105 175.591553,177.689941 175.970947,177.143066 C176.350342,176.596191 176.922852,176.322754 177.688477,176.322754 C178.283203,176.322754 178.718994,176.529541 178.99585,176.943115 C179.272705,177.356689 179.411133,177.977051 179.411133,178.804199 L179.411133,178.804199 L179.411133,185.5 L182.548828,185.5 L182.548828,178.024902 C182.548828,176.555176 182.215576,175.487061 181.549072,174.820557 C180.882568,174.154053 179.899902,173.820801 178.601074,173.820801 C177.849121,173.820801 177.174072,173.967773 176.575928,174.261719 C175.977783,174.555664 175.524902,174.969238 175.217285,175.502441 L175.217285,175.502441 L174.94043,175.502441 C174.332031,174.381348 173.169922,173.820801 171.454102,173.820801 C170.702148,173.820801 170.035645,173.969482 169.45459,174.266846 C168.873535,174.564209 168.429199,174.976074 168.121582,175.502441 L168.121582,175.502441 L167.947266,175.502441 L167.526855,174.036133 L165.137695,174.036133 L165.137695,185.5 L168.265137,185.5 Z M188.865234,185.705078 C190.492188,185.705078 191.714111,185.397461 192.531006,184.782227 C193.3479,184.166992 193.756348,183.271484 193.756348,182.095703 C193.756348,181.52832 193.657227,181.039551 193.458984,180.629395 C193.260742,180.219238 192.953125,179.856934 192.536133,179.54248 C192.119141,179.228027 191.462891,178.889648 190.567383,178.527344 C189.5625,178.124023 188.911377,177.819824 188.614014,177.614746 C188.31665,177.409668 188.167969,177.166992 188.167969,176.886719 C188.167969,176.387695 188.629395,176.138184 189.552246,176.138184 C190.071777,176.138184 190.581055,176.216797 191.080078,176.374023 C191.579102,176.53125 192.115723,176.73291 192.689941,176.979004 L192.689941,176.979004 L193.633301,174.723145 C192.327637,174.121582 190.984375,173.820801 189.603516,173.820801 C188.154297,173.820801 187.034912,174.099365 186.245361,174.656494 C185.455811,175.213623 185.061035,176.001465 185.061035,177.02002 C185.061035,177.614746 185.155029,178.115479 185.343018,178.522217 C185.531006,178.928955 185.831787,179.289551 186.245361,179.604004 C186.658936,179.918457 187.306641,180.260254 188.188477,180.629395 C188.803711,180.88916 189.295898,181.116455 189.665039,181.311279 C190.03418,181.506104 190.293945,181.68042 190.444336,181.834229 C190.594727,181.988037 190.669922,182.187988 190.669922,182.434082 C190.669922,183.090332 190.102539,183.418457 188.967773,183.418457 C188.414062,183.418457 187.773193,183.326172 187.045166,183.141602 C186.317139,182.957031 185.662598,182.728027 185.081543,182.45459 L185.081543,182.45459 L185.081543,185.038574 C185.594238,185.257324 186.144531,185.423096 186.732422,185.535889 C187.320312,185.648682 188.03125,185.705078 188.865234,185.705078 Z M200.124023,185.705078 C201.258789,185.705078 202.21582,185.530762 202.995117,185.182129 L202.995117,185.182129 L202.995117,182.854492 C202.229492,183.09375 201.573242,183.213379 201.026367,183.213379 C200.616211,183.213379 200.286377,183.107422 200.036865,182.895508 C199.787354,182.683594 199.662598,182.355469 199.662598,181.911133 L199.662598,181.911133 L199.662598,176.384277 L202.87207,176.384277 L202.87207,174.036133 L199.662598,174.036133 L199.662598,171.595703 L197.663086,171.595703 L196.760742,174.015625 L195.038086,175.061523 L195.038086,176.384277 L196.535156,176.384277 L196.535156,181.911133 C196.535156,183.175781 196.820557,184.124268 197.391357,184.756592 C197.962158,185.388916 198.873047,185.705078 200.124023,185.705078 Z M210.14209,185.705078 C211.898926,185.705078 213.269531,185.178711 214.253906,184.125977 C215.238281,183.073242 215.730469,181.61377 215.730469,179.747559 C215.730469,178.544434 215.504883,177.495117 215.053711,176.599609 C214.602539,175.704102 213.956543,175.01709 213.115723,174.538574 C212.274902,174.060059 211.304199,173.820801 210.203613,173.820801 C208.433105,173.820801 207.059082,174.340332 206.081543,175.379395 C205.104004,176.418457 204.615234,177.874512 204.615234,179.747559 C204.615234,180.950684 204.84082,182.003418 205.291992,182.905762 C205.743164,183.808105 206.38916,184.500244 207.22998,184.982178 C208.070801,185.464111 209.041504,185.705078 210.14209,185.705078 Z M210.183105,183.192871 C209.342285,183.192871 208.735596,182.902344 208.363037,182.321289 C207.990479,181.740234 207.804199,180.882324 207.804199,179.747559 C207.804199,178.605957 207.98877,177.753174 208.35791,177.189209 C208.727051,176.625244 209.328613,176.343262 210.162598,176.343262 C211.003418,176.343262 211.608398,176.626953 211.977539,177.194336 C212.34668,177.761719 212.53125,178.612793 212.53125,179.747559 C212.53125,180.88916 212.348389,181.748779 211.982666,182.326416 C211.616943,182.904053 211.01709,183.192871 210.183105,183.192871 Z M223.50293,185.5 L225.594727,176.425293 L225.666504,176.425293 L226.855957,181.490723 L227.737793,185.5 L231.14209,185.5 L234.443848,174.036133 L231.37793,174.036133 L230.003906,179.111816 C229.935547,179.412598 229.822754,179.991943 229.665527,180.849854 C229.508301,181.707764 229.398926,182.382812 229.337402,182.875 L229.337402,182.875 L229.275879,182.875 C229.269043,182.683594 229.243408,182.428955 229.198975,182.111084 C229.154541,181.793213 229.10498,181.468506 229.050293,181.136963 C228.995605,180.80542 228.939209,180.492676 228.881104,180.19873 C228.822998,179.904785 228.780273,179.682617 228.75293,179.532227 L228.75293,179.532227 L227.409668,174.036133 L223.964355,174.036133 L222.549316,179.532227 L222.385254,180.403809 C222.17334,181.531738 222.053711,182.355469 222.026367,182.875 L222.026367,182.875 L221.964844,182.875 C221.746094,181.275391 221.530762,180.020996 221.318848,179.111816 L221.318848,179.111816 L219.996094,174.036133 L216.878906,174.036133 L220.139648,185.5 L223.50293,185.5 Z M96.4570312,213.705078 C97.9746094,213.705078 99.3486328,213.44873 100.579102,212.936035 L100.579102,212.936035 L100.579102,210.27002 C99.0820312,210.796387 97.8071289,211.05957 96.7543945,211.05957 C94.2456055,211.05957 92.9912109,209.388184 92.9912109,206.04541 C92.9912109,204.438965 93.3193359,203.186279 93.9755859,202.287354 C94.6318359,201.388428 95.5581055,200.938965 96.7543945,200.938965 C97.3012695,200.938965 97.8583984,201.038086 98.4257812,201.236328 C98.9931641,201.43457 99.5571289,201.666992 100.117676,201.933594 L100.117676,201.933594 L101.143066,199.349609 C99.6733398,198.645508 98.2104492,198.293457 96.7543945,198.293457 C95.3256836,198.293457 94.079834,198.606201 93.0168457,199.231689 C91.9538574,199.857178 91.1386719,200.756104 90.5712891,201.928467 C90.0039062,203.10083 89.7202148,204.466309 89.7202148,206.024902 C89.7202148,208.499512 90.2978516,210.398193 91.453125,211.720947 C92.6083984,213.043701 94.2763672,213.705078 96.4570312,213.705078 Z M108.710449,213.705078 C109.605957,213.705078 110.364746,213.638428 110.986816,213.505127 C111.608887,213.371826 112.193359,213.168457 112.740234,212.89502 L112.740234,212.89502 L112.740234,210.475098 C112.070312,210.789551 111.427734,211.018555 110.8125,211.162109 C110.197266,211.305664 109.544434,211.377441 108.854004,211.377441 C107.965332,211.377441 107.274902,211.12793 106.782715,210.628906 C106.290527,210.129883 106.027344,209.436035 105.993164,208.547363 L105.993164,208.547363 L113.38623,208.547363 L113.38623,207.029785 C113.38623,205.402832 112.935059,204.12793 112.032715,203.205078 C111.130371,202.282227 109.869141,201.820801 108.249023,201.820801 C106.553711,201.820801 105.22583,202.345459 104.265381,203.394775 C103.304932,204.444092 102.824707,205.929199 102.824707,207.850098 C102.824707,209.716309 103.344238,211.158691 104.383301,212.177246 C105.422363,213.195801 106.864746,213.705078 108.710449,213.705078 Z M110.453613,206.46582 L106.064941,206.46582 C106.119629,205.693359 106.334961,205.096924 106.710938,204.676514 C107.086914,204.256104 107.606445,204.045898 108.269531,204.045898 C108.932617,204.045898 109.458984,204.256104 109.848633,204.676514 C110.238281,205.096924 110.439941,205.693359 110.453613,206.46582 L110.453613,206.46582 Z M119.056641,213.5 L119.056641,208.106445 C119.056641,206.75293 119.251465,205.783936 119.641113,205.199463 C120.030762,204.61499 120.663086,204.322754 121.538086,204.322754 C122.180664,204.322754 122.648926,204.529541 122.942871,204.943115 C123.236816,205.356689 123.383789,205.977051 123.383789,206.804199 L123.383789,206.804199 L123.383789,213.5 L126.51123,213.5 L126.51123,206.024902 C126.51123,204.664551 126.166016,203.623779 125.475586,202.902588 C124.785156,202.181396 123.773438,201.820801 122.44043,201.820801 C121.661133,201.820801 120.965576,201.962646 120.35376,202.246338 C119.741943,202.530029 119.261719,202.94873 118.913086,203.502441 L118.913086,203.502441 L118.73877,203.502441 L118.318359,202.036133 L115.929199,202.036133 L115.929199,213.5 L119.056641,213.5 Z M133.658203,213.705078 C134.792969,213.705078 135.75,213.530762 136.529297,213.182129 L136.529297,213.182129 L136.529297,210.854492 C135.763672,211.09375 135.107422,211.213379 134.560547,211.213379 C134.150391,211.213379 133.820557,211.107422 133.571045,210.895508 C133.321533,210.683594 133.196777,210.355469 133.196777,209.911133 L133.196777,209.911133 L133.196777,204.384277 L136.40625,204.384277 L136.40625,202.036133 L133.196777,202.036133 L133.196777,199.595703 L131.197266,199.595703 L130.294922,202.015625 L128.572266,203.061523 L128.572266,204.384277 L130.069336,204.384277 L130.069336,209.911133 C130.069336,211.175781 130.354736,212.124268 130.925537,212.756592 C131.496338,213.388916 132.407227,213.705078 133.658203,213.705078 Z M141.974121,213.5 L141.974121,207.665527 C141.974121,206.742676 142.252686,206.024902 142.809814,205.512207 C143.366943,204.999512 144.144531,204.743164 145.142578,204.743164 C145.504883,204.743164 145.8125,204.777344 146.06543,204.845703 L146.06543,204.845703 L146.30127,201.913086 C146.020996,201.851562 145.668945,201.820801 145.245117,201.820801 C144.53418,201.820801 143.876221,202.017334 143.27124,202.4104 C142.66626,202.803467 142.186035,203.321289 141.830566,203.963867 L141.830566,203.963867 L141.676758,203.963867 L141.215332,202.036133 L138.84668,202.036133 L138.84668,213.5 L141.974121,213.5 Z M151.171875,213.705078 C152.067383,213.705078 152.793701,213.576904 153.35083,213.320557 C153.907959,213.064209 154.449707,212.604492 154.976074,211.941406 L154.976074,211.941406 L155.058105,211.941406 L155.663086,213.5 L157.847168,213.5 L157.847168,205.86084 C157.847168,204.493652 157.437012,203.475098 156.616699,202.805176 C155.796387,202.135254 154.617188,201.800293 153.079102,201.800293 C151.472656,201.800293 150.009766,202.145508 148.69043,202.835938 L148.69043,202.835938 L149.726074,204.948242 C150.963379,204.394531 152.040039,204.117676 152.956055,204.117676 C154.145508,204.117676 154.740234,204.69873 154.740234,205.86084 L154.740234,205.86084 L154.740234,206.363281 L152.750977,206.424805 C151.035156,206.486328 149.751709,206.805908 148.900635,207.383545 C148.049561,207.961182 147.624023,208.858398 147.624023,210.075195 C147.624023,211.237305 147.940186,212.132812 148.57251,212.761719 C149.204834,213.390625 150.071289,213.705078 151.171875,213.705078 Z M152.351074,211.418457 C151.339355,211.418457 150.833496,210.977539 150.833496,210.095703 C150.833496,209.480469 151.055664,209.022461 151.5,208.72168 C151.944336,208.420898 152.621094,208.256836 153.530273,208.229492 L153.530273,208.229492 L154.740234,208.188477 L154.740234,209.131836 C154.740234,209.822266 154.523193,210.375977 154.089111,210.792969 C153.655029,211.209961 153.075684,211.418457 152.351074,211.418457 Z M164.194336,213.5 L164.194336,197.544922 L161.066895,197.544922 L161.066895,213.5 L164.194336,213.5 Z" id="WalthamstowCentral" fill="#0D141F" fill-rule="nonzero"></path>
                <path d="M322.727051,185.5 L322.727051,178.445312 C322.727051,177.59082 322.662109,176.162109 322.532227,174.15918 L322.532227,174.15918 L322.624512,174.15918 L329.145996,185.5 L333.186035,185.5 L333.186035,170.508789 L330.325195,170.508789 L330.325796,177.762426 C330.331804,178.585543 330.382874,179.910339 330.479004,181.736816 L330.479004,181.736816 L330.407227,181.736816 L323.895996,170.508789 L319.886719,170.508789 L319.886719,185.5 L322.727051,185.5 Z M341.542969,185.705078 C343.299805,185.705078 344.67041,185.178711 345.654785,184.125977 C346.63916,183.073242 347.131348,181.61377 347.131348,179.747559 C347.131348,178.544434 346.905762,177.495117 346.45459,176.599609 C346.003418,175.704102 345.357422,175.01709 344.516602,174.538574 C343.675781,174.060059 342.705078,173.820801 341.604492,173.820801 C339.833984,173.820801 338.459961,174.340332 337.482422,175.379395 C336.504883,176.418457 336.016113,177.874512 336.016113,179.747559 C336.016113,180.950684 336.241699,182.003418 336.692871,182.905762 C337.144043,183.808105 337.790039,184.500244 338.630859,184.982178 C339.47168,185.464111 340.442383,185.705078 341.542969,185.705078 Z M341.583984,183.192871 C340.743164,183.192871 340.136475,182.902344 339.763916,182.321289 C339.391357,181.740234 339.205078,180.882324 339.205078,179.747559 C339.205078,178.605957 339.389648,177.753174 339.758789,177.189209 C340.12793,176.625244 340.729492,176.343262 341.563477,176.343262 C342.404297,176.343262 343.009277,176.626953 343.378418,177.194336 C343.747559,177.761719 343.932129,178.612793 343.932129,179.747559 C343.932129,180.88916 343.749268,181.748779 343.383545,182.326416 C343.017822,182.904053 342.417969,183.192871 341.583984,183.192871 Z M353.642578,185.705078 C354.777344,185.705078 355.734375,185.530762 356.513672,185.182129 L356.513672,185.182129 L356.513672,182.854492 C355.748047,183.09375 355.091797,183.213379 354.544922,183.213379 C354.134766,183.213379 353.804932,183.107422 353.55542,182.895508 C353.305908,182.683594 353.181152,182.355469 353.181152,181.911133 L353.181152,181.911133 L353.181152,176.384277 L356.390625,176.384277 L356.390625,174.036133 L353.181152,174.036133 L353.181152,171.595703 L351.181641,171.595703 L350.279297,174.015625 L348.556641,175.061523 L348.556641,176.384277 L350.053711,176.384277 L350.053711,181.911133 C350.053711,183.175781 350.339111,184.124268 350.909912,184.756592 C351.480713,185.388916 352.391602,185.705078 353.642578,185.705078 Z M362.758301,185.705078 C363.893066,185.705078 364.850098,185.530762 365.629395,185.182129 L365.629395,185.182129 L365.629395,182.854492 C364.86377,183.09375 364.20752,183.213379 363.660645,183.213379 C363.250488,183.213379 362.920654,183.107422 362.671143,182.895508 C362.421631,182.683594 362.296875,182.355469 362.296875,181.911133 L362.296875,181.911133 L362.296875,176.384277 L365.506348,176.384277 L365.506348,174.036133 L362.296875,174.036133 L362.296875,171.595703 L360.297363,171.595703 L359.39502,174.015625 L357.672363,175.061523 L357.672363,176.384277 L359.169434,176.384277 L359.169434,181.911133 C359.169434,183.175781 359.454834,184.124268 360.025635,184.756592 C360.596436,185.388916 361.507324,185.705078 362.758301,185.705078 Z M369.515625,172.61084 C370.083008,172.61084 370.508545,172.47583 370.792236,172.205811 C371.075928,171.935791 371.217773,171.558105 371.217773,171.072754 C371.217773,170.054199 370.650391,169.544922 369.515625,169.544922 C368.380859,169.544922 367.813477,170.054199 367.813477,171.072754 C367.813477,172.098145 368.380859,172.61084 369.515625,172.61084 Z M371.074219,185.5 L371.074219,174.036133 L367.946777,174.036133 L367.946777,185.5 L371.074219,185.5 Z M377.48291,185.5 L377.48291,180.106445 C377.48291,178.75293 377.677734,177.783936 378.067383,177.199463 C378.457031,176.61499 379.089355,176.322754 379.964355,176.322754 C380.606934,176.322754 381.075195,176.529541 381.369141,176.943115 C381.663086,177.356689 381.810059,177.977051 381.810059,178.804199 L381.810059,178.804199 L381.810059,185.5 L384.9375,185.5 L384.9375,178.024902 C384.9375,176.664551 384.592285,175.623779 383.901855,174.902588 C383.211426,174.181396 382.199707,173.820801 380.866699,173.820801 C380.087402,173.820801 379.391846,173.962646 378.780029,174.246338 C378.168213,174.530029 377.687988,174.94873 377.339355,175.502441 L377.339355,175.502441 L377.165039,175.502441 L376.744629,174.036133 L374.355469,174.036133 L374.355469,185.5 L377.48291,185.5 Z M391.510254,190.544922 C393.602051,190.544922 395.206787,190.175781 396.324463,189.4375 C397.442139,188.699219 398.000977,187.660156 398.000977,186.320312 C398.000977,185.274414 397.671143,184.481445 397.011475,183.941406 C396.351807,183.401367 395.393066,183.131348 394.135254,183.131348 L394.135254,183.131348 L392.187012,183.131348 C391.038574,183.131348 390.464355,182.905762 390.464355,182.45459 C390.464355,182.153809 390.625,181.880371 390.946289,181.634277 L390.946289,181.634277 L391.407715,181.685547 L391.97168,181.716309 C393.496094,181.716309 394.687256,181.372803 395.545166,180.685791 C396.403076,179.998779 396.832031,179.040039 396.832031,177.80957 C396.832031,177.173828 396.667969,176.599609 396.339844,176.086914 L396.339844,176.086914 L398.134277,175.625488 L398.134277,174.036133 L394.135254,174.036133 C394.012207,174.008789 393.730225,173.966064 393.289307,173.907959 C392.848389,173.849854 392.467285,173.820801 392.145996,173.820801 C390.635254,173.820801 389.473145,174.162598 388.659668,174.846191 C387.846191,175.529785 387.439453,176.49707 387.439453,177.748047 C387.439453,178.527344 387.615479,179.204102 387.967529,179.77832 C388.31958,180.352539 388.796387,180.769531 389.397949,181.029297 C388.919434,181.30957 388.553711,181.594971 388.300781,181.885498 C388.047852,182.176025 387.921387,182.540039 387.921387,182.977539 C387.921387,183.326172 388.041016,183.656006 388.280273,183.967041 C388.519531,184.278076 388.799805,184.501953 389.121094,184.638672 C388.287109,184.836914 387.654785,185.168457 387.224121,185.633301 C386.793457,186.098145 386.578125,186.675781 386.578125,187.366211 C386.578125,188.371094 387.000244,189.1521 387.844482,189.709229 C388.688721,190.266357 389.910645,190.544922 391.510254,190.544922 Z M392.145996,179.809082 C391.564941,179.809082 391.132568,179.62793 390.848877,179.265625 C390.565186,178.90332 390.42334,178.411133 390.42334,177.789062 C390.42334,176.408203 390.997559,175.717773 392.145996,175.717773 C393.280762,175.717773 393.848145,176.408203 393.848145,177.789062 C393.848145,178.411133 393.711426,178.90332 393.437988,179.265625 C393.164551,179.62793 392.733887,179.809082 392.145996,179.809082 Z M391.643555,188.504395 C390.898438,188.504395 390.319092,188.381348 389.905518,188.135254 C389.491943,187.88916 389.285156,187.550781 389.285156,187.120117 C389.285156,186.675781 389.478271,186.318604 389.864502,186.048584 C390.250732,185.778564 390.730957,185.643555 391.305176,185.643555 L391.305176,185.643555 L392.925293,185.643555 C393.711426,185.643555 394.29248,185.725586 394.668457,185.889648 C395.044434,186.053711 395.232422,186.351074 395.232422,186.781738 C395.232422,187.314941 394.914551,187.735352 394.278809,188.042969 C393.643066,188.350586 392.764648,188.504395 391.643555,188.504395 Z M408.900879,185.5 L408.900879,179.029785 L414.837891,179.029785 L414.837891,185.5 L418.006348,185.5 L418.006348,170.508789 L414.837891,170.508789 L414.837891,176.384277 L408.900879,176.384277 L408.900879,170.508789 L405.722168,170.508789 L405.722168,185.5 L408.900879,185.5 Z M423.112793,172.61084 C423.680176,172.61084 424.105713,172.47583 424.389404,172.205811 C424.673096,171.935791 424.814941,171.558105 424.814941,171.072754 C424.814941,170.054199 424.247559,169.544922 423.112793,169.544922 C421.978027,169.544922 421.410645,170.054199 421.410645,171.072754 C421.410645,172.098145 421.978027,172.61084 423.112793,172.61084 Z M424.671387,185.5 L424.671387,174.036133 L421.543945,174.036133 L421.543945,185.5 L424.671387,185.5 Z M431.080078,185.5 L431.080078,169.544922 L427.952637,169.544922 L427.952637,185.5 L431.080078,185.5 Z M437.48877,185.5 L437.48877,169.544922 L434.361328,169.544922 L434.361328,185.5 L437.48877,185.5 Z M452.777344,185.705078 C453.666016,185.705078 454.535889,185.641846 455.386963,185.515381 C456.238037,185.388916 457.145508,185.168457 458.109375,184.854004 L458.109375,184.854004 L458.109375,177.081543 L452.162109,177.081543 L452.162109,179.727051 L455.002441,179.727051 L455.002441,182.854492 C454.318848,182.991211 453.645508,183.05957 452.982422,183.05957 C451.710938,183.05957 450.741943,182.630615 450.075439,181.772705 C449.408936,180.914795 449.075684,179.672363 449.075684,178.04541 C449.075684,176.486816 449.489258,175.246094 450.316406,174.323242 C451.143555,173.400391 452.244141,172.938965 453.618164,172.938965 C454.800781,172.938965 455.938965,173.212402 457.032715,173.759277 L457.032715,173.759277 L458.088867,171.216309 C456.660156,170.601074 455.176758,170.293457 453.638672,170.293457 C451.18457,170.293457 449.265381,170.970215 447.881104,172.32373 C446.496826,173.677246 445.804688,175.563965 445.804688,177.983887 C445.804688,180.472168 446.401123,182.381104 447.593994,183.710693 C448.786865,185.040283 450.514648,185.705078 452.777344,185.705078 Z M464.220703,185.705078 C465.116211,185.705078 465.842529,185.576904 466.399658,185.320557 C466.956787,185.064209 467.498535,184.604492 468.024902,183.941406 L468.024902,183.941406 L468.106934,183.941406 L468.711914,185.5 L470.895996,185.5 L470.895996,177.86084 C470.895996,176.493652 470.48584,175.475098 469.665527,174.805176 C468.845215,174.135254 467.666016,173.800293 466.12793,173.800293 C464.521484,173.800293 463.058594,174.145508 461.739258,174.835938 L461.739258,174.835938 L462.774902,176.948242 C464.012207,176.394531 465.088867,176.117676 466.004883,176.117676 C467.194336,176.117676 467.789062,176.69873 467.789062,177.86084 L467.789062,177.86084 L467.789062,178.363281 L465.799805,178.424805 C464.083984,178.486328 462.800537,178.805908 461.949463,179.383545 C461.098389,179.961182 460.672852,180.858398 460.672852,182.075195 C460.672852,183.237305 460.989014,184.132812 461.621338,184.761719 C462.253662,185.390625 463.120117,185.705078 464.220703,185.705078 Z M465.399902,183.418457 C464.388184,183.418457 463.882324,182.977539 463.882324,182.095703 C463.882324,181.480469 464.104492,181.022461 464.548828,180.72168 C464.993164,180.420898 465.669922,180.256836 466.579102,180.229492 L466.579102,180.229492 L467.789062,180.188477 L467.789062,181.131836 C467.789062,181.822266 467.572021,182.375977 467.137939,182.792969 C466.703857,183.209961 466.124512,183.418457 465.399902,183.418457 Z M478.042969,185.705078 C479.177734,185.705078 480.134766,185.530762 480.914062,185.182129 L480.914062,185.182129 L480.914062,182.854492 C480.148438,183.09375 479.492188,183.213379 478.945312,183.213379 C478.535156,183.213379 478.205322,183.107422 477.955811,182.895508 C477.706299,182.683594 477.581543,182.355469 477.581543,181.911133 L477.581543,181.911133 L477.581543,176.384277 L480.791016,176.384277 L480.791016,174.036133 L477.581543,174.036133 L477.581543,171.595703 L475.582031,171.595703 L474.679688,174.015625 L472.957031,175.061523 L472.957031,176.384277 L474.454102,176.384277 L474.454102,181.911133 C474.454102,183.175781 474.739502,184.124268 475.310303,184.756592 C475.881104,185.388916 476.791992,185.705078 478.042969,185.705078 Z M488.419922,185.705078 C489.31543,185.705078 490.074219,185.638428 490.696289,185.505127 C491.318359,185.371826 491.902832,185.168457 492.449707,184.89502 L492.449707,184.89502 L492.449707,182.475098 C491.779785,182.789551 491.137207,183.018555 490.521973,183.162109 C489.906738,183.305664 489.253906,183.377441 488.563477,183.377441 C487.674805,183.377441 486.984375,183.12793 486.492188,182.628906 C486,182.129883 485.736816,181.436035 485.702637,180.547363 L485.702637,180.547363 L493.095703,180.547363 L493.095703,179.029785 C493.095703,177.402832 492.644531,176.12793 491.742188,175.205078 C490.839844,174.282227 489.578613,173.820801 487.958496,173.820801 C486.263184,173.820801 484.935303,174.345459 483.974854,175.394775 C483.014404,176.444092 482.53418,177.929199 482.53418,179.850098 C482.53418,181.716309 483.053711,183.158691 484.092773,184.177246 C485.131836,185.195801 486.574219,185.705078 488.419922,185.705078 Z M490.163086,178.46582 L485.774414,178.46582 C485.829102,177.693359 486.044434,177.096924 486.42041,176.676514 C486.796387,176.256104 487.315918,176.045898 487.979004,176.045898 C488.64209,176.045898 489.168457,176.256104 489.558105,176.676514 C489.947754,177.096924 490.149414,177.693359 490.163086,178.46582 L490.163086,178.46582 Z" id="NottingHillGate" fill="#0D141F" fill-rule="nonzero"></path>
                <path d="M287.774414,185.5 L287.774414,172.057129 L292.521973,172.057129 L292.521973,170.508789 L281.283691,170.508789 L281.283691,172.057129 L286.03125,172.057129 L286.03125,185.5 L287.774414,185.5 Z M299.012695,185.705078 C300.639648,185.705078 301.914551,185.190674 302.837402,184.161865 C303.760254,183.133057 304.22168,181.702637 304.22168,179.870605 C304.22168,178.086426 303.758545,176.671387 302.832275,175.625488 C301.906006,174.57959 300.656738,174.056641 299.084473,174.056641 C297.45752,174.056641 296.186035,174.567627 295.27002,175.5896 C294.354004,176.611572 293.895996,178.038574 293.895996,179.870605 C293.895996,181.053223 294.10791,182.085449 294.531738,182.967285 C294.955566,183.849121 295.557129,184.525879 296.336426,184.997559 C297.115723,185.469238 298.007812,185.705078 299.012695,185.705078 Z M299.053711,184.279785 C297.939453,184.279785 297.095215,183.903809 296.520996,183.151855 C295.946777,182.399902 295.659668,181.306152 295.659668,179.870605 C295.659668,178.421387 295.943359,177.331055 296.510742,176.599609 C297.078125,175.868164 297.918945,175.502441 299.033203,175.502441 C300.161133,175.502441 301.013916,175.873291 301.591553,176.61499 C302.169189,177.356689 302.458008,178.441895 302.458008,179.870605 C302.458008,181.312988 302.169189,182.408447 301.591553,183.156982 C301.013916,183.905518 300.167969,184.279785 299.053711,184.279785 Z" id="To" fill="#8A8A8A" fill-rule="nonzero"></path>
                <path d="M27.8041992,185.5 L27.8041992,179.091309 L34.0180664,179.091309 L34.0180664,177.542969 L27.8041992,177.542969 L27.8041992,172.057129 L34.4179688,172.057129 L34.4179688,170.508789 L26.0610352,170.508789 L26.0610352,185.5 L27.8041992,185.5 Z M38.3452148,185.5 L38.3452148,179.470703 C38.3452148,178.370117 38.6682129,177.450684 39.314209,176.712402 C39.9602051,175.974121 40.737793,175.60498 41.6469727,175.60498 C42.0024414,175.60498 42.4125977,175.65625 42.8774414,175.758789 L42.8774414,175.758789 L43.1132812,174.179688 C42.7167969,174.097656 42.269043,174.056641 41.7700195,174.056641 C41.065918,174.056641 40.4199219,174.254883 39.8320312,174.651367 C39.2441406,175.047852 38.7416992,175.611816 38.324707,176.343262 L38.324707,176.343262 L38.2426758,176.343262 L38.0478516,174.261719 L36.6430664,174.261719 L36.6430664,185.5 L38.3452148,185.5 Z M49.706543,185.705078 C51.3334961,185.705078 52.6083984,185.190674 53.53125,184.161865 C54.4541016,183.133057 54.9155273,181.702637 54.9155273,179.870605 C54.9155273,178.086426 54.4523926,176.671387 53.526123,175.625488 C52.5998535,174.57959 51.3505859,174.056641 49.7783203,174.056641 C48.1513672,174.056641 46.8798828,174.567627 45.9638672,175.5896 C45.0478516,176.611572 44.5898438,178.038574 44.5898438,179.870605 C44.5898438,181.053223 44.8017578,182.085449 45.2255859,182.967285 C45.6494141,183.849121 46.2509766,184.525879 47.0302734,184.997559 C47.8095703,185.469238 48.7016602,185.705078 49.706543,185.705078 Z M49.7475586,184.279785 C48.6333008,184.279785 47.7890625,183.903809 47.2148438,183.151855 C46.640625,182.399902 46.3535156,181.306152 46.3535156,179.870605 C46.3535156,178.421387 46.637207,177.331055 47.2045898,176.599609 C47.7719727,175.868164 48.612793,175.502441 49.7270508,175.502441 C50.8549805,175.502441 51.7077637,175.873291 52.2854004,176.61499 C52.8630371,177.356689 53.1518555,178.441895 53.1518555,179.870605 C53.1518555,181.312988 52.8630371,182.408447 52.2854004,183.156982 C51.7077637,183.905518 50.8618164,184.279785 49.7475586,184.279785 Z M59.6015625,185.5 L59.6015625,179.604004 C59.6015625,178.147949 59.8493652,177.100342 60.3449707,176.461182 C60.8405762,175.822021 61.621582,175.502441 62.6879883,175.502441 C63.5014648,175.502441 64.0996094,175.726318 64.4824219,176.174072 C64.8652344,176.621826 65.0566406,177.293457 65.0566406,178.188965 L65.0566406,178.188965 L65.0566406,185.5 L66.7587891,185.5 L66.7587891,179.224609 C66.7587891,177.959961 67.0117188,177.023438 67.5175781,176.415039 C68.0234375,175.806641 68.8061523,175.502441 69.8657227,175.502441 C70.6723633,175.502441 71.2670898,175.726318 71.6499023,176.174072 C72.0327148,176.621826 72.2241211,177.293457 72.2241211,178.188965 L72.2241211,178.188965 L72.2241211,185.5 L73.9262695,185.5 L73.9262695,178.168457 C73.9262695,176.73291 73.6101074,175.688721 72.9777832,175.035889 C72.345459,174.383057 71.3935547,174.056641 70.1220703,174.056641 C69.3085938,174.056641 68.5839844,174.227539 67.9482422,174.569336 C67.3125,174.911133 66.8271484,175.375977 66.4921875,175.963867 L66.4921875,175.963867 L66.4101562,175.963867 C65.8701172,174.692383 64.7216797,174.056641 62.9648438,174.056641 C62.2402344,174.056641 61.5856934,174.210449 61.0012207,174.518066 C60.416748,174.825684 59.9638672,175.25293 59.6425781,175.799805 L59.6425781,175.799805 L59.5605469,175.799805 L59.2836914,174.261719 L57.8994141,174.261719 L57.8994141,185.5 L59.6015625,185.5 Z" id="From" fill="#8A8A8A" fill-rule="nonzero"></path>
            </g>
        </g>
    </g>
</svg>