<?xml version="1.0" encoding="UTF-8"?>
<svg width="579px" height="96px" viewBox="0 0 579 96" version="1.1" xmlns="http://www.w3.org/2000/svg" xmlns:xlink="http://www.w3.org/1999/xlink">
    <!-- Generator: Sketch 63.1 (92452) - https://sketch.com -->
    <title>stars</title>
    <desc>Created with Sketch.</desc>
    <defs>
        <path d="M54.2796526,3.01370271 L65.4455984,25.954906 C66.2220725,27.5504881 67.7233935,28.6560882 69.4601348,28.9115489 L94.4291473,32.5906009 C98.8030095,33.2355343 100.548011,38.6839654 97.3842922,41.8102174 L79.3168131,59.6673351 C78.0612379,60.9090413 77.4871426,62.6993598 77.7845157,64.4519873 L82.0489281,89.6672091 C82.796491,94.0833279 78.22438,97.450383 74.3130981,95.366913 L51.9812066,83.4628658 C50.4282583,82.6357596 48.5717417,82.6357596 47.0187934,83.4628658 L24.6869019,95.366913 C20.77562,97.4524769 16.203509,94.0833279 16.9510719,89.6672091 L21.2154843,64.4519873 C21.5128574,62.6993598 20.9387621,60.9090413 19.6831869,59.6673351 L1.61570782,41.8102174 C-1.54801124,38.6818715 0.196990462,33.2334404 4.57085271,32.5906009 L29.5398652,28.9115489 C31.2766065,28.6560882 32.7779275,27.5504881 33.5544016,25.954906 L44.7203474,3.01370271 C46.6739233,-1.00456757 52.3240116,-1.00456757 54.2796526,3.01370271 Z" id="path-1"></path>
    </defs>
    <g id="Web" stroke="none" stroke-width="1" fill="none" fill-rule="evenodd">
        <g id="web---desktop" transform="translate(-503.000000, -6825.000000)">
            <g id="stars" transform="translate(503.000000, 6825.000000)">
                <path d="M54.2796526,3.01370271 L65.4455984,25.954906 C66.2220725,27.5504881 67.7233935,28.6560882 69.4601348,28.9115489 L94.4291473,32.5906009 C98.8030095,33.2355343 100.548011,38.6839654 97.3842922,41.8102174 L79.3168131,59.6673351 C78.0612379,60.9090413 77.4871426,62.6993598 77.7845157,64.4519873 L82.0489281,89.6672091 C82.796491,94.0833279 78.22438,97.450383 74.3130981,95.366913 L51.9812066,83.4628658 C50.4282583,82.6357596 48.5717417,82.6357596 47.0187934,83.4628658 L24.6869019,95.366913 C20.77562,97.4524769 16.203509,94.0833279 16.9510719,89.6672091 L21.2154843,64.4519873 C21.5128574,62.6993598 20.9387621,60.9090413 19.6831869,59.6673351 L1.61570782,41.8102174 C-1.54801124,38.6818715 0.196990462,33.2334404 4.57085271,32.5906009 L29.5398652,28.9115489 C31.2766065,28.6560882 32.7779275,27.5504881 33.5544016,25.954906 L44.7203474,3.01370271 C46.6739233,-1.00456757 52.3240116,-1.00456757 54.2796526,3.01370271 Z" id="Path-Copy-24" fill="#FFD329" fill-rule="nonzero"></path>
                <path d="M174.279653,3.01370271 L185.445598,25.954906 C186.222072,27.5504881 187.723393,28.6560882 189.460135,28.9115489 L214.429147,32.5906009 C218.80301,33.2355343 220.548011,38.6839654 217.384292,41.8102174 L199.316813,59.6673351 C198.061238,60.9090413 197.487143,62.6993598 197.784516,64.4519873 L202.048928,89.6672091 C202.796491,94.0833279 198.22438,97.450383 194.313098,95.366913 L171.981207,83.4628658 C170.428258,82.6357596 168.571742,82.6357596 167.018793,83.4628658 L144.686902,95.366913 C140.77562,97.4524769 136.203509,94.0833279 136.951072,89.6672091 L141.215484,64.4519873 C141.512857,62.6993598 140.938762,60.9090413 139.683187,59.6673351 L121.615708,41.8102174 C118.451989,38.6818715 120.19699,33.2334404 124.570853,32.5906009 L149.539865,28.9115489 C151.276607,28.6560882 152.777928,27.5504881 153.554402,25.954906 L164.720347,3.01370271 C166.673923,-1.00456757 172.324012,-1.00456757 174.279653,3.01370271 Z" id="Path-Copy-25" fill="#FFD329" fill-rule="nonzero"></path>
                <path d="M294.279653,3.01370271 L305.445598,25.954906 C306.222072,27.5504881 307.723393,28.6560882 309.460135,28.9115489 L334.429147,32.5906009 C338.80301,33.2355343 340.548011,38.6839654 337.384292,41.8102174 L319.316813,59.6673351 C318.061238,60.9090413 317.487143,62.6993598 317.784516,64.4519873 L322.048928,89.6672091 C322.796491,94.0833279 318.22438,97.450383 314.313098,95.366913 L291.981207,83.4628658 C290.428258,82.6357596 288.571742,82.6357596 287.018793,83.4628658 L264.686902,95.366913 C260.77562,97.4524769 256.203509,94.0833279 256.951072,89.6672091 L261.215484,64.4519873 C261.512857,62.6993598 260.938762,60.9090413 259.683187,59.6673351 L241.615708,41.8102174 C238.451989,38.6818715 240.19699,33.2334404 244.570853,32.5906009 L269.539865,28.9115489 C271.276607,28.6560882 272.777928,27.5504881 273.554402,25.954906 L284.720347,3.01370271 C286.673923,-1.00456757 292.324012,-1.00456757 294.279653,3.01370271 Z" id="Path-Copy-26" fill="#FFD329" fill-rule="nonzero"></path>
                <path d="M414.279653,3.01370271 L425.445598,25.954906 C426.222072,27.5504881 427.723393,28.6560882 429.460135,28.9115489 L454.429147,32.5906009 C458.80301,33.2355343 460.548011,38.6839654 457.384292,41.8102174 L439.316813,59.6673351 C438.061238,60.9090413 437.487143,62.6993598 437.784516,64.4519873 L442.048928,89.6672091 C442.796491,94.0833279 438.22438,97.450383 434.313098,95.366913 L411.981207,83.4628658 C410.428258,82.6357596 408.571742,82.6357596 407.018793,83.4628658 L384.686902,95.366913 C380.77562,97.4524769 376.203509,94.0833279 376.951072,89.6672091 L381.215484,64.4519873 C381.512857,62.6993598 380.938762,60.9090413 379.683187,59.6673351 L361.615708,41.8102174 C358.451989,38.6818715 360.19699,33.2334404 364.570853,32.5906009 L389.539865,28.9115489 C391.276607,28.6560882 392.777928,27.5504881 393.554402,25.954906 L404.720347,3.01370271 C406.673923,-1.00456757 412.324012,-1.00456757 414.279653,3.01370271 Z" id="Path-Copy-27" fill="#FFD329" fill-rule="nonzero"></path>
                <g id="Rectangle" transform="translate(480.000000, 0.000000)">
                    <mask id="mask-2" fill="white">
                        <use xlink:href="#path-1"></use>
                    </mask>
                    <use id="Mask" fill="#FFD329" fill-rule="nonzero" xlink:href="#path-1"></use>
                    <rect fill="#FFFFFF" mask="url(#mask-2)" x="68" y="0" width="32" height="101"></rect>
                </g>
            </g>
        </g>
    </g>
</svg>